<?xml version="1.0" encoding="UTF-8" standalone="no"?>
<!-- Created with Inkscape (http://www.inkscape.org/) -->

<svg
   version="1.1"
   id="svg1"
   width="433.92801"
   height="493.51599"
   viewBox="0 0 433.92801 493.51599"
   sodipodi:docname="balloon_in_rotating_water_tank.pdf"
   xmlns:inkscape="http://www.inkscape.org/namespaces/inkscape"
   xmlns:sodipodi="http://sodipodi.sourceforge.net/DTD/sodipodi-0.dtd"
   xmlns="http://www.w3.org/2000/svg"
   xmlns:svg="http://www.w3.org/2000/svg">
  <defs
     id="defs1" />
  <sodipodi:namedview
     id="namedview1"
     pagecolor="#ffffff"
     bordercolor="#000000"
     borderopacity="0.25"
     inkscape:showpageshadow="2"
     inkscape:pageopacity="0.0"
     inkscape:pagecheckerboard="0"
     inkscape:deskcolor="#d1d1d1">
    <inkscape:page
       x="0"
       y="0"
       inkscape:label="1"
       id="page1"
       width="433.92801"
       height="493.51599"
       margin="0"
       bleed="0" />
  </sodipodi:namedview>
  <g
     id="g1"
     inkscape:groupmode="layer"
     inkscape:label="1">
    <path
       id="path1"
       d="M 0,3.5198 V 155.818"
       style="fill:none;stroke:#808080;stroke-width:0.3985;stroke-linecap:butt;stroke-linejoin:miter;stroke-miterlimit:10;stroke-dasharray:2.98883, 1.99255;stroke-dashoffset:0;stroke-opacity:1"
       transform="matrix(1.3333333,0,0,-1.3333333,216.964,364.092)" />
    <path
       id="path2"
       d="M 3.58653,0 C 2.52383,0.19925 0.797,0.797 -0.3985,1.49438 V -1.49438 C 0.797,-0.797 2.52383,-0.19925 3.58653,0"
       style="fill:#808080;fill-opacity:1;fill-rule:nonzero;stroke:none"
       transform="matrix(0,-1.3333333,-1.3333333,0,216.964,156.33467)" />
    <path
       id="path3"
       d="m 6.02475,-3.7016641 c 0,-0.4453125 -0.1757812,-0.703125 -0.3984375,-0.703125 -0.2578125,0 -0.5273437,0.2460938 -0.5273437,0.46875 0,0.1054688 0.046875,0.2109375 0.1523437,0.3046875 0.1640625,0.140625 0.3515625,0.4101563 0.3515625,0.8320313 0,0.3984375 -0.1875,0.9726562 -0.5039062,1.4296875 C 4.806,-0.94775781 4.431,-0.60791406 3.96225,-0.60791406 c -0.5625,0 -0.8671875,-0.3515625 -0.9609375,-0.89062504 0.1054688,-0.2578125 0.3398438,-0.9023437 0.3398438,-1.1835937 0,-0.1171875 -0.046875,-0.2109375 -0.1875,-0.2109375 -0.070312,0 -0.1875,0.011719 -0.2578125,0.1640625 -0.1171875,0.1992187 -0.234375,0.84375 -0.234375,1.2070312 -0.328125,0.46875 -0.7265625,0.91406254 -1.359375,0.91406254 -0.65625005,0 -0.86718755,-0.58593754 -0.86718755,-1.14843754 0,-1.2421875 1.01953125,-2.2851562 1.01953125,-2.4140625 0,-0.1171875 -0.082031,-0.1875 -0.1875,-0.1875 -0.1289062,0 -0.1992187,0.1289063 -0.2578125,0.2109375 -0.50390625,0.7382813 -0.890625,1.921875 -0.890625,2.8359375 0,0.67968754 0.234375,1.41796879 1.0429688,1.41796879 0.7148437,0 1.1835937,-0.4921875 1.5351562,-1.04296875 0.09375,0.57421875 0.4804688,1.04296875 1.1015625,1.04296875 0.7734375,0 1.2539063,-0.609375 1.6171875,-1.34765629 C 5.64975,-1.7329141 6.02475,-3.0922891 6.02475,-3.7016641 Z m 0,0"
       style="fill:#808080;fill-opacity:1;fill-rule:nonzero;stroke:none"
       aria-label="ω"
       transform="matrix(1.3333333,0,0,1.3333333,212.592,146.86133)" />
    <path
       id="path4"
       d="M 0,0 H 79.70226 V 149.44174"
       style="fill:none;stroke:#000000;stroke-width:1.19553;stroke-linecap:butt;stroke-linejoin:miter;stroke-miterlimit:10;stroke-dasharray:none;stroke-opacity:1"
       transform="matrix(1.3333333,0,0,-1.3333333,216.964,364.092)" />
    <path
       id="path5"
       d="M 79.70226,29.88788 54.7953,73.0281"
       style="fill:none;stroke:#cccccc;stroke-width:0.79701;stroke-linecap:butt;stroke-linejoin:miter;stroke-miterlimit:10;stroke-dasharray:none;stroke-opacity:1"
       transform="matrix(1.3333333,0,0,-1.3333333,216.964,364.092)" />
    <path
       id="path6"
       d="m 2.566125,-6.8088047 c 0,0 0,-0.1054687 -0.1289062,-0.1054687 -0.2226563,0 -0.9492188,0.082031 -1.2070313,0.1054687 -0.082031,0 -0.1992187,0.011719 -0.1992187,0.1992188 0,0.1171875 0.1054687,0.1171875 0.2578125,0.1171875 0.46875,0 0.4804687,0.082031 0.4804687,0.1640625 l -0.023437,0.1992187 -1.25390625,4.9804688 c -0.0351563,0.1171875 -0.0585938,0.18749996 -0.0585938,0.33984371 0,0.57421875 0.4453125,0.9140625 0.91406255,0.9140625 0.328125,0 0.5742188,-0.19921875 0.75,-0.55078125 0.1757813,-0.38671875 0.2929688,-0.96093746 0.2929688,-0.98437496 0,-0.09375 -0.09375,-0.09375 -0.1171875,-0.09375 -0.1054688,0 -0.1171875,0.035156 -0.140625,0.1757812 -0.1757813,0.64453126 -0.3632813,1.24218751 -0.7617188,1.24218751 -0.2929687,0 -0.2929687,-0.328125 -0.2929687,-0.45703125 0,-0.24609375 0.011719,-0.29296875 0.058594,-0.48046876 z m 0,0"
       style="fill:#808080;fill-opacity:1;fill-rule:nonzero;stroke:none"
       aria-label="l"
       transform="matrix(1.3333333,0,0,1.3333333,304.516,310.012)" />
    <path
       id="path7"
       d="m 80.6986,29.88788 c 0,0.55026 -0.44607,0.99634 -0.99634,0.99634 -0.55026,0 -0.99634,-0.44608 -0.99634,-0.99634 0,-0.55028 0.44608,-0.99634 0.99634,-0.99634 0.55027,0 0.99634,0.44606 0.99634,0.99634 z"
       style="fill:#000000;fill-opacity:1;fill-rule:nonzero;stroke:#000000;stroke-width:0.3985;stroke-linecap:butt;stroke-linejoin:miter;stroke-miterlimit:10;stroke-dasharray:none;stroke-opacity:1"
       transform="matrix(1.3333333,0,0,-1.3333333,216.964,364.092)" />
    <path
       id="path8"
       d="m 59.7767,81.65614 c 0,5.50236 -4.46042,9.96279 -9.96278,9.96279 -5.50235,0 -9.96278,-4.46043 -9.96278,-9.96279 0,-5.50234 4.46043,-9.96278 9.96278,-9.96278 5.50236,0 9.96278,4.46044 9.96278,9.96278 z"
       style="fill:none;stroke:#ff0000;stroke-width:0.3985;stroke-linecap:butt;stroke-linejoin:miter;stroke-miterlimit:10;stroke-dasharray:none;stroke-opacity:1"
       transform="matrix(1.3333333,0,0,-1.3333333,216.964,364.092)" />
    <path
       id="path9"
       d="M 0,0 H -79.70226 V 149.44174"
       style="fill:none;stroke:#000000;stroke-width:1.19553;stroke-linecap:butt;stroke-linejoin:miter;stroke-miterlimit:10;stroke-dasharray:none;stroke-opacity:1"
       transform="matrix(1.3333333,0,0,-1.3333333,216.964,364.092)" />
    <path
       id="path10"
       d="m -79.70226,145.52342 c 43.956,-43.95601 115.44852,-43.95601 159.40452,0"
       style="fill:none;stroke:#ccccff;stroke-width:0.79701;stroke-linecap:butt;stroke-linejoin:miter;stroke-miterlimit:10;stroke-dasharray:none;stroke-opacity:1"
       transform="matrix(1.3333333,0,0,-1.3333333,216.964,364.092)" />
    <path
       id="path11"
       d="M 3.58636,-3.5377 76.11589,-3.90042"
       style="fill:none;stroke:#808080;stroke-width:0.3985;stroke-linecap:butt;stroke-linejoin:miter;stroke-miterlimit:10;stroke-dasharray:2.98883, 1.99255;stroke-dashoffset:0;stroke-opacity:1"
       transform="matrix(1.3333333,0,0,-1.3333333,216.964,364.092)" />
    <path
       id="path12"
       d="M 3.58653,0 C 2.52383,0.19925 0.797,0.797 -0.3985,1.49438 V -1.49438 C 0.797,-0.797 2.52383,-0.19925 3.58653,0"
       style="fill:#808080;fill-opacity:1;fill-rule:nonzero;stroke:none"
       transform="matrix(-1.3332667,-0.00665333,-0.00665333,1.3332667,221.74584,368.80893)" />
    <path
       id="path13"
       d="M 3.58653,0 C 2.52383,0.19925 0.797,0.797 -0.3985,1.49438 V -1.49438 C 0.797,-0.797 2.52383,-0.19925 3.58653,0"
       style="fill:#808080;fill-opacity:1;fill-rule:nonzero;stroke:none"
       transform="matrix(1.3332667,0.00665333,0.00665333,-1.3332667,318.45184,369.29256)" />
    <path
       id="path14"
       d="m 3.7382109,-6.1169531 c 0.058594,-0.234375 0.082031,-0.3398438 0.28125,-0.3632813 0.082031,-0.011719 0.3984375,-0.011719 0.5976563,-0.011719 0.7148437,0 1.8164062,0 1.8164062,0.984375 0,0.3398437 -0.1523437,1.0195312 -0.5507812,1.4179687 -0.2578125,0.2578125 -0.7851563,0.5742188 -1.6757813,0.5742188 H 3.0936797 Z m 1.4296875,2.7304687 c 1.0078125,-0.2226562 2.1914063,-0.9140625 2.1914063,-1.921875 0,-0.8554687 -0.890625,-1.5 -2.203125,-1.5 H 2.3202422 c -0.1992188,0 -0.2929688,0 -0.2929688,0.1992188 0,0.1171875 0.09375,0.1171875 0.28125,0.1171875 0.023437,0 0.2109375,0 0.3867188,0.011719 0.1757812,0.023437 0.2578125,0.035156 0.2578125,0.1640625 0,0.035156 0,0.070312 -0.035156,0.1875 l -1.3359375,5.35546877 c -0.09375,0.38671875 -0.1171875,0.46875 -0.90234371,0.46875 -0.17578125,0 -0.26953125,0 -0.26953125,0.19921875 0,0.105468755 0.1171875,0.105468755 0.140625,0.105468755 0.28125,0 0.97265626,-0.035156255 1.25390626,-0.035156255 0.28125,0 0.984375,0.035156255 1.265625,0.035156255 0.082031,0 0.1992187,0 0.1992187,-0.199218755 0,-0.10546875 -0.09375,-0.10546875 -0.28125,-0.10546875 -0.3632812,0 -0.6445312,0 -0.6445312,-0.1875 0,-0.0585937 0.011719,-0.10546875 0.023437,-0.1640625 l 0.65625,-2.63671877 h 1.1953125 c 0.9023437,0 1.078125,0.5507813 1.078125,0.9023438 0,0.1523437 -0.082031,0.4570312 -0.140625,0.6914062 -0.070312,0.2695313 -0.1523438,0.6445313 -0.1523438,0.84375002 0,1.078125 1.1953125,1.078125 1.3242188,1.078125 0.84375,0 1.1953125,-1.0078125 1.1953125,-1.1484375 0,-0.11718752 -0.1171875,-0.11718752 -0.1171875,-0.11718752 -0.09375,0 -0.1171875,0.0703125 -0.1289063,0.14062502 -0.2578125,0.73828125 -0.6796875,0.902343755 -0.9140625,0.902343755 -0.328125,0 -0.3984375,-0.222656255 -0.3984375,-0.609375005 0,-0.3046875 0.058594,-0.82031247 0.1054688,-1.13671877 0.011719,-0.140625 0.035156,-0.328125 0.035156,-0.46875 0,-0.7617187 -0.6679687,-1.078125 -0.9374996,-1.1718753 z m 0,0"
       style="fill:#808080;fill-opacity:1;fill-rule:nonzero;stroke:none"
       aria-label="R"
       transform="matrix(1.3333333,0,0,1.3333333,265.004,382.82)" />
    <path
       id="path15"
       d="M 49.81392,81.65614 V 64.48027"
       style="fill:#808080;fill-opacity:1;fill-rule:nonzero;stroke:#808080;stroke-width:1.19553;stroke-linecap:butt;stroke-linejoin:miter;stroke-miterlimit:10;stroke-dasharray:none;stroke-opacity:1"
       transform="matrix(1.3333333,0,0,-1.3333333,216.964,364.092)" />
    <path
       id="path16"
       d="M 5.73854,0 C 4.0382,0.31879 1.27522,1.27522 -0.6376,2.39105 v -4.7821 C 1.27522,-1.27522 4.0382,-0.31879 5.73854,0"
       style="fill:#808080;fill-opacity:1;fill-rule:nonzero;stroke:none"
       transform="matrix(0,1.3333333,1.3333333,0,283.38256,278.11831)" />
    <path
       id="path17"
       d="m 0.87930469,-0.58665625 c -0.0351563,0.15234375 -0.09375,0.375 -0.09375,0.421875 0,0.1875 0.140625,0.26953125 0.29296871,0.26953125 0.1171875,0 0.2929688,-0.0703125 0.3632813,-0.26953125 0.011719,-0.0234375 0.1289062,-0.4921875 0.1875,-0.73828125 L 1.8519609,-1.8054062 C 1.9105547,-2.0280625 1.9691484,-2.239 2.0277422,-2.473375 c 0.035156,-0.1640625 0.1171875,-0.4570312 0.1289062,-0.4921875 0.140625,-0.3164062 0.6679688,-1.21875 1.6171875,-1.21875 0.4453125,0 0.5390625,0.3632813 0.5390625,0.6914063 0,0.2578125 -0.070312,0.5390625 -0.1523437,0.8320312 l -0.2695313,1.1601563 -0.1992187,0.74999995 c -0.046875,0.19921875 -0.140625,0.5390625 -0.140625,0.5859375 0,0.1875 0.140625,0.26953125 0.2929687,0.26953125 0.3046875,0 0.375,-0.24609375 0.4453125,-0.5625 0.140625,-0.5625 0.515625,-2.015625 0.5976563,-2.4023437 0.035156,-0.1289063 0.5625,-1.3242188 1.6523437,-1.3242188 0.421875,0 0.5390625,0.3398438 0.5390625,0.6914063 0,0.5742187 -0.421875,1.7109375 -0.6210937,2.2382812 -0.09375,0.234375 -0.1289063,0.3515625 -0.1289063,0.55078125 0,0.46875 0.3515625,0.80859375 0.8085938,0.80859375 0.9375,0 1.3125,-1.453125 1.3125,-1.5351562 0,-0.09375 -0.09375,-0.09375 -0.1171875,-0.09375 -0.1054688,0 -0.1054688,0.023437 -0.1523438,0.1757812 -0.1523437,0.52734375 -0.46875,1.2421875 -1.0195312,1.2421875 -0.1640625,0 -0.234375,-0.10546875 -0.234375,-0.328125 0,-0.2578125 0.082031,-0.4921875 0.1757812,-0.7148437 0.1875,-0.515625 0.609375,-1.6171875 0.609375,-2.1914063 0,-0.6445312 -0.3984375,-1.0664062 -1.1484375,-1.0664062 -0.75,0 -1.2539062,0.4453125 -1.6171875,0.9726562 -0.011719,-0.1289062 -0.046875,-0.46875 -0.328125,-0.7148437 -0.2460937,-0.1992188 -0.5625,-0.2578125 -0.8085937,-0.2578125 -0.9023438,0 -1.3828125,0.6445312 -1.5585938,0.8671875 -0.046875,-0.5625 -0.46875,-0.8671875 -0.9140625,-0.8671875 -0.45703121,0 -0.64453121,0.3867187 -0.73828121,0.5742187 -0.17578125,0.3398438 -0.3046875,0.9375 -0.3046875,0.9609375 0,0.1054688 0.09375,0.1054688 0.1171875,0.1054688 0.09375,0 0.10546875,-0.011719 0.1640625,-0.234375 0.17578125,-0.703125 0.375,-1.1835938 0.72656251,-1.1835938 0.1640625,0 0.3164062,0.082031 0.3164062,0.4570313 0,0.2109375 -0.035156,0.3164062 -0.1640625,0.8320312 z M 13.661531,-5.9304062 C 13.532625,-5.8015 13.2045,-5.52025 13.2045,-5.3444687 c 0,0.1054687 0.09375,0.1992187 0.199219,0.1992187 0.08203,0 0.128906,-0.070312 0.1875,-0.1289062 0.117187,-0.140625 0.339844,-0.421875 0.785156,-0.6445313 0.07031,-0.035156 0.164063,-0.09375 0.164063,-0.2109375 0,-0.09375 -0.07031,-0.1523437 -0.140625,-0.1992187 -0.210938,-0.1523438 -0.328125,-0.328125 -0.398438,-0.5625 -0.02344,-0.09375 -0.07031,-0.2226563 -0.199219,-0.2226563 -0.140625,0 -0.199218,0.1289063 -0.199218,0.2109375 0,0.046875 0.07031,0.3632813 0.234375,0.5742188 h -3.363282 c -0.164062,0 -0.339843,0 -0.339843,0.1992187 0,0.1992188 0.175781,0.1992188 0.339843,0.1992188 z m -0.225586,2.1796875 c 0.01172,-0.070312 0.03516,-0.1171875 0.03516,-0.1875 0,-0.1640625 -0.117188,-0.2695313 -0.292969,-0.2695313 -0.09375,0 -0.363281,0.070312 -0.410156,0.4335938 -0.175782,-0.375 -0.527344,-0.6328125 -0.925782,-0.6328125 -1.136718,0 -2.3671872,1.3945312 -2.3671872,2.8359375 0,0.98437495 0.6093752,1.57031245 1.3242192,1.57031245 0.585937,0 1.054687,-0.46875 1.160156,-0.57421875 l 0.01172,0.0117188 c -0.210938,0.87890625 -0.328125,1.2890625 -0.328125,1.3125 -0.04687,0.0820313 -0.386719,1.078125 -1.441407,1.078125 -0.1875,0 -0.5156247,-0.011719 -0.7968747,-0.1054688 0.3046875,-0.09375 0.4101563,-0.3515625 0.4101563,-0.515625 0,-0.1640625 -0.1054688,-0.35156245 -0.375,-0.35156245 -0.2226563,0 -0.5390625,0.17578125 -0.5390625,0.57421875 0,0.4101563 0.3632812,0.6093751 1.3242189,0.6093751 1.242187,0 1.957031,-0.7734376 2.109375,-1.37109385 z m -1.289062,2.4726562 c -0.05859,0.2578125 -0.292969,0.515625 -0.503906,0.703125 -0.210938,0.17578125 -0.527344,0.3515625 -0.808594,0.3515625 -0.503906,0 -0.65625,-0.515625 -0.65625,-0.9140625 0,-0.4804687 0.292969,-1.6523437 0.5625,-2.15625 0.269531,-0.4921875 0.703125,-0.890625 1.113281,-0.890625 0.65625,0 0.796875,0.8085938 0.796875,0.8554688 0,0.046875 -0.01172,0.1054687 -0.02344,0.1523437 z m 0,0"
       style="fill:#808080;fill-opacity:1;fill-rule:nonzero;stroke:none"
       aria-label="m⃗g"
       transform="matrix(1.3333333,0,0,1.3333333,274.144,300.48533)" />
    <path
       id="path18"
       d="m 49.81392,81.65614 v 24.1498"
       style="fill:#808080;fill-opacity:1;fill-rule:nonzero;stroke:#808080;stroke-width:1.19553;stroke-linecap:butt;stroke-linejoin:miter;stroke-miterlimit:10;stroke-dasharray:none;stroke-opacity:1"
       transform="matrix(1.3333333,0,0,-1.3333333,216.964,364.092)" />
    <path
       id="path19"
       d="M 5.73854,0 C 4.0382,0.31879 1.27522,1.27522 -0.6376,2.39105 v -4.7821 C 1.27522,-1.27522 4.0382,-0.31879 5.73854,0"
       style="fill:#808080;fill-opacity:1;fill-rule:nonzero;stroke:none"
       transform="matrix(0,-1.3333333,-1.3333333,0,283.38256,223.01741)" />
    <g
       id="g19"
       aria-label="⃗&#10;F&#10;A"
       transform="matrix(1.3333333,0,0,1.3333333,290.564,217.43733)">
      <path
         id="path20"
         d="m 5.342625,-5.9295625 c -0.1289062,0.1289063 -0.4570312,0.4101563 -0.4570312,0.5859375 0,0.1054688 0.09375,0.1992188 0.1992187,0.1992188 0.082031,0 0.1289063,-0.070312 0.1875,-0.1289063 0.1171875,-0.140625 0.3398438,-0.421875 0.7851563,-0.6445312 0.070312,-0.035156 0.1640625,-0.09375 0.1640625,-0.2109375 0,-0.09375 -0.070312,-0.1523438 -0.140625,-0.1992188 C 5.8699688,-6.4803437 5.7527813,-6.656125 5.6824688,-6.8905 5.6590313,-6.98425 5.6121563,-7.1131562 5.48325,-7.1131562 c -0.140625,0 -0.1992187,0.1289062 -0.1992187,0.2109375 0,0.046875 0.070312,0.3632812 0.234375,0.5742187 H 2.155125 c -0.1640625,0 -0.3398437,0 -0.3398437,0.1992188 0,0.1992187 0.1757812,0.1992187 0.3398437,0.1992187 z m -3.7880859,5.21484375 h 0.9609375 c 0.75,0 0.8320312,0.15234375 0.8320312,0.4453125 0,0.0703125 0,0.1875 -0.070312,0.4921875 -0.023437,0.046875 -0.035156,0.0820313 -0.035156,0.10546875 0,0.0820313 0.058594,0.1171875 0.1171875,0.1171875 C 3.464696,0.4454375 3.464696,0.422 3.511571,0.2345 l 0.5507813,-2.15625 c 0.023437,-0.1054687 0.023437,-0.1289062 0.023437,-0.1640625 0,-0.011719 -0.011719,-0.1054687 -0.1171875,-0.1054687 -0.09375,0 -0.1054688,0.046875 -0.1523438,0.2109375 C 3.6170391,-1.2069062 3.3826641,-1.031125 2.5389141,-1.031125 H 1.6248516 l 0.6445312,-2.53125 c 0.082031,-0.3398437 0.09375,-0.3867187 0.5390625,-0.3867187 h 1.3125 c 1.21875,0 1.453125,0.328125 1.453125,1.1015625 0,0.2226562 0,0.2695312 -0.035156,0.5390625 -0.011719,0.1289062 -0.011719,0.140625 -0.011719,0.1757812 0,0.046875 0.023437,0.1171875 0.1171875,0.1171875 0.1054688,0 0.1171875,-0.058594 0.140625,-0.2460937 L 5.9842266,-3.98425 C 6.0076641,-4.2537812 5.9607891,-4.2537812 5.7146953,-4.2537812 H 0.82797656 c -0.19921875,0 -0.29296875,0 -0.29296875,0.1992187 0,0.1054688 0.09375,0.1054688 0.28125,0.1054688 0.36328129,0 0.64453129,0 0.64453129,0.1875 0,0.035156 0,0.058594 -0.046875,0.234375 L 0.08969531,1.7462188 c -0.09375,0.3867187 -0.1171875,0.46875 -0.90234375,0.46875 -0.1640625,0 -0.28124996,0 -0.28124996,0.1875 0,0.1171875 0.12890621,0.1171875 0.15234371,0.1171875 0.29296875,0 1.03125,-0.035156 1.3125,-0.035156 0.328125,0 1.16015629,0.035156 1.48828129,0.035156 0.09375,0 0.2109375,0 0.2109375,-0.1875 0,-0.082031 -0.058594,-0.1054688 -0.058594,-0.1171875 -0.035156,0 -0.058594,0 -0.28125,0 -0.2226562,0 -0.2695312,0 -0.515625,-0.023437 C 0.92172656,2.156375 0.88657031,2.1212188 0.88657031,1.9923125 c 0,-0.023437 0,-0.082031 0.046875,-0.234375 z m 0,0"
         style="fill:#808080;fill-opacity:1;fill-rule:nonzero;stroke:none" />
      <path
         id="path21"
         d="m 6.3797344,3.1817656 c -0.2460938,0.375 -0.46875,0.5507813 -0.8789063,0.5859375 -0.070312,0 -0.1640625,0 -0.1640625,0.140625 0,0.082031 0.058594,0.1054688 0.09375,0.1054688 0.1875,0 0.4101563,-0.023437 0.5976563,-0.023437 0.2226562,0 0.515625,0.023437 0.7265625,0.023437 0.035156,0 0.140625,0 0.140625,-0.1523438 0,-0.09375 -0.09375,-0.09375 -0.1289063,-0.09375 -0.046875,-0.011719 -0.3046875,-0.023437 -0.3046875,-0.2109375 0,-0.082031 0.070312,-0.2109375 0.1054688,-0.2695312 l 0.5625,-0.8671875 h 1.9921875 l 0.1640625,1.1601562 c -0.023437,0.070312 -0.070312,0.1875 -0.4804688,0.1875 -0.082031,0 -0.1757812,0 -0.1757812,0.1523438 0,0.023437 0.023437,0.09375 0.1054687,0.09375 0.2109375,0 0.703125,-0.023437 0.9023438,-0.023437 0.1289062,0 0.28125,0 0.4101561,0 0.128906,0.011719 0.269531,0.023437 0.398438,0.023437 0.09375,0 0.140625,-0.058594 0.140625,-0.140625 0,-0.1054688 -0.08203,-0.1054688 -0.199219,-0.1054688 -0.3984376,0 -0.4101564,-0.058594 -0.4335939,-0.2226562 L 9.3328594,-0.76745312 c -0.011719,-0.140625 -0.035156,-0.1875 -0.1640625,-0.1875 -0.1289063,0 -0.1757813,0.0585938 -0.234375,0.15234375 z M 7.2937969,2.1739531 8.7586406,-0.11120312 9.0867656,2.1739531 Z m 0,0"
         style="fill:#808080;fill-opacity:1;fill-rule:nonzero;stroke:none" />
    </g>
    <path
       id="path22"
       d="m 49.81392,81.65614 12.075,-20.91449"
       style="fill:#808080;fill-opacity:1;fill-rule:nonzero;stroke:#808080;stroke-width:1.19553;stroke-linecap:butt;stroke-linejoin:miter;stroke-miterlimit:10;stroke-dasharray:none;stroke-opacity:1"
       transform="matrix(1.3333333,0,0,-1.3333333,216.964,364.092)" />
    <path
       id="path23"
       d="M 5.73854,0 C 4.0382,0.31879 1.27522,1.27522 -0.6376,2.39105 v -4.7821 C 1.27522,-1.27522 4.0382,-0.31879 5.73854,0"
       style="fill:#808080;fill-opacity:1;fill-rule:nonzero;stroke:none"
       transform="matrix(0.66664,1.15468,1.15468,-0.66664,299.48253,283.10313)" />
    <path
       id="path24"
       d="m 5.3433359,-5.9293047 c -0.1289062,0.1289063 -0.4570312,0.4101563 -0.4570312,0.5859375 0,0.1054688 0.09375,0.1992188 0.1992187,0.1992188 0.082031,0 0.1289063,-0.070312 0.1875,-0.1289063 0.1171875,-0.140625 0.3398438,-0.421875 0.7851563,-0.6445312 0.070312,-0.035156 0.1640625,-0.09375 0.1640625,-0.2109375 0,-0.09375 -0.070312,-0.1523438 -0.140625,-0.1992188 -0.2109375,-0.1523437 -0.328125,-0.328125 -0.3984375,-0.5625 -0.023437,-0.09375 -0.070312,-0.2226562 -0.1992188,-0.2226562 -0.140625,0 -0.1992187,0.1289062 -0.1992187,0.2109375 0,0.046875 0.070312,0.3632812 0.234375,0.5742187 H 2.1558359 c -0.1640625,0 -0.3398437,0 -0.3398437,0.1992188 0,0.1992187 0.1757812,0.1992187 0.3398437,0.1992187 z m -2.2646484,2.3994141 c 0.070312,-0.28125 0.1054688,-0.3398438 0.234375,-0.3632813 0.082031,-0.023437 0.4101563,-0.023437 0.6210938,-0.023437 1.0078125,0 1.453125,0.035156 1.453125,0.8203125 0,0.140625 -0.035156,0.5273438 -0.082031,0.796875 0,0.035156 -0.023437,0.1523438 -0.023437,0.1875 0,0.058594 0.023437,0.1289063 0.1171875,0.1289063 0.1054688,0 0.1289063,-0.082031 0.1523438,-0.234375 l 0.2695312,-1.734375 c 0.011719,-0.035156 0.011719,-0.140625 0.011719,-0.1640625 0,-0.1054688 -0.09375,-0.1054688 -0.2695313,-0.1054688 H 0.04353125 c -0.24609375,0 -0.2578125,0 -0.31640625,0.1992188 l -0.59765625,1.7460937 c -0.0117188,0.023437 -0.0703125,0.1640625 -0.0703125,0.1757813 0,0.070312 0.0585938,0.1171875 0.12890625,0.1171875 0.09375,0 0.10546875,-0.046875 0.1640625,-0.2109375 0.5390625,-1.546875 0.796875,-1.7226563 2.2734375,-1.7226563 h 0.3867188 c 0.28125,0 0.28125,0.035156 0.28125,0.1171875 0,0.058594 -0.035156,0.1757813 -0.046875,0.2109375 l -1.3242188,5.320312 c -0.09375,0.3632813 -0.12890625,0.4804688 -1.1953125,0.4804688 -0.3515625,0 -0.41015625,0 -0.41015625,0.1875 0,0.1171875 0.10546875,0.1171875 0.1640625,0.1171875 0.26953125,0 0.55078125,-0.023437 0.8203125,-0.023437 0.28125,0 0.5625,-0.011719 0.84375005,-0.011719 0.28125,0 0.5625,0.011719 0.8320312,0.011719 0.28125,0 0.5859375,0.023437 0.8671875,0.023437 0.09375,0 0.2109375,0 0.2109375,-0.1992188 0,-0.1054687 -0.082031,-0.1054687 -0.3398437,-0.1054687 -0.2460938,0 -0.375,0 -0.6328125,-0.023437 C 1.789625,2.1537031 1.7193125,2.1302656 1.7193125,1.9662031 c 0,-0.011719 0,-0.058594 0.035156,-0.2109375 z m 0,0"
       style="fill:#808080;fill-opacity:1;fill-rule:nonzero;stroke:none"
       aria-label="⃗&#10;T"
       transform="matrix(1.3333333,0,0,1.3333333,300.80133,272.08933)" />
    <path
       id="path25"
       d="M 49.81392,81.65614 H 25.66412"
       style="fill:#808080;fill-opacity:1;fill-rule:nonzero;stroke:#808080;stroke-width:1.19553;stroke-linecap:butt;stroke-linejoin:miter;stroke-miterlimit:10;stroke-dasharray:none;stroke-opacity:1"
       transform="matrix(1.3333333,0,0,-1.3333333,216.964,364.092)" />
    <path
       id="path26"
       d="M 5.73854,0 C 4.0382,0.31879 1.27522,1.27522 -0.6376,2.39105 v -4.7821 C 1.27522,-1.27522 4.0382,-0.31879 5.73854,0"
       style="fill:#808080;fill-opacity:1;fill-rule:nonzero;stroke:none"
       transform="matrix(-1.3333333,0,0,1.3333333,251.18283,255.21715)" />
    <g
       id="g26"
       aria-label="⃗&#10;F&#10;P"
       transform="matrix(1.3333333,0,0,1.3333333,236.78933,244.644)">
      <path
         id="path27"
         d="m 5.3435469,-5.9292891 c -0.1289063,0.1289063 -0.4570313,0.4101563 -0.4570313,0.5859375 0,0.1054688 0.09375,0.1992188 0.1992188,0.1992188 0.082031,0 0.1289062,-0.070312 0.1875,-0.1289063 0.1171875,-0.140625 0.3398437,-0.421875 0.7851562,-0.6445312 0.070312,-0.035156 0.1640625,-0.09375 0.1640625,-0.2109375 0,-0.09375 -0.070312,-0.1523438 -0.140625,-0.1992188 -0.2109375,-0.1523437 -0.328125,-0.328125 -0.3984375,-0.5625 -0.023437,-0.09375 -0.070312,-0.2226562 -0.1992187,-0.2226562 -0.140625,0 -0.1992188,0.1289062 -0.1992188,0.2109375 0,0.046875 0.070312,0.3632812 0.234375,0.5742187 H 2.1560469 c -0.1640625,0 -0.3398438,0 -0.3398438,0.1992188 0,0.1992187 0.1757813,0.1992187 0.3398438,0.1992187 z m -3.788086,5.2119141 h 0.9609375 c 0.75,0 0.8320313,0.15234375 0.8320313,0.4453125 0,0.0703125 0,0.1875 -0.070312,0.4921875 -0.023437,0.046875 -0.035156,0.0820313 -0.035156,0.10546875 0,0.0820313 0.058594,0.1171875 0.1171875,0.1171875 0.1054688,0 0.1054688,-0.0234375 0.1523438,-0.2109375 L 4.0632734,-1.9244062 c 0.023437,-0.1054688 0.023437,-0.1289063 0.023437,-0.1640625 0,-0.011719 -0.011719,-0.1054688 -0.1171875,-0.1054688 -0.09375,0 -0.1054687,0.046875 -0.1523437,0.2109375 -0.1992188,0.7734375 -0.4335938,0.9492188 -1.2773438,0.9492188 h -0.914062 l 0.6445313,-2.53125 C 2.3523359,-3.904875 2.3640547,-3.95175 2.8093672,-3.95175 h 1.3125 c 1.21875,0 1.453125,0.328125 1.453125,1.1015625 0,0.2226563 0,0.2695313 -0.035156,0.5390625 -0.011719,0.1289063 -0.011719,0.140625 -0.011719,0.1757813 0,0.046875 0.023437,0.1171875 0.1171875,0.1171875 0.1054687,0 0.1171875,-0.058594 0.140625,-0.2460938 L 5.9851484,-3.9869062 C 6.0085859,-4.2564375 5.9617109,-4.2564375 5.7156172,-4.2564375 H 0.82889844 c -0.19921875,0 -0.29296875,0 -0.29296875,0.1992188 0,0.1054687 0.09375,0.1054687 0.28125,0.1054687 0.36328121,0 0.64453121,0 0.64453121,0.1875 0,0.035156 0,0.058594 -0.046875,0.234375 L 0.09061719,1.7435625 c -0.09375,0.3867188 -0.1171875,0.46875 -0.90234375,0.46875 -0.1640625,0 -0.28125004,0 -0.28125004,0.1875 0,0.1171875 0.12890629,0.1171875 0.15234379,0.1171875 0.29296875,0 1.03125,-0.035156 1.3125,-0.035156 0.328125,0 1.16015621,0.035156 1.48828121,0.035156 0.09375,0 0.2109375,0 0.2109375,-0.1875 0,-0.082031 -0.058594,-0.1054687 -0.058594,-0.1171875 -0.035156,0 -0.058594,0 -0.28125,0 -0.2226563,0 -0.2695313,0 -0.515625,-0.023437 -0.29296876,-0.035156 -0.32812501,-0.070312 -0.32812501,-0.1992187 0,-0.023437 0,-0.082031 0.046875,-0.234375 z m 0,0"
         style="fill:#808080;fill-opacity:1;fill-rule:nonzero;stroke:none" />
      <path
         id="path28"
         d="m 7.3181563,1.8548906 h 1.265625 c 1.171875,0 2.1679687,-0.7617187 2.1679687,-1.52343747 0,-0.5859375 -0.574219,-1.078125 -1.5234375,-1.078125 h -2.4375 c -0.140625,0 -0.2226562,0 -0.2226562,0.15234375 0,0.09375 0.070312,0.09375 0.2226562,0.09375 0.1171875,0 0.140625,0 0.2695313,0.0117188 0.140625,0.0117188 0.1523437,0.0351563 0.1523437,0.10546875 0,0.0117188 0,0.046875 -0.023437,0.15234375 L 6.2634688,3.4369219 c -0.070312,0.2695312 -0.070312,0.328125 -0.6210938,0.328125 -0.1289062,0 -0.2109375,0 -0.2109375,0.1523437 0,0 0,0.09375 0.1171875,0.09375 0.1992188,0 0.703125,-0.023437 0.9023438,-0.023437 0.1171875,0 0.3632812,0 0.4804687,0 0.140625,0.011719 0.3164063,0.023437 0.4453125,0.023437 0.046875,0 0.1523438,0 0.1523438,-0.1523437 0,-0.09375 -0.082031,-0.09375 -0.2226563,-0.09375 -0.011719,0 -0.140625,0 -0.2695312,-0.023437 -0.1640625,-0.011719 -0.1640625,-0.035156 -0.1640625,-0.1054688 0,0 0,-0.046875 0.035156,-0.1523437 z m 0.5039062,-2.12109372 c 0.046875,-0.2109375 0.058594,-0.234375 0.3515625,-0.234375 h 0.8203125 c 0.6445313,0 1.0546875,0.19921875 1.0546875,0.69140625 0,0.2109375 -0.09375,0.76171875 -0.4335937,1.07812497 C 9.3572188,1.4916094 8.9587813,1.6322344 8.454875,1.6322344 H 7.3415938 Z m 0,0"
         style="fill:#808080;fill-opacity:1;fill-rule:nonzero;stroke:none" />
    </g>
    <path
       id="path29"
       d="M -65.7435,133.65462 V 99.54202"
       style="fill:#808080;fill-opacity:1;fill-rule:nonzero;stroke:#808080;stroke-width:1.19553;stroke-linecap:butt;stroke-linejoin:miter;stroke-miterlimit:10;stroke-dasharray:none;stroke-opacity:1"
       transform="matrix(1.3333333,0,0,-1.3333333,216.964,364.092)" />
    <path
       id="path30"
       d="M 5.73854,0 C 4.0382,0.31879 1.27522,1.27522 -0.6376,2.39105 v -4.7821 C 1.27522,-1.27522 4.0382,-0.31879 5.73854,0"
       style="fill:#808080;fill-opacity:1;fill-rule:nonzero;stroke:none"
       transform="matrix(0,1.3333333,1.3333333,0,129.306,231.36931)" />
    <path
       id="path31"
       d="m 5.1454922,-6.8078828 c 0,0 0,-0.1054688 -0.1289063,-0.1054688 -0.1523437,0 -1.1015625,0.09375 -1.265625,0.1054688 -0.082031,0.011719 -0.140625,0.070312 -0.140625,0.1992187 0,0.1171875 0.082031,0.1171875 0.234375,0.1171875 0.4804688,0 0.5039063,0.070312 0.5039063,0.1640625 l -0.035156,0.1992188 -0.5976562,2.3671875 c -0.1757813,-0.375 -0.46875,-0.6445313 -0.9140625,-0.6445313 -1.171875,0 -2.40234376,1.4648438 -2.40234376,2.9179688 0,0.93749999 0.55078125,1.59374999 1.32421876,1.59374999 0.1992187,0 0.703125,-0.03515625 1.3007812,-0.73828125 0.070312,0.41015625 0.421875,0.73828125 0.9023438,0.73828125 0.3515625,0 0.5742187,-0.22265625 0.7382812,-0.5390625 0.1640625,-0.36328125 0.2929688,-0.97265629 0.2929688,-0.99609379 0,-0.09375 -0.082031,-0.09375 -0.1171875,-0.09375 -0.09375,0 -0.1054688,0.035156 -0.140625,0.1757813 -0.1640625,0.64453124 -0.3515625,1.24218749 -0.75,1.24218749 -0.2695313,0 -0.3046875,-0.2578125 -0.3046875,-0.45703125 0,-0.24609375 0.023437,-0.31640625 0.058594,-0.48046874 z m -2.0742188,5.625 c -0.046875,0.1757812 -0.046875,0.19921874 -0.1992187,0.36328124 -0.4453125,0.55078125 -0.84375,0.71484375 -1.125,0.71484375 -0.5039063,0 -0.6445313,-0.55078125 -0.6445313,-0.93749999 0,-0.5039063 0.328125,-1.7226563 0.5507813,-2.1796875 0.3046875,-0.5976563 0.7617187,-0.9609375 1.1601562,-0.9609375 0.6445313,0 0.7851563,0.8203125 0.7851563,0.8789062 0,0.058594 -0.023437,0.1171875 -0.035156,0.1640625 z m 2.9941407,0.59765624 c -0.035156,0.15234375 -0.09375,0.375 -0.09375,0.421875 0,0.1875 0.140625,0.26953125 0.2929687,0.26953125 0.1171875,0 0.2929688,-0.0703125 0.3632813,-0.26953125 0.011719,-0.0234375 0.1289062,-0.4921875 0.1875,-0.73828125 L 7.0380703,-1.8039766 c 0.058594,-0.2226562 0.1171875,-0.4335937 0.1757813,-0.6679687 0.035156,-0.1640625 0.1171875,-0.4570313 0.1289062,-0.4921875 0.140625,-0.3164063 0.6679688,-1.21875 1.6171875,-1.21875 0.4453125,0 0.5390625,0.3632812 0.5390625,0.6914062 0,0.2578125 -0.070312,0.5390625 -0.1523437,0.8320313 l -0.2695313,1.1601562 -0.1992187,0.75000004 c -0.046875,0.19921875 -0.140625,0.5390625 -0.140625,0.5859375 0,0.1875 0.140625,0.26953125 0.2929687,0.26953125 0.3046875,0 0.375,-0.24609375 0.4453125,-0.5625 0.140625,-0.56249999 0.515625,-2.01562499 0.5976567,-2.40234379 0.03516,-0.1289062 0.5625,-1.3242187 1.652343,-1.3242187 0.421875,0 0.539063,0.3398437 0.539063,0.6914062 0,0.5742188 -0.421875,1.7109375 -0.621094,2.2382813 -0.09375,0.234375 -0.128906,0.35156249 -0.128906,0.55078124 0,0.46875 0.351562,0.80859375 0.808594,0.80859375 0.9375,0 1.3125,-1.45312499 1.3125,-1.53515629 0,-0.09375 -0.09375,-0.09375 -0.117188,-0.09375 -0.105469,0 -0.105469,0.023437 -0.152344,0.1757813 -0.152343,0.52734374 -0.46875,1.24218749 -1.019531,1.24218749 -0.164062,0 -0.234375,-0.10546875 -0.234375,-0.328125 0,-0.2578125 0.08203,-0.4921875 0.175781,-0.71484379 0.1875,-0.515625 0.609375,-1.6171875 0.609375,-2.1914062 0,-0.6445313 -0.398437,-1.0664063 -1.148437,-1.0664063 -0.75,0 -1.253906,0.4453125 -1.617188,0.9726563 -0.01172,-0.1289063 -0.04687,-0.46875 -0.3281247,-0.7148438 -0.2460937,-0.1992187 -0.5625,-0.2578125 -0.8085937,-0.2578125 -0.9023438,0 -1.3828125,0.6445313 -1.5585938,0.8671875 -0.046875,-0.5625 -0.46875,-0.8671875 -0.9140625,-0.8671875 -0.4570312,0 -0.6445312,0.3867188 -0.7382812,0.5742188 -0.1757813,0.3398437 -0.3046875,0.9375 -0.3046875,0.9609375 0,0.1054687 0.09375,0.1054687 0.1171875,0.1054687 0.09375,0 0.1054687,-0.011719 0.1640625,-0.234375 0.1757812,-0.703125 0.375,-1.1835937 0.7265625,-1.1835937 0.1640625,0 0.3164062,0.082031 0.3164062,0.4570312 0,0.2109375 -0.035156,0.3164063 -0.1640625,0.8320313 z M 18.847641,-5.9289766 c -0.128907,0.1289063 -0.457032,0.4101563 -0.457032,0.5859375 0,0.1054688 0.09375,0.1992188 0.199219,0.1992188 0.08203,0 0.128906,-0.070312 0.1875,-0.1289063 0.117188,-0.140625 0.339844,-0.421875 0.785156,-0.6445312 0.07031,-0.035156 0.164063,-0.09375 0.164063,-0.2109375 0,-0.09375 -0.07031,-0.1523438 -0.140625,-0.1992188 -0.210938,-0.1523437 -0.328125,-0.328125 -0.398438,-0.5625 -0.02344,-0.09375 -0.07031,-0.2226562 -0.199218,-0.2226562 -0.140625,0 -0.199219,0.1289062 -0.199219,0.2109375 0,0.046875 0.07031,0.3632812 0.234375,0.5742187 h -3.363281 c -0.164063,0 -0.339844,0 -0.339844,0.1992188 0,0.1992187 0.175781,0.1992187 0.339844,0.1992187 z m -0.228516,2.1796875 c 0.01172,-0.070312 0.03516,-0.1171875 0.03516,-0.1875 0,-0.1640625 -0.117187,-0.2695312 -0.292968,-0.2695312 -0.09375,0 -0.363282,0.070312 -0.410157,0.4335937 -0.175781,-0.375 -0.527343,-0.6328125 -0.925781,-0.6328125 -1.136719,0 -2.367187,1.3945313 -2.367187,2.8359375 0,0.98437504 0.609375,1.5703125375 1.324218,1.5703125375 0.585938,0 1.054688,-0.4687499975 1.160157,-0.5742187475 l 0.01172,0.0117188 c -0.210937,0.87890625 -0.328125,1.2890625 -0.328125,1.3125 -0.04687,0.0820313 -0.386718,1.07812491 -1.441406,1.07812491 -0.1875,0 -0.515625,-0.011719 -0.796875,-0.1054687 0.304688,-0.09375 0.410156,-0.3515625 0.410156,-0.515625 0,-0.1640625 -0.105468,-0.35156246 -0.375,-0.35156246 -0.222656,0 -0.539062,0.17578116 -0.539062,0.57421866 0,0.4101563 0.363281,0.609375 1.324219,0.609375 1.242187,0 1.957031,-0.7734375 2.109375,-1.37109366 z m -1.289062,2.4726563 c -0.05859,0.2578125 -0.292969,0.51562499 -0.503907,0.70312499 -0.210937,0.17578125 -0.527343,0.3515625 -0.808593,0.3515625 -0.503907,0 -0.65625,-0.515625 -0.65625,-0.91406249 0,-0.4804688 0.292968,-1.6523438 0.5625,-2.15625 0.269531,-0.4921875 0.703125,-0.890625 1.113281,-0.890625 0.65625,0 0.796875,0.8085937 0.796875,0.8554687 0,0.046875 -0.01172,0.1054688 -0.02344,0.1523438 z m 0,0"
       style="fill:#808080;fill-opacity:1;fill-rule:nonzero;stroke:none"
       aria-label="dm⃗g"
       transform="matrix(1.3333333,0,0,1.3333333,116.612,253.73733)" />
    <path
       id="path32"
       d="m -65.7435,133.65462 h 24.1498"
       style="fill:#808080;fill-opacity:1;fill-rule:nonzero;stroke:#808080;stroke-width:1.19553;stroke-linecap:butt;stroke-linejoin:miter;stroke-miterlimit:10;stroke-dasharray:none;stroke-opacity:1"
       transform="matrix(1.3333333,0,0,-1.3333333,216.964,364.092)" />
    <path
       id="path33"
       d="M 5.73854,0 C 4.0382,0.31879 1.27522,1.27522 -0.6376,2.39105 v -4.7821 C 1.27522,-1.27522 4.0382,-0.31879 5.73854,0"
       style="fill:#808080;fill-opacity:1;fill-rule:nonzero;stroke:none"
       transform="matrix(1.3333333,0,0,-1.3333333,161.50573,185.88584)" />
    <g
       id="g33"
       aria-label="dmω&#10;2&#10;x"
       transform="matrix(1.3333333,0,0,1.3333333,174.38267,191.29467)">
      <path
         id="path34"
         d="m 5.1446406,-6.8098672 c 0,0 0,-0.1054687 -0.1289062,-0.1054687 -0.1523438,0 -1.1015625,0.09375 -1.265625,0.1054687 -0.082031,0.011719 -0.140625,0.070312 -0.140625,0.1992188 0,0.1171875 0.082031,0.1171875 0.234375,0.1171875 0.4804687,0 0.5039062,0.070312 0.5039062,0.1640625 l -0.035156,0.1992187 -0.5976563,2.3671875 c -0.1757812,-0.375 -0.46875,-0.6445312 -0.9140625,-0.6445312 -1.171875,0 -2.40234372,1.4648437 -2.40234372,2.9179687 0,0.93750001 0.55078125,1.59375001 1.32421872,1.59375001 0.1992188,0 0.703125,-0.03515625 1.3007813,-0.73828125 0.070312,0.41015625 0.421875,0.73828125 0.9023437,0.73828125 0.3515625,0 0.5742188,-0.22265625 0.7382813,-0.5390625 0.1640625,-0.36328125 0.2929687,-0.97265621 0.2929687,-0.99609371 0,-0.09375 -0.082031,-0.09375 -0.1171875,-0.09375 -0.09375,0 -0.1054687,0.035156 -0.140625,0.1757812 -0.1640625,0.64453126 -0.3515625,1.24218751 -0.75,1.24218751 -0.2695312,0 -0.3046875,-0.2578125 -0.3046875,-0.45703125 0,-0.24609375 0.023437,-0.31640625 0.058594,-0.48046876 z m -2.0742187,5.625 c -0.046875,0.1757813 -0.046875,0.19921876 -0.1992188,0.36328126 -0.4453125,0.55078125 -0.84375,0.71484375 -1.125,0.71484375 -0.5039062,0 -0.6445312,-0.55078125 -0.6445312,-0.93750001 0,-0.5039062 0.328125,-1.7226562 0.5507812,-2.1796875 0.3046875,-0.5976562 0.7617188,-0.9609375 1.1601563,-0.9609375 0.6445312,0 0.7851562,0.8203125 0.7851562,0.8789063 0,0.058594 -0.023437,0.1171875 -0.035156,0.1640625 z m 2.9941406,0.59765626 c -0.035156,0.15234375 -0.09375,0.375 -0.09375,0.421875 0,0.1875 0.140625,0.26953125 0.2929688,0.26953125 0.1171875,0 0.2929687,-0.0703125 0.3632812,-0.26953125 0.011719,-0.0234375 0.1289063,-0.4921875 0.1875,-0.73828125 L 7.0372188,-1.8059609 C 7.0958125,-2.0286172 7.1544063,-2.2395547 7.213,-2.4739297 c 0.035156,-0.1640625 0.1171875,-0.4570312 0.1289063,-0.4921875 0.140625,-0.3164062 0.6679687,-1.21875 1.6171875,-1.21875 0.4453125,0 0.5390625,0.3632813 0.5390625,0.6914063 0,0.2578125 -0.070312,0.5390625 -0.1523438,0.8320312 l -0.2695312,1.1601563 -0.1992188,0.74999996 c -0.046875,0.19921875 -0.140625,0.5390625 -0.140625,0.5859375 0,0.1875 0.140625,0.26953125 0.2929688,0.26953125 0.3046875,0 0.375,-0.24609375 0.4453125,-0.5625 0.140625,-0.56250001 0.515625,-2.01562501 0.5976562,-2.40234371 0.03516,-0.1289063 0.5625,-1.3242188 1.652344,-1.3242188 0.421875,0 0.539062,0.3398438 0.539062,0.6914063 0,0.5742187 -0.421875,1.7109375 -0.621093,2.2382812 -0.09375,0.234375 -0.128907,0.35156251 -0.128907,0.55078126 0,0.46875 0.351563,0.80859375 0.808594,0.80859375 0.9375,0 1.3125,-1.45312501 1.3125,-1.53515621 0,-0.09375 -0.09375,-0.09375 -0.117187,-0.09375 -0.105469,0 -0.105469,0.023437 -0.152344,0.1757812 -0.152344,0.52734376 -0.46875,1.24218751 -1.019531,1.24218751 -0.164063,0 -0.234375,-0.10546875 -0.234375,-0.328125 0,-0.2578125 0.08203,-0.4921875 0.175781,-0.71484371 0.1875,-0.515625 0.609375,-1.6171875 0.609375,-2.1914063 0,-0.6445312 -0.398438,-1.0664062 -1.148438,-1.0664062 -0.75,0 -1.253906,0.4453125 -1.617187,0.9726562 -0.01172,-0.1289062 -0.04687,-0.46875 -0.3281252,-0.7148437 -0.2460938,-0.1992188 -0.5625,-0.2578125 -0.8085938,-0.2578125 -0.9023437,0 -1.3828125,0.6445312 -1.5585937,0.8671875 -0.046875,-0.5625 -0.46875,-0.8671875 -0.9140625,-0.8671875 -0.4570313,0 -0.6445313,0.3867187 -0.7382813,0.5742187 -0.1757812,0.3398438 -0.3046875,0.9375 -0.3046875,0.9609375 0,0.1054688 0.09375,0.1054688 0.1171875,0.1054688 0.09375,0 0.1054688,-0.011719 0.1640625,-0.234375 0.1757813,-0.703125 0.375,-1.1835938 0.7265625,-1.1835938 0.1640625,0 0.3164063,0.082031 0.3164063,0.4570313 0,0.2109375 -0.035156,0.3164062 -0.1640625,0.8320312 z M 19.957141,-3.7043984 c 0,-0.4453125 -0.175782,-0.703125 -0.398438,-0.703125 -0.257812,0 -0.527344,0.2460937 -0.527344,0.46875 0,0.1054687 0.04687,0.2109375 0.152344,0.3046875 0.164063,0.140625 0.351563,0.4101562 0.351563,0.8320312 0,0.3984375 -0.1875,0.9726563 -0.503907,1.4296875 -0.292968,0.42187501 -0.667968,0.76171876 -1.136718,0.76171876 -0.5625,0 -0.867188,-0.3515625 -0.960938,-0.89062496 0.105469,-0.2578125 0.339844,-0.9023438 0.339844,-1.1835938 0,-0.1171875 -0.04687,-0.2109375 -0.1875,-0.2109375 -0.07031,0 -0.1875,0.011719 -0.257813,0.1640625 -0.117187,0.1992188 -0.234375,0.84375 -0.234375,1.2070313 -0.328125,0.46875 -0.726562,0.91406246 -1.359375,0.91406246 -0.65625,0 -0.867187,-0.58593746 -0.867187,-1.14843746 0,-1.2421875 1.019531,-2.2851563 1.019531,-2.4140625 0,-0.1171875 -0.08203,-0.1875 -0.1875,-0.1875 -0.128906,0 -0.199219,0.1289062 -0.257812,0.2109375 -0.503907,0.7382812 -0.890625,1.921875 -0.890625,2.8359375 0,0.67968746 0.234375,1.41796871 1.042968,1.41796871 0.714844,0 1.183594,-0.4921875 1.535157,-1.04296875 0.09375,0.57421875 0.480468,1.04296875 1.101562,1.04296875 0.773438,0 1.253906,-0.609375 1.617188,-1.34765621 0.234375,-0.4921875 0.609375,-1.8515625 0.609375,-2.4609375 z m 0,0"
         style="fill:#808080;fill-opacity:1;fill-rule:nonzero;stroke:none" />
      <path
         id="path35"
         d="m 24.005969,-4.8821328 h -0.234375 c -0.02344,0.1523437 -0.08203,0.5625 -0.175781,0.6328125 -0.05859,0.035156 -0.597657,0.035156 -0.691407,0.035156 h -1.289062 c 0.738281,-0.6445312 0.984375,-0.84375 1.394531,-1.171875 0.515625,-0.4101562 0.996094,-0.84375 0.996094,-1.5 0,-0.84375 -0.738281,-1.359375 -1.628906,-1.359375 -0.867188,0 -1.453125,0.609375 -1.453125,1.2421875 0,0.3632813 0.304687,0.3984375 0.375,0.3984375 0.164062,0 0.375,-0.1171875 0.375,-0.375 0,-0.1289062 -0.05859,-0.3632812 -0.421875,-0.3632812 0.222656,-0.5039063 0.691406,-0.65625 1.019531,-0.65625 0.703125,0 1.066406,0.5507812 1.066406,1.1132812 0,0.609375 -0.433594,1.0898438 -0.65625,1.3359375 l -1.6875,1.6640625 c -0.07031,0.058594 -0.07031,0.070312 -0.07031,0.2695313 h 2.882812 z m 0,0"
         style="fill:#808080;fill-opacity:1;fill-rule:nonzero;stroke:none" />
      <path
         id="path36"
         d="m 28.289172,-3.0129922 c 0.05859,-0.2578125 0.292969,-1.171875 0.984375,-1.171875 0.04687,0 0.292969,0 0.503906,0.1289063 -0.28125,0.046875 -0.480469,0.3046875 -0.480469,0.5390625 0,0.1640625 0.105469,0.3515625 0.375,0.3515625 0.222657,0 0.539063,-0.1875 0.539063,-0.5859375 0,-0.515625 -0.585938,-0.65625 -0.925781,-0.65625 -0.574219,0 -0.925782,0.5273437 -1.042969,0.7617187 -0.257813,-0.65625 -0.785156,-0.7617187 -1.078125,-0.7617187 -1.042969,0 -1.605469,1.2890625 -1.605469,1.5351562 0,0.1054688 0.105469,0.1054688 0.117188,0.1054688 0.08203,0 0.117187,-0.023437 0.128906,-0.1171875 0.339844,-1.0546875 0.996094,-1.3007813 1.335937,-1.3007813 0.1875,0 0.539063,0.09375 0.539063,0.6679688 0,0.3046875 -0.164063,0.9726562 -0.539063,2.3671875 -0.152343,0.62109371 -0.503906,1.04296871 -0.949218,1.04296871 -0.05859,0 -0.28125,0 -0.492188,-0.12890625 0.246094,-0.0585938 0.46875,-0.26953125 0.46875,-0.5390625 0,-0.26953126 -0.222656,-0.35156246 -0.375,-0.35156246 -0.292969,0 -0.539062,0.25781246 -0.539062,0.57421871 0,0.45703125 0.492187,0.65625 0.9375,0.65625 0.65625,0 1.007812,-0.69140625 1.042968,-0.75 0.117188,0.36328125 0.480469,0.75 1.078125,0.75 1.019532,0 1.59375,-1.27734371 1.59375,-1.53515621 0,-0.09375 -0.09375,-0.09375 -0.128906,-0.09375 -0.08203,0 -0.105469,0.035156 -0.128906,0.1054687 -0.328125,1.06640626 -0.996094,1.31250001 -1.324219,1.31250001 -0.386719,0 -0.539062,-0.328125 -0.539062,-0.65625 0,-0.22265625 0.05859,-0.44531251 0.164062,-0.87890621 z m 0,0"
         style="fill:#808080;fill-opacity:1;fill-rule:nonzero;stroke:none" />
    </g>
    <path
       id="path37"
       d="m -65.7435,133.65462 26.44528,35.26045"
       style="fill:#808080;fill-opacity:1;fill-rule:nonzero;stroke:#808080;stroke-width:1.19553;stroke-linecap:butt;stroke-linejoin:miter;stroke-miterlimit:10;stroke-dasharray:none;stroke-opacity:1"
       transform="matrix(1.3333333,0,0,-1.3333333,216.964,364.092)" />
    <path
       id="path38"
       d="M 5.73854,0 C 4.0382,0.31879 1.27522,1.27522 -0.6376,2.39105 v -4.7821 C 1.27522,-1.27522 4.0382,-0.31879 5.73854,0"
       style="fill:#808080;fill-opacity:1;fill-rule:nonzero;stroke:none"
       transform="matrix(0.79998667,-1.0666267,-1.0666267,-0.79998667,164.56636,138.87191)" />
    <path
       id="path39"
       d="m 5.145,-6.8093672 c 0,0 0,-0.1054687 -0.1289062,-0.1054687 -0.1523438,0 -1.1015625,0.09375 -1.265625,0.1054687 -0.082031,0.011719 -0.140625,0.070312 -0.140625,0.1992188 0,0.1171875 0.082031,0.1171875 0.234375,0.1171875 0.4804687,0 0.5039062,0.070312 0.5039062,0.1640625 l -0.035156,0.1992187 -0.5976563,2.3671875 c -0.1757812,-0.375 -0.46875,-0.6445312 -0.9140625,-0.6445312 -1.171875,0 -2.40234375,1.4648437 -2.40234375,2.9179687 0,0.93750001 0.55078125,1.59375001 1.32421875,1.59375001 0.1992188,0 0.703125,-0.03515625 1.3007813,-0.73828125 0.070312,0.41015625 0.421875,0.73828125 0.9023437,0.73828125 0.3515625,0 0.5742188,-0.22265625 0.7382813,-0.5390625 C 4.8285938,-0.79764844 4.9575,-1.4070234 4.9575,-1.4304609 c 0,-0.09375 -0.082031,-0.09375 -0.1171875,-0.09375 -0.09375,0 -0.1054687,0.035156 -0.140625,0.1757812 -0.1640625,0.64453126 -0.3515625,1.24218751 -0.75,1.24218751 -0.2695312,0 -0.3046875,-0.2578125 -0.3046875,-0.45703125 0,-0.24609375 0.023437,-0.31640625 0.058594,-0.48046876 z m -2.0742187,5.625 c -0.046875,0.1757813 -0.046875,0.19921876 -0.1992188,0.36328126 -0.4453125,0.55078125 -0.84375,0.71484375 -1.125,0.71484375 -0.5039062,0 -0.6445312,-0.55078125 -0.6445312,-0.93750001 0,-0.5039062 0.328125,-1.7226562 0.5507812,-2.1796875 0.3046875,-0.5976562 0.7617188,-0.9609375 1.1601563,-0.9609375 0.6445312,0 0.7851562,0.8203125 0.7851562,0.8789063 0,0.058594 -0.023437,0.1171875 -0.035156,0.1640625 z M 12.64793,-8.4470625 c -0.128907,0.1289063 -0.457032,0.4101563 -0.457032,0.5859375 0,0.1054688 0.09375,0.1992188 0.199219,0.1992188 0.08203,0 0.128906,-0.070312 0.1875,-0.1289063 0.117188,-0.140625 0.339844,-0.421875 0.785156,-0.6445312 0.07031,-0.035156 0.164063,-0.09375 0.164063,-0.2109375 0,-0.09375 -0.07031,-0.1523438 -0.140625,-0.1992188 -0.210938,-0.1523437 -0.328125,-0.328125 -0.398438,-0.5625 -0.02344,-0.09375 -0.07031,-0.2226562 -0.199218,-0.2226562 -0.140625,0 -0.199219,0.1289062 -0.199219,0.2109375 0,0.046875 0.07031,0.3632812 0.234375,0.5742187 H 9.4604297 c -0.1640625,0 -0.3398438,0 -0.3398438,0.1992188 0,0.1992187 0.1757813,0.1992187 0.3398438,0.1992187 z m 0.07324,2.6923828 c 0.09375,-0.3984375 0.269531,-0.7148437 1.066406,-0.7382812 0.05859,0 0.175781,-0.011719 0.175781,-0.1992188 0,-0.011719 0,-0.1171875 -0.128906,-0.1171875 -0.328125,0 -0.679687,0.035156 -1.007812,0.035156 -0.339844,0 -0.691407,-0.035156 -1.019532,-0.035156 -0.05859,0 -0.175781,0 -0.175781,0.1992188 0,0.1171875 0.09375,0.1171875 0.175781,0.1171875 0.574219,0.011719 0.679688,0.2109375 0.679688,0.4335937 0,0.035156 -0.02344,0.1757813 -0.02344,0.2109375 l -1.125,4.4296875 -2.2031246,-5.1914062 c -0.070312,-0.1875 -0.082031,-0.1992188 -0.3164063,-0.1992188 H 7.4828906 c -0.1992187,0 -0.28125,0 -0.28125,0.1992188 0,0.1171875 0.082031,0.1171875 0.28125,0.1171875 0.046875,0 0.6679688,0 0.6679688,0.082031 l -1.3359375,5.3554688 c -0.09375,0.39843746 -0.2695313,0.71484371 -1.0664063,0.74999996 -0.058594,0 -0.1757812,0 -0.1757812,0.19921875 0,0.0703125 0.046875,0.1054687525 0.1289062,0.1054687525 0.3164063,0 0.6679688,-0.0351562525 0.9960938,-0.0351562525 0.3398437,0 0.703125,0.0351562525 1.03125,0.0351562525 0.046875,0 0.1757812,0 0.1757812,-0.1992187525 0,-0.10546875 -0.09375,-0.10546875 -0.1992187,-0.10546875 -0.5742188,-0.0234375 -0.65625,-0.24609375 -0.65625,-0.4453125 0,-0.0703125 0.011719,-0.1171875 0.035156,-0.22265625 l 1.324219,-5.26171851 c 0.035156,0.058594 0.035156,0.082031 0.082031,0.1757812 l 2.4843751,5.87109376 c 0.07031,0.1640625 0.09375,0.1875000025 0.1875,0.1875000025 0.105469,0 0.105469,-0.0351562525 0.164063,-0.2109375025 z m 0,0"
       style="fill:#808080;fill-opacity:1;fill-rule:nonzero;stroke:none"
       aria-label="d&#10;⃗&#10;N"
       transform="matrix(1.3333333,0,0,1.3333333,159.64,123.544)" />
    <path
       id="path40"
       d="M -35.85515,169.58743 V 133.65462"
       style="fill:none;stroke:#808080;stroke-width:0.3985;stroke-linecap:butt;stroke-linejoin:miter;stroke-miterlimit:10;stroke-dasharray:2.98883, 1.99255;stroke-dashoffset:0;stroke-opacity:1"
       transform="matrix(1.3333333,0,0,-1.3333333,216.964,364.092)" />
    <path
       id="path41"
       d="m -62.80548,97.7218 26.95033,35.93282"
       style="fill:none;stroke:#808080;stroke-width:0.3985;stroke-linecap:butt;stroke-linejoin:miter;stroke-miterlimit:10;stroke-dasharray:2.98883, 1.99255;stroke-dashoffset:0;stroke-opacity:1"
       transform="matrix(1.3333333,0,0,-1.3333333,216.964,364.092)" />
    <path
       id="path42"
       d="M -62.15697,76.9118 H -3.58653"
       style="fill:none;stroke:#808080;stroke-width:0.3985;stroke-linecap:butt;stroke-linejoin:miter;stroke-miterlimit:10;stroke-dasharray:2.98883, 1.99255;stroke-dashoffset:0;stroke-opacity:1"
       transform="matrix(1.3333333,0,0,-1.3333333,216.964,364.092)" />
    <path
       id="path43"
       d="M 3.58653,0 C 2.52383,0.19925 0.797,0.797 -0.3985,1.49438 V -1.49438 C 0.797,-0.797 2.52383,-0.19925 3.58653,0"
       style="fill:#808080;fill-opacity:1;fill-rule:nonzero;stroke:none"
       transform="matrix(-1.3333333,0,0,1.3333333,134.08804,261.54293)" />
    <path
       id="path44"
       d="M 3.58653,0 C 2.52383,0.19925 0.797,0.797 -0.3985,1.49438 V -1.49438 C 0.797,-0.797 2.52383,-0.19925 3.58653,0"
       style="fill:#808080;fill-opacity:1;fill-rule:nonzero;stroke:none"
       transform="matrix(1.3333333,0,0,-1.3333333,212.18196,261.54293)" />
    <path
       id="path45"
       d="m 3.3280078,-3.0109453 c 0.058594,-0.2578125 0.2929688,-1.171875 0.984375,-1.171875 0.046875,0 0.2929688,0 0.5039063,0.1289062 -0.28125,0.046875 -0.4804688,0.3046875 -0.4804688,0.5390625 0,0.1640625 0.1054688,0.3515625 0.375,0.3515625 0.2226563,0 0.5390625,-0.1875 0.5390625,-0.5859375 0,-0.515625 -0.5859375,-0.65625 -0.9257812,-0.65625 -0.5742188,0 -0.9257813,0.5273438 -1.0429688,0.7617188 -0.2578125,-0.65625 -0.7851562,-0.7617188 -1.078125,-0.7617188 -1.0429687,0 -1.60546874,1.2890625 -1.60546874,1.5351563 0,0.1054687 0.10546875,0.1054687 0.1171875,0.1054687 0.0820313,0 0.1171875,-0.023437 0.12890625,-0.1171875 0.33984379,-1.0546875 0.99609379,-1.3007812 1.33593749,-1.3007812 0.1875,0 0.5390625,0.09375 0.5390625,0.6679687 0,0.3046875 -0.1640625,0.9726563 -0.5390625,2.3671875 -0.1523437,0.62109379 -0.5039062,1.04296879 -0.9492187,1.04296879 -0.058594,0 -0.28125004,0 -0.49218754,-0.12890625 0.24609375,-0.0585937 0.46875004,-0.26953125 0.46875004,-0.5390625 0,-0.26953124 -0.22265629,-0.35156254 -0.37500004,-0.35156254 -0.29296875,0 -0.5390625,0.25781254 -0.5390625,0.57421879 0,0.45703125 0.4921875,0.65625 0.93750004,0.65625 0.65625,0 1.0078125,-0.69140625 1.0429687,-0.75 0.1171875,0.36328125 0.4804688,0.75 1.078125,0.75 1.0195313,0 1.59375,-1.27734379 1.59375,-1.53515629 0,-0.09375 -0.09375,-0.09375 -0.1289062,-0.09375 -0.082031,0 -0.1054688,0.035156 -0.1289063,0.1054688 -0.328125,1.06640624 -0.9960937,1.31249999 -1.3242187,1.31249999 -0.3867188,0 -0.5390625,-0.328125 -0.5390625,-0.65625 0,-0.22265625 0.058594,-0.44531249 0.1640625,-0.87890629 z m 0,0"
       style="fill:#808080;fill-opacity:1;fill-rule:nonzero;stroke:none"
       aria-label="x"
       transform="matrix(1.3333333,0,0,1.3333333,169.34,271.956)" />
    <path
       id="path46"
       d="M 46.22739,41.85004 H 3.58653"
       style="fill:none;stroke:#808080;stroke-width:0.3985;stroke-linecap:butt;stroke-linejoin:miter;stroke-miterlimit:10;stroke-dasharray:2.98883, 1.99255;stroke-dashoffset:0;stroke-opacity:1"
       transform="matrix(1.3333333,0,0,-1.3333333,216.964,364.092)" />
    <path
       id="path47"
       d="M 3.58653,0 C 2.52383,0.19925 0.797,0.797 -0.3985,1.49438 V -1.49438 C 0.797,-0.797 2.52383,-0.19925 3.58653,0"
       style="fill:#808080;fill-opacity:1;fill-rule:nonzero;stroke:none"
       transform="matrix(1.3333333,0,0,-1.3333333,278.60052,308.29195)" />
    <path
       id="path48"
       d="M 3.58653,0 C 2.52383,0.19925 0.797,0.797 -0.3985,1.49438 V -1.49438 C 0.797,-0.797 2.52383,-0.19925 3.58653,0"
       style="fill:#808080;fill-opacity:1;fill-rule:nonzero;stroke:none"
       transform="matrix(-1.3333333,0,0,1.3333333,221.74604,308.29195)" />
    <g
       id="g48"
       aria-label="x&#10;0"
       transform="matrix(1.3333333,0,0,1.3333333,243.39733,318.70533)">
      <path
         id="path49"
         d="m 3.3289531,-3.0104453 c 0.058594,-0.2578125 0.2929688,-1.171875 0.984375,-1.171875 0.046875,0 0.2929688,0 0.5039063,0.1289062 -0.28125,0.046875 -0.4804688,0.3046875 -0.4804688,0.5390625 0,0.1640625 0.1054688,0.3515625 0.375,0.3515625 0.2226563,0 0.5390625,-0.1875 0.5390625,-0.5859375 0,-0.515625 -0.5859375,-0.65625 -0.9257812,-0.65625 -0.5742188,0 -0.9257813,0.5273438 -1.0429688,0.7617188 -0.2578125,-0.65625 -0.7851562,-0.7617188 -1.078125,-0.7617188 -1.0429687,0 -1.60546872,1.2890625 -1.60546872,1.5351563 0,0.1054687 0.10546875,0.1054687 0.1171875,0.1054687 0.0820313,0 0.1171875,-0.023437 0.12890625,-0.1171875 0.33984377,-1.0546875 0.99609377,-1.3007812 1.33593747,-1.3007812 0.1875,0 0.5390625,0.09375 0.5390625,0.6679687 0,0.3046875 -0.1640625,0.9726563 -0.5390625,2.3671875 -0.1523437,0.62109379 -0.5039062,1.04296879 -0.9492187,1.04296879 -0.058594,0 -0.28125002,0 -0.49218752,-0.12890625 0.24609375,-0.0585937 0.46875002,-0.26953125 0.46875002,-0.5390625 0,-0.26953124 -0.22265627,-0.35156254 -0.37500002,-0.35156254 -0.29296875,0 -0.5390625,0.25781254 -0.5390625,0.57421879 0,0.45703125 0.4921875,0.65625 0.93750002,0.65625 0.65625,0 1.0078125,-0.69140625 1.0429687,-0.75 0.1171875,0.36328125 0.4804688,0.75 1.078125,0.75 1.0195313,0 1.59375,-1.27734379 1.59375,-1.53515629 0,-0.09375 -0.09375,-0.09375 -0.1289062,-0.09375 -0.082031,0 -0.1054688,0.035156 -0.1289063,0.1054688 -0.328125,1.06640624 -0.9960937,1.31249999 -1.3242187,1.31249999 -0.3867188,0 -0.5390625,-0.328125 -0.5390625,-0.65625 0,-0.22265625 0.058594,-0.44531249 0.1640625,-0.87890629 z m 0,0"
         style="fill:#808080;fill-opacity:1;fill-rule:nonzero;stroke:none" />
      <path
         id="path50"
         d="m 9.2908672,-0.73114844 c 0,-0.76171876 -0.09375,-1.31249996 -0.4101563,-1.80468746 -0.2226562,-0.3164063 -0.6445312,-0.5976563 -1.2070312,-0.5976563 -1.6171875,0 -1.6171875,1.8984375 -1.6171875,2.40234376 0,0.50390625 0,2.36718754 1.6171875,2.36718754 1.6171875,0 1.6171875,-1.86328129 1.6171875,-2.36718754 z M 7.6736797,1.4368203 c -0.3164063,0 -0.75,-0.1875 -0.890625,-0.76171874 -0.09375,-0.41015625 -0.09375,-0.984375 -0.09375,-1.5 0,-0.50390626 0,-1.03124996 0.1054687,-1.41796876 0.1523438,-0.5507812 0.5976563,-0.6914062 0.8789063,-0.6914062 0.375,0 0.7382812,0.2226562 0.8671875,0.6328125 0.1054687,0.375 0.1171875,0.8789062 0.1171875,1.47656246 0,0.515625 0,1.04296875 -0.09375,1.4765625 C 8.4236797,1.2844766 7.9549297,1.4368203 7.6736797,1.4368203 Z m 0,0"
         style="fill:#808080;fill-opacity:1;fill-rule:nonzero;stroke:none" />
    </g>
    <path
       id="path51"
       d="m 50.81026,81.65614 c 0,0.55026 -0.44606,0.99634 -0.99634,0.99634 -0.55026,0 -0.99634,-0.44608 -0.99634,-0.99634 0,-0.55026 0.44608,-0.99634 0.99634,-0.99634 0.55028,0 0.99634,0.44608 0.99634,0.99634 z"
       style="fill:#000000;fill-opacity:1;fill-rule:nonzero;stroke:#000000;stroke-width:0.3985;stroke-linecap:butt;stroke-linejoin:miter;stroke-miterlimit:10;stroke-dasharray:none;stroke-opacity:1"
       transform="matrix(1.3333333,0,0,-1.3333333,216.964,364.092)" />
    <path
       id="path52"
       d="m -64.74716,133.65462 c 0,0.55026 -0.44608,0.99634 -0.99634,0.99634 -0.55026,0 -0.99634,-0.44608 -0.99634,-0.99634 0,-0.55027 0.44608,-0.99634 0.99634,-0.99634 0.55026,0 0.99634,0.44607 0.99634,0.99634 z"
       style="fill:#000000;fill-opacity:1;fill-rule:nonzero;stroke:#000000;stroke-width:0.3985;stroke-linecap:butt;stroke-linejoin:miter;stroke-miterlimit:10;stroke-dasharray:none;stroke-opacity:1"
       transform="matrix(1.3333333,0,0,-1.3333333,216.964,364.092)" />
    <path
       id="path53"
       d="m -55.78072,133.65462 c 0,3.1354 -1.47697,6.08873 -3.98521,7.96994"
       style="fill:none;stroke:#808080;stroke-width:0.3985;stroke-linecap:butt;stroke-linejoin:miter;stroke-miterlimit:10;stroke-dasharray:none;stroke-opacity:1"
       transform="matrix(1.3333333,0,0,-1.3333333,216.964,364.092)" />
    <path
       id="path54"
       d="m 5.1570156,-3.7162344 c 0.1289063,0 0.4921875,0 0.4921875,-0.3398437 0,-0.234375 -0.2109375,-0.234375 -0.3867187,-0.234375 H 2.9890469 c -1.5,0 -2.61328127,1.640625 -2.61328127,2.8242187 0,0.87890628 0.5859375,1.57031253 1.49999997,1.57031253 1.171875,0 2.4960938,-1.20703123 2.4960938,-2.73046873 0,-0.1757813 0,-0.65625 -0.3046875,-1.0898438 z m -3.2695312,3.60937503 c -0.4921875,0 -0.89062502,-0.36328125 -0.89062502,-1.07812503 0,-0.3046875 0.11718752,-1.1132812 0.46875002,-1.7109375 0.421875,-0.6796875 1.0195312,-0.8203125 1.359375,-0.8203125 0.8320312,0 0.9140625,0.65625 0.9140625,0.9609375 0,0.46875 -0.1992188,1.2890625 -0.5390625,1.79296878 -0.3867188,0.59765625 -0.9257813,0.85546875 -1.3125,0.85546875 z m 0,0"
       style="fill:#808080;fill-opacity:1;fill-rule:nonzero;stroke:none"
       aria-label="σ"
       transform="matrix(1.3333333,0,0,1.3333333,144.17867,177.63467)" />
    <path
       id="path55"
       d="m 79.70226,47.8209 c -3.14708,0 -6.24109,-0.82926 -8.96651,-2.40281"
       style="fill:none;stroke:#808080;stroke-width:0.3985;stroke-linecap:butt;stroke-linejoin:miter;stroke-miterlimit:10;stroke-dasharray:none;stroke-opacity:1"
       transform="matrix(1.3333333,0,0,-1.3333333,216.964,364.092)" />
    <path
       id="path56"
       d="m 4.7474609,-2.3556172 c 0,-1.5585937 -0.9257812,-2.0507812 -1.6523437,-2.0507812 -1.3710938,0 -2.68359376,1.4296875 -2.68359376,2.8359375 0,0.92578121 0.59765626,1.67578121 1.61718746,1.67578121 0.6210938,0 1.3359375,-0.22265625 2.0976563,-0.83203125 0.1289062,0.52734375 0.4570312,0.83203125 0.9023437,0.83203125 0.5273438,0 0.84375,-0.5390625 0.84375,-0.703125 0,-0.0703125 -0.058594,-0.10546875 -0.1289062,-0.10546875 -0.058594,0 -0.09375,0.0351563 -0.1289063,0.10546875 -0.1757812,0.4921875 -0.5273437,0.4921875 -0.5507812,0.4921875 -0.3164063,0 -0.3164063,-0.78515625 -0.3164063,-1.01953121 0,-0.2109375 0,-0.234375 0.1054688,-0.3515625 0.9375,-1.171875 1.1484375,-2.3320313 1.1484375,-2.34375 0,-0.011719 -0.011719,-0.09375 -0.1171875,-0.09375 -0.1054688,0 -0.1054688,0.023437 -0.1523438,0.2109375 -0.1875,0.6210937 -0.515625,1.3828125 -0.984375,1.96875 z m -0.65625,1.37109376 c -0.8789062,0.76171875 -1.6523437,0.87890625 -2.0507812,0.87890625 -0.5976563,0 -0.890625,-0.45703125 -0.890625,-1.08984371 0,-0.4921875 0.2578125,-1.5585938 0.5742187,-2.0742188 0.46875,-0.7265625 1.0078125,-0.9140625 1.359375,-0.9140625 0.984375,0 0.984375,1.3007813 0.984375,2.0859375 0,0.3632813 0,0.9375 0.023437,1.11328126 z m 0,0"
       style="fill:#808080;fill-opacity:1;fill-rule:nonzero;stroke:none"
       aria-label="α"
       transform="matrix(1.3333333,0,0,1.3333333,311.53333,296.73067)" />
  </g>
</svg>
