<?xml version="1.0" encoding="UTF-8" standalone="no"?>
<!-- Created with Inkscape (http://www.inkscape.org/) -->

<svg
   version="1.1"
   id="svg1"
   width="274.52533"
   height="334.11334"
   viewBox="0 0 274.52533 334.11334"
   sodipodi:docname="balloon_in_rotating_water_tank.pdf"
   xmlns:inkscape="http://www.inkscape.org/namespaces/inkscape"
   xmlns:sodipodi="http://sodipodi.sourceforge.net/DTD/sodipodi-0.dtd"
   xmlns="http://www.w3.org/2000/svg"
   xmlns:svg="http://www.w3.org/2000/svg">
  <defs
     id="defs1" />
  <sodipodi:namedview
     id="namedview1"
     pagecolor="#ffffff"
     bordercolor="#000000"
     borderopacity="0.25"
     inkscape:showpageshadow="2"
     inkscape:pageopacity="0.0"
     inkscape:pagecheckerboard="0"
     inkscape:deskcolor="#d1d1d1">
    <inkscape:page
       x="0"
       y="0"
       inkscape:label="1"
       id="page1"
       width="274.52533"
       height="334.11334"
       margin="0"
       bleed="0" />
  </sodipodi:namedview>
  <g
     id="g1"
     inkscape:groupmode="layer"
     inkscape:label="1">
    <path
       id="path1"
       d="M 0,3.5198 V 155.818"
       style="fill:none;stroke:#808080;stroke-width:0.3985;stroke-linecap:butt;stroke-linejoin:miter;stroke-miterlimit:10;stroke-dasharray:2.98883, 1.99255;stroke-dashoffset:0;stroke-opacity:1"
       transform="matrix(1.3333333,0,0,-1.3333333,137.26267,284.39067)" />
    <path
       id="path2"
       d="M 3.58653,0 C 2.52383,0.19925 0.797,0.797 -0.3985,1.49438 V -1.49438 C 0.797,-0.797 2.52383,-0.19925 3.58653,0"
       style="fill:#808080;fill-opacity:1;fill-rule:nonzero;stroke:none"
       transform="matrix(0,-1.3333333,-1.3333333,0,137.26267,76.633333)" />
    <path
       id="path3"
       d="m 6.0234062,-3.7030078 c 0,-0.4453125 -0.1757812,-0.703125 -0.3984375,-0.703125 -0.2578125,0 -0.5273437,0.2460937 -0.5273437,0.46875 0,0.1054687 0.046875,0.2109375 0.1523437,0.3046875 0.1640625,0.140625 0.3515625,0.4101562 0.3515625,0.8320312 0,0.3984375 -0.1875,0.9726563 -0.5039062,1.4296875 -0.2929688,0.42187504 -0.6679688,0.76171879 -1.1367188,0.76171879 -0.5625,0 -0.8671875,-0.3515625 -0.9609375,-0.89062499 0.1054688,-0.2578125 0.3398438,-0.9023438 0.3398438,-1.1835938 0,-0.1171875 -0.046875,-0.2109375 -0.1875,-0.2109375 -0.070312,0 -0.1875,0.011719 -0.2578125,0.1640625 -0.1171875,0.1992188 -0.234375,0.84375 -0.234375,1.2070313 -0.328125,0.46875 -0.7265625,0.91406249 -1.359375,0.91406249 -0.65625,0 -0.8671875,-0.58593749 -0.8671875,-1.14843749 0,-1.2421875 1.0195312,-2.2851563 1.0195312,-2.4140625 0,-0.1171875 -0.082031,-0.1875 -0.1875,-0.1875 -0.1289062,0 -0.1992187,0.1289062 -0.2578125,0.2109375 -0.5039062,0.7382812 -0.89062495,1.921875 -0.89062495,2.8359375 0,0.67968749 0.234375,1.41796874 1.04296875,1.41796874 0.7148437,0 1.1835937,-0.4921875 1.5351562,-1.04296875 0.09375,0.57421875 0.4804688,1.04296875 1.1015625,1.04296875 0.7734375,0 1.2539063,-0.609375 1.6171875,-1.34765624 0.234375,-0.4921875 0.609375,-1.8515625 0.609375,-2.4609375 z m 0,0"
       style="fill:#808080;fill-opacity:1;fill-rule:nonzero;stroke:none"
       aria-label="ω"
       transform="matrix(1.3333333,0,0,1.3333333,132.89067,67.16)" />
    <path
       id="path4"
       d="M 0,0 H 79.70226 V 149.44174"
       style="fill:none;stroke:#000000;stroke-width:1.19553;stroke-linecap:butt;stroke-linejoin:miter;stroke-miterlimit:10;stroke-dasharray:none;stroke-opacity:1"
       transform="matrix(1.3333333,0,0,-1.3333333,137.26267,284.39067)" />
    <path
       id="path5"
       d="M 79.70226,29.88788 54.7953,73.0281"
       style="fill:none;stroke:#cccccc;stroke-width:0.79701;stroke-linecap:butt;stroke-linejoin:miter;stroke-miterlimit:10;stroke-dasharray:none;stroke-opacity:1"
       transform="matrix(1.3333333,0,0,-1.3333333,137.26267,284.39067)" />
    <path
       id="path6"
       d="m 2.5677109,-6.8072188 c 0,0 0,-0.1054687 -0.1289062,-0.1054687 -0.2226563,0 -0.9492188,0.082031 -1.2070313,0.1054687 -0.082031,0 -0.1992187,0.011719 -0.1992187,0.1992188 0,0.1171875 0.1054687,0.1171875 0.2578125,0.1171875 0.46875,0 0.4804687,0.082031 0.4804687,0.1640625 l -0.023437,0.1992187 -1.25390621,4.9804688 c -0.0351563,0.1171875 -0.0585938,0.1875 -0.0585938,0.33984375 0,0.57421875 0.4453125,0.9140625 0.91406251,0.9140625 0.328125,0 0.5742188,-0.19921875 0.75,-0.55078125 0.1757813,-0.38671875 0.2929688,-0.9609375 0.2929688,-0.984375 0,-0.09375 -0.09375,-0.09375 -0.1171875,-0.09375 -0.1054688,0 -0.1171875,0.035156 -0.140625,0.1757812 -0.1757813,0.6445313 -0.3632813,1.24218755 -0.7617188,1.24218755 -0.2929687,0 -0.2929687,-0.328125 -0.2929687,-0.45703125 0,-0.24609375 0.011719,-0.29296875 0.058594,-0.4804688 z m 0,0"
       style="fill:#808080;fill-opacity:1;fill-rule:nonzero;stroke:none"
       aria-label="l"
       transform="matrix(1.3333333,0,0,1.3333333,224.81467,230.31067)" />
    <path
       id="path7"
       d="m 80.6986,29.88788 c 0,0.55026 -0.44607,0.99634 -0.99634,0.99634 -0.55026,0 -0.99634,-0.44608 -0.99634,-0.99634 0,-0.55028 0.44608,-0.99634 0.99634,-0.99634 0.55027,0 0.99634,0.44606 0.99634,0.99634 z"
       style="fill:#000000;fill-opacity:1;fill-rule:nonzero;stroke:#000000;stroke-width:0.3985;stroke-linecap:butt;stroke-linejoin:miter;stroke-miterlimit:10;stroke-dasharray:none;stroke-opacity:1"
       transform="matrix(1.3333333,0,0,-1.3333333,137.26267,284.39067)" />
    <path
       id="path8"
       d="m 59.7767,81.65614 c 0,5.50236 -4.46042,9.96279 -9.96278,9.96279 -5.50235,0 -9.96278,-4.46043 -9.96278,-9.96279 0,-5.50234 4.46043,-9.96278 9.96278,-9.96278 5.50236,0 9.96278,4.46044 9.96278,9.96278 z"
       style="fill:none;stroke:#ff0000;stroke-width:0.3985;stroke-linecap:butt;stroke-linejoin:miter;stroke-miterlimit:10;stroke-dasharray:none;stroke-opacity:1"
       transform="matrix(1.3333333,0,0,-1.3333333,137.26267,284.39067)" />
    <path
       id="path9"
       d="M 0,0 H -79.70226 V 149.44174"
       style="fill:none;stroke:#000000;stroke-width:1.19553;stroke-linecap:butt;stroke-linejoin:miter;stroke-miterlimit:10;stroke-dasharray:none;stroke-opacity:1"
       transform="matrix(1.3333333,0,0,-1.3333333,137.26267,284.39067)" />
    <path
       id="path10"
       d="m -79.70226,145.52342 c 43.956,-43.95601 115.44852,-43.95601 159.40452,0"
       style="fill:none;stroke:#ccccff;stroke-width:0.79701;stroke-linecap:butt;stroke-linejoin:miter;stroke-miterlimit:10;stroke-dasharray:none;stroke-opacity:1"
       transform="matrix(1.3333333,0,0,-1.3333333,137.26267,284.39067)" />
    <path
       id="path11"
       d="M 3.58636,-3.5377 76.11589,-3.90042"
       style="fill:none;stroke:#808080;stroke-width:0.3985;stroke-linecap:butt;stroke-linejoin:miter;stroke-miterlimit:10;stroke-dasharray:2.98883, 1.99255;stroke-dashoffset:0;stroke-opacity:1"
       transform="matrix(1.3333333,0,0,-1.3333333,137.26267,284.39067)" />
    <path
       id="path12"
       d="M 3.58653,0 C 2.52383,0.19925 0.797,0.797 -0.3985,1.49438 V -1.49438 C 0.797,-0.797 2.52383,-0.19925 3.58653,0"
       style="fill:#808080;fill-opacity:1;fill-rule:nonzero;stroke:none"
       transform="matrix(-1.3332667,-0.00665333,-0.00665333,1.3332667,142.04451,289.1076)" />
    <path
       id="path13"
       d="M 3.58653,0 C 2.52383,0.19925 0.797,0.797 -0.3985,1.49438 V -1.49438 C 0.797,-0.797 2.52383,-0.19925 3.58653,0"
       style="fill:#808080;fill-opacity:1;fill-rule:nonzero;stroke:none"
       transform="matrix(1.3332667,0.00665333,0.00665333,-1.3332667,238.75051,289.59123)" />
    <path
       id="path14"
       d="m 3.7368672,-6.1182969 c 0.058594,-0.234375 0.082031,-0.3398437 0.28125,-0.3632812 0.082031,-0.011719 0.3984375,-0.011719 0.5976562,-0.011719 0.7148438,0 1.8164063,0 1.8164063,0.984375 0,0.3398438 -0.1523438,1.0195313 -0.5507813,1.4179688 -0.2578125,0.2578125 -0.7851562,0.5742187 -1.6757812,0.5742187 H 3.0923359 Z m 1.4296875,2.7304688 c 1.0078125,-0.2226563 2.1914062,-0.9140625 2.1914062,-1.921875 0,-0.8554688 -0.890625,-1.5 -2.203125,-1.5 H 2.3188984 c -0.1992187,0 -0.2929687,0 -0.2929687,0.1992187 0,0.1171875 0.09375,0.1171875 0.28125,0.1171875 0.023437,0 0.2109375,0 0.3867187,0.011719 0.1757813,0.023437 0.2578125,0.035156 0.2578125,0.1640625 0,0.035156 0,0.070312 -0.035156,0.1875 l -1.3359375,5.35546873 c -0.09375,0.38671875 -0.1171875,0.46875 -0.90234376,0.46875 -0.17578125,0 -0.26953125,0 -0.26953125,0.19921875 0,0.10546875 0.1171875,0.10546875 0.140625,0.10546875 0.28125,0 0.97265621,-0.03515625 1.25390621,-0.03515625 0.28125,0 0.984375,0.03515625 1.265625,0.03515625 0.082031,0 0.1992188,0 0.1992188,-0.19921875 0,-0.10546875 -0.09375,-0.10546875 -0.28125,-0.10546875 -0.3632813,0 -0.6445313,0 -0.6445313,-0.1875 0,-0.0585938 0.011719,-0.10546875 0.023437,-0.1640625 l 0.65625,-2.63671873 h 1.1953125 c 0.9023438,0 1.078125,0.5507812 1.078125,0.9023437 0,0.1523438 -0.082031,0.4570313 -0.140625,0.6914063 -0.070312,0.2695312 -0.1523437,0.6445312 -0.1523437,0.84374998 0,1.078125 1.1953125,1.078125 1.3242187,1.078125 0.84375,0 1.1953125,-1.0078125 1.1953125,-1.1484375 0,-0.11718748 -0.1171875,-0.11718748 -0.1171875,-0.11718748 -0.09375,0 -0.1171875,0.0703125 -0.1289062,0.14062498 -0.2578125,0.73828125 -0.6796875,0.90234375 -0.9140625,0.90234375 -0.328125,0 -0.3984375,-0.22265625 -0.3984375,-0.609375 0,-0.3046875 0.058594,-0.82031253 0.1054687,-1.13671873 0.011719,-0.140625 0.035156,-0.328125 0.035156,-0.46875 0,-0.7617188 -0.6679688,-1.078125 -0.9374994,-1.1718752 z m 0,0"
       style="fill:#808080;fill-opacity:1;fill-rule:nonzero;stroke:none"
       aria-label="R"
       transform="matrix(1.3333333,0,0,1.3333333,185.30267,303.11867)" />
    <path
       id="path15"
       d="M 49.81392,81.65614 V 64.48027"
       style="fill:#808080;fill-opacity:1;fill-rule:nonzero;stroke:#808080;stroke-width:1.19553;stroke-linecap:butt;stroke-linejoin:miter;stroke-miterlimit:10;stroke-dasharray:none;stroke-opacity:1"
       transform="matrix(1.3333333,0,0,-1.3333333,137.26267,284.39067)" />
    <path
       id="path16"
       d="M 5.73854,0 C 4.0382,0.31879 1.27522,1.27522 -0.6376,2.39105 v -4.7821 C 1.27522,-1.27522 4.0382,-0.31879 5.73854,0"
       style="fill:#808080;fill-opacity:1;fill-rule:nonzero;stroke:none"
       transform="matrix(0,1.3333333,1.3333333,0,203.68123,198.41697)" />
    <path
       id="path17"
       d="m 0.87796094,-0.58507031 c -0.0351563,0.15234375 -0.09375,0.375 -0.09375,0.421875 0,0.1875 0.140625,0.26953125 0.29296876,0.26953125 0.1171875,0 0.2929687,-0.0703125 0.3632812,-0.26953125 0.011719,-0.0234375 0.1289063,-0.4921875 0.1875,-0.73828125 L 1.8506172,-1.8038203 c 0.058594,-0.2226563 0.1171875,-0.4335938 0.1757812,-0.6679688 0.035156,-0.1640625 0.1171875,-0.4570312 0.1289063,-0.4921875 0.140625,-0.3164062 0.6679687,-1.21875 1.6171875,-1.21875 0.4453125,0 0.5390625,0.3632813 0.5390625,0.6914063 0,0.2578125 -0.070312,0.5390625 -0.1523438,0.8320312 l -0.2695312,1.1601563 -0.1992188,0.74999999 c -0.046875,0.19921875 -0.140625,0.5390625 -0.140625,0.5859375 0,0.1875 0.140625,0.26953125 0.2929688,0.26953125 0.3046875,0 0.375,-0.24609375 0.4453125,-0.5625 0.140625,-0.56250004 0.515625,-2.01562504 0.5976562,-2.40234374 0.035156,-0.1289063 0.5625,-1.3242188 1.6523438,-1.3242188 0.421875,0 0.5390625,0.3398438 0.5390625,0.6914063 0,0.5742187 -0.421875,1.7109375 -0.6210938,2.2382812 -0.09375,0.234375 -0.1289062,0.35156254 -0.1289062,0.55078129 0,0.46875 0.3515625,0.80859375 0.8085937,0.80859375 0.9375,0 1.3125,-1.45312504 1.3125,-1.53515624 0,-0.09375 -0.09375,-0.09375 -0.1171875,-0.09375 -0.1054687,0 -0.1054687,0.023437 -0.1523437,0.1757812 -0.1523438,0.52734379 -0.46875,1.24218754 -1.0195313,1.24218754 -0.1640625,0 -0.234375,-0.10546875 -0.234375,-0.328125 0,-0.2578125 0.082031,-0.4921875 0.1757813,-0.71484374 0.1875,-0.515625 0.609375,-1.6171875 0.609375,-2.1914063 0,-0.6445312 -0.3984375,-1.0664062 -1.1484375,-1.0664062 -0.75,0 -1.2539063,0.4453125 -1.6171875,0.9726562 -0.011719,-0.1289062 -0.046875,-0.46875 -0.328125,-0.7148437 -0.2460938,-0.1992188 -0.5625,-0.2578125 -0.8085938,-0.2578125 -0.9023437,0 -1.3828125,0.6445312 -1.5585937,0.8671875 -0.046875,-0.5625 -0.46875,-0.8671875 -0.9140625,-0.8671875 -0.45703126,0 -0.64453126,0.3867187 -0.73828126,0.5742187 -0.17578125,0.3398438 -0.3046875,0.9375 -0.3046875,0.9609375 0,0.1054688 0.09375,0.1054688 0.1171875,0.1054688 0.09375,0 0.10546875,-0.011719 0.1640625,-0.234375 0.17578125,-0.703125 0.375,-1.1835938 0.72656246,-1.1835938 0.1640625,0 0.3164063,0.082031 0.3164063,0.4570313 0,0.2109375 -0.035156,0.3164062 -0.1640625,0.8320312 z M 13.663117,-5.9288203 c -0.128906,0.1289062 -0.457031,0.4101562 -0.457031,0.5859375 0,0.1054687 0.09375,0.1992187 0.199219,0.1992187 0.08203,0 0.128906,-0.070312 0.1875,-0.1289062 0.117187,-0.140625 0.339843,-0.421875 0.785156,-0.6445313 0.07031,-0.035156 0.164062,-0.09375 0.164062,-0.2109375 0,-0.09375 -0.07031,-0.1523437 -0.140625,-0.1992187 -0.210937,-0.1523438 -0.328125,-0.328125 -0.398437,-0.5625 -0.02344,-0.09375 -0.07031,-0.2226563 -0.199219,-0.2226563 -0.140625,0 -0.199219,0.1289063 -0.199219,0.2109375 0,0.046875 0.07031,0.3632813 0.234375,0.5742188 h -3.363281 c -0.164062,0 -0.339844,0 -0.339844,0.1992187 0,0.1992188 0.175782,0.1992188 0.339844,0.1992188 z m -0.228515,2.1796875 c 0.01172,-0.070312 0.03516,-0.1171875 0.03516,-0.1875 0,-0.1640625 -0.117188,-0.2695313 -0.292969,-0.2695313 -0.09375,0 -0.363281,0.070312 -0.410156,0.4335938 -0.175781,-0.375 -0.527344,-0.6328125 -0.925781,-0.6328125 -1.136719,0 -2.3671879,1.3945312 -2.3671879,2.8359375 0,0.98437499 0.6093749,1.5703124875 1.3242189,1.5703124875 0.585937,0 1.054687,-0.4687499975 1.160156,-0.5742187475 l 0.01172,0.0117188 c -0.210938,0.87890625 -0.328125,1.2890625 -0.328125,1.3125 -0.04687,0.0820313 -0.386719,1.07812506 -1.441406,1.07812506 -0.1875,0 -0.5156254,-0.011719 -0.7968754,-0.1054688 0.3046875,-0.09375 0.4101562,-0.3515625 0.4101562,-0.515625 0,-0.1640625 -0.1054687,-0.35156251 -0.375,-0.35156251 -0.2226562,0 -0.5390625,0.17578131 -0.5390625,0.57421881 0,0.4101562 0.3632813,0.609375 1.3242187,0.609375 1.242188,0 1.957031,-0.7734375 2.109375,-1.37109381 z m -1.289063,2.4726562 c -0.05859,0.2578125 -0.292969,0.51562504 -0.503906,0.70312504 -0.210938,0.17578125 -0.527344,0.3515625 -0.808594,0.3515625 -0.503906,0 -0.65625,-0.515625 -0.65625,-0.91406254 0,-0.4804687 0.292969,-1.6523437 0.5625,-2.15625 0.269531,-0.4921875 0.703125,-0.890625 1.113281,-0.890625 0.65625,0 0.796875,0.8085938 0.796875,0.8554688 0,0.046875 -0.01172,0.1054687 -0.02344,0.1523437 z m 0,0"
       style="fill:#808080;fill-opacity:1;fill-rule:nonzero;stroke:none"
       aria-label="m⃗g"
       transform="matrix(1.3333333,0,0,1.3333333,194.44267,220.784)" />
    <path
       id="path18"
       d="m 49.81392,81.65614 v 24.1498"
       style="fill:#808080;fill-opacity:1;fill-rule:nonzero;stroke:#808080;stroke-width:1.19553;stroke-linecap:butt;stroke-linejoin:miter;stroke-miterlimit:10;stroke-dasharray:none;stroke-opacity:1"
       transform="matrix(1.3333333,0,0,-1.3333333,137.26267,284.39067)" />
    <path
       id="path19"
       d="M 5.73854,0 C 4.0382,0.31879 1.27522,1.27522 -0.6376,2.39105 v -4.7821 C 1.27522,-1.27522 4.0382,-0.31879 5.73854,0"
       style="fill:#808080;fill-opacity:1;fill-rule:nonzero;stroke:none"
       transform="matrix(0,-1.3333333,-1.3333333,0,203.68123,143.31608)" />
    <g
       id="g19"
       aria-label="⃗&#10;F&#10;A"
       transform="matrix(1.3333333,0,0,1.3333333,210.86267,137.736)">
      <path
         id="path20"
         d="M 5.3442109,-5.9309063 C 5.2153047,-5.802 4.8871797,-5.52075 4.8871797,-5.3449688 c 0,0.1054688 0.09375,0.1992188 0.1992187,0.1992188 0.082031,0 0.1289063,-0.070312 0.1875,-0.1289063 0.1171875,-0.140625 0.3398438,-0.421875 0.7851563,-0.6445312 0.070312,-0.035156 0.1640625,-0.09375 0.1640625,-0.2109375 0,-0.09375 -0.070312,-0.1523438 -0.140625,-0.1992188 -0.2109375,-0.1523437 -0.328125,-0.328125 -0.3984375,-0.5625 C 5.6606172,-6.9855938 5.6137422,-7.1145 5.4848359,-7.1145 c -0.140625,0 -0.1992187,0.1289062 -0.1992187,0.2109375 0,0.046875 0.070312,0.3632812 0.234375,0.5742187 H 2.1567109 c -0.1640625,0 -0.3398437,0 -0.3398437,0.1992188 0,0.1992187 0.1757812,0.1992187 0.3398437,0.1992187 z M 1.556125,-0.7160625 h 0.9609375 c 0.75,0 0.8320312,0.15234375 0.8320312,0.4453125 0,0.0703125 0,0.1875 -0.070312,0.4921875 -0.023437,0.046875 -0.035156,0.0820313 -0.035156,0.10546875 0,0.0820313 0.058594,0.1171875 0.1171875,0.1171875 0.1054687,0 0.1054687,-0.0234375 0.1523437,-0.2109375 L 4.0639375,-1.9230938 C 4.087375,-2.0285625 4.087375,-2.052 4.087375,-2.0871563 c 0,-0.011719 -0.011719,-0.1054687 -0.1171875,-0.1054687 -0.09375,0 -0.1054688,0.046875 -0.1523438,0.2109375 C 3.618625,-1.20825 3.38425,-1.0324688 2.5405,-1.0324688 H 1.6264375 l 0.6445312,-2.53125 C 2.353,-3.9035625 2.3647187,-3.9504375 2.8100312,-3.9504375 h 1.3125 c 1.21875,0 1.453125,0.328125 1.453125,1.1015625 0,0.2226562 0,0.2695312 -0.035156,0.5390625 -0.011719,0.1289062 -0.011719,0.140625 -0.011719,0.1757812 0,0.046875 0.023437,0.1171875 0.1171875,0.1171875 0.1054688,0 0.1171875,-0.058594 0.140625,-0.2460937 L 5.9858125,-3.9855938 C 6.00925,-4.255125 5.962375,-4.255125 5.7162812,-4.255125 H 0.8295625 c -0.19921875,0 -0.29296875,0 -0.29296875,0.1992187 0,0.1054688 0.09375,0.1054688 0.28125,0.1054688 0.36328125,0 0.64453125,0 0.64453125,0.1875 0,0.035156 0,0.058594 -0.046875,0.234375 L 0.09128125,1.744875 c -0.09375,0.3867187 -0.1171875,0.46875 -0.90234375,0.46875 -0.1640625,0 -0.28125,0 -0.28125,0.1875 0,0.1171875 0.12890625,0.1171875 0.15234375,0.1171875 0.29296875,0 1.03125,-0.035156 1.3125,-0.035156 0.328125,0 1.16015625,0.035156 1.48828125,0.035156 0.09375,0 0.2109375,0 0.2109375,-0.1875 0,-0.082031 -0.058594,-0.1054688 -0.058594,-0.1171875 -0.035156,0 -0.058594,0 -0.28125,0 -0.2226562,0 -0.2695312,0 -0.515625,-0.023437 C 0.9233125,2.1550312 0.88815625,2.119875 0.88815625,1.9909687 c 0,-0.023437 0,-0.082031 0.046875,-0.234375 z m 0,0"
         style="fill:#808080;fill-opacity:1;fill-rule:nonzero;stroke:none" />
      <path
         id="path21"
         d="m 6.3783906,3.1804219 c -0.2460937,0.375 -0.46875,0.5507812 -0.8789062,0.5859375 -0.070312,0 -0.1640625,0 -0.1640625,0.140625 0,0.082031 0.058594,0.1054687 0.09375,0.1054687 0.1875,0 0.4101562,-0.023437 0.5976562,-0.023437 0.2226563,0 0.515625,0.023437 0.7265625,0.023437 0.035156,0 0.140625,0 0.140625,-0.1523437 0,-0.09375 -0.09375,-0.09375 -0.1289062,-0.09375 -0.046875,-0.011719 -0.3046875,-0.023437 -0.3046875,-0.2109375 0,-0.082031 0.070312,-0.2109375 0.1054687,-0.2695313 l 0.5625,-0.8671875 h 1.9921875 l 0.1640625,1.1601563 c -0.023437,0.070312 -0.070312,0.1875 -0.4804687,0.1875 -0.082031,0 -0.1757813,0 -0.1757813,0.1523437 0,0.023437 0.023437,0.09375 0.1054688,0.09375 0.2109375,0 0.703125,-0.023437 0.9023437,-0.023437 0.1289063,0 0.28125,0 0.4101559,0 0.128907,0.011719 0.269532,0.023437 0.398438,0.023437 0.09375,0 0.140625,-0.058594 0.140625,-0.140625 0,-0.1054687 -0.08203,-0.1054687 -0.199219,-0.1054687 -0.3984374,0 -0.4101561,-0.058594 -0.4335936,-0.2226563 L 9.3315156,-0.76879688 c -0.011719,-0.140625 -0.035156,-0.1875 -0.1640625,-0.1875 -0.1289062,0 -0.1757812,0.0585938 -0.234375,0.15234375 z M 7.2924531,2.1726094 8.7572969,-0.11254688 9.0854219,2.1726094 Z m 0,0"
         style="fill:#808080;fill-opacity:1;fill-rule:nonzero;stroke:none" />
    </g>
    <path
       id="path22"
       d="m 49.81392,81.65614 12.075,-20.91449"
       style="fill:#808080;fill-opacity:1;fill-rule:nonzero;stroke:#808080;stroke-width:1.19553;stroke-linecap:butt;stroke-linejoin:miter;stroke-miterlimit:10;stroke-dasharray:none;stroke-opacity:1"
       transform="matrix(1.3333333,0,0,-1.3333333,137.26267,284.39067)" />
    <path
       id="path23"
       d="M 5.73854,0 C 4.0382,0.31879 1.27522,1.27522 -0.6376,2.39105 v -4.7821 C 1.27522,-1.27522 4.0382,-0.31879 5.73854,0"
       style="fill:#808080;fill-opacity:1;fill-rule:nonzero;stroke:none"
       transform="matrix(0.66664,1.15468,1.15468,-0.66664,219.7812,203.4018)" />
    <path
       id="path24"
       d="m 5.3449219,-5.9306484 c -0.1289063,0.1289062 -0.4570313,0.4101562 -0.4570313,0.5859375 0,0.1054687 0.09375,0.1992187 0.1992188,0.1992187 0.082031,0 0.1289062,-0.070312 0.1875,-0.1289062 0.1171875,-0.140625 0.3398437,-0.421875 0.7851562,-0.6445313 0.070312,-0.035156 0.1640625,-0.09375 0.1640625,-0.2109375 0,-0.09375 -0.070312,-0.1523437 -0.140625,-0.1992187 -0.2109375,-0.1523438 -0.328125,-0.328125 -0.3984375,-0.5625 -0.023437,-0.09375 -0.070312,-0.2226563 -0.1992187,-0.2226563 -0.140625,0 -0.1992188,0.1289063 -0.1992188,0.2109375 0,0.046875 0.070312,0.3632813 0.234375,0.5742188 H 2.1574219 c -0.1640625,0 -0.3398438,0 -0.3398438,0.1992187 0,0.1992188 0.1757813,0.1992188 0.3398438,0.1992188 z m -2.2675782,2.4023437 c 0.070312,-0.28125 0.1054688,-0.3398437 0.234375,-0.3632812 0.082031,-0.023437 0.4101563,-0.023437 0.6210938,-0.023437 1.0078125,0 1.453125,0.035156 1.453125,0.8203125 0,0.140625 -0.035156,0.5273437 -0.082031,0.796875 0,0.035156 -0.023437,0.1523437 -0.023437,0.1875 0,0.058594 0.023437,0.1289062 0.1171875,0.1289062 0.1054688,0 0.1289063,-0.082031 0.1523438,-0.234375 l 0.2695312,-1.734375 c 0.011719,-0.035156 0.011719,-0.140625 0.011719,-0.1640625 0,-0.1054687 -0.09375,-0.1054687 -0.2695313,-0.1054687 H 0.0421875 c -0.24609375,0 -0.2578125,0 -0.31640625,0.1992187 L -0.871875,-2.2743984 c -0.0117188,0.023437 -0.0703125,0.1640625 -0.0703125,0.1757812 0,0.070312 0.0585938,0.1171875 0.12890625,0.1171875 0.09375,0 0.10546875,-0.046875 0.1640625,-0.2109375 0.5390625,-1.546875 0.796875,-1.7226562 2.27343745,-1.7226562 h 0.3867188 c 0.28125,0 0.28125,0.035156 0.28125,0.1171875 0,0.058594 -0.035156,0.1757812 -0.046875,0.2109375 L 0.92109375,1.7334141 c -0.09375,0.3632812 -0.12890625,0.4804687 -1.1953125,0.4804687 -0.3515625,0 -0.41015625,0 -0.41015625,0.1875 0,0.1171875 0.10546875,0.1171875 0.1640625,0.1171875 0.26953125,0 0.55078125,-0.023437 0.8203125,-0.023437 0.28125,0 0.5625,-0.011719 0.84375,-0.011719 0.28125,0 0.5625,0.011719 0.8320312,0.011719 0.28125,0 0.5859375,0.023437 0.8671875,0.023437 0.09375,0 0.2109375,0 0.2109375,-0.1992187 0,-0.1054688 -0.082031,-0.1054688 -0.3398437,-0.1054688 -0.2460938,0 -0.375,0 -0.6328125,-0.023437 -0.2929688,-0.035156 -0.3632813,-0.058594 -0.3632813,-0.2226562 0,-0.011719 0,-0.058594 0.035156,-0.2109375 z m 0,0"
       style="fill:#808080;fill-opacity:1;fill-rule:nonzero;stroke:none"
       aria-label="⃗&#10;T"
       transform="matrix(1.3333333,0,0,1.3333333,221.1,192.388)" />
    <path
       id="path25"
       d="M 49.81392,81.65614 H 25.66412"
       style="fill:#808080;fill-opacity:1;fill-rule:nonzero;stroke:#808080;stroke-width:1.19553;stroke-linecap:butt;stroke-linejoin:miter;stroke-miterlimit:10;stroke-dasharray:none;stroke-opacity:1"
       transform="matrix(1.3333333,0,0,-1.3333333,137.26267,284.39067)" />
    <path
       id="path26"
       d="M 5.73854,0 C 4.0382,0.31879 1.27522,1.27522 -0.6376,2.39105 v -4.7821 C 1.27522,-1.27522 4.0382,-0.31879 5.73854,0"
       style="fill:#808080;fill-opacity:1;fill-rule:nonzero;stroke:none"
       transform="matrix(-1.3333333,0,0,1.3333333,171.48149,175.51581)" />
    <g
       id="g26"
       aria-label="⃗&#10;F&#10;P"
       transform="matrix(1.3333333,0,0,1.3333333,157.088,164.94267)">
      <path
         id="path27"
         d="m 5.3451328,-5.9306328 c -0.1289062,0.1289062 -0.4570312,0.4101562 -0.4570312,0.5859375 0,0.1054687 0.09375,0.1992187 0.1992187,0.1992187 0.082031,0 0.1289063,-0.070312 0.1875,-0.1289062 0.1171875,-0.140625 0.3398438,-0.421875 0.7851563,-0.6445313 0.070312,-0.035156 0.1640625,-0.09375 0.1640625,-0.2109375 0,-0.09375 -0.070312,-0.1523437 -0.140625,-0.1992187 -0.2109375,-0.1523438 -0.328125,-0.328125 -0.3984375,-0.5625 -0.023437,-0.09375 -0.070312,-0.2226563 -0.1992188,-0.2226563 -0.140625,0 -0.1992187,0.1289063 -0.1992187,0.2109375 0,0.046875 0.070312,0.3632813 0.234375,0.5742188 H 2.1576328 c -0.1640625,0 -0.3398437,0 -0.3398437,0.1992187 0,0.1992188 0.1757812,0.1992188 0.3398437,0.1992188 z m -3.7910156,5.21484374 h 0.9609375 c 0.75,0 0.8320312,0.15234375 0.8320312,0.4453125 0,0.0703125 0,0.1875 -0.070312,0.4921875 -0.023437,0.046875 -0.035156,0.0820313 -0.035156,0.10546875 0,0.0820313 0.058594,0.1171875 0.1171875,0.1171875 0.1054687,0 0.1054687,-0.0234375 0.1523437,-0.2109375 L 4.0619297,-1.9228203 c 0.023437,-0.1054688 0.023437,-0.1289063 0.023437,-0.1640625 0,-0.011719 -0.011719,-0.1054688 -0.1171875,-0.1054688 -0.09375,0 -0.1054688,0.046875 -0.1523438,0.2109375 -0.1992187,0.7734375 -0.4335937,0.9492188 -1.2773437,0.9492188 h -0.914062 l 0.6445312,-2.53125 c 0.082031,-0.3398438 0.09375,-0.3867188 0.5390625,-0.3867188 h 1.3125 c 1.21875,0 1.453125,0.328125 1.453125,1.1015625 0,0.2226563 0,0.2695313 -0.035156,0.5390625 -0.011719,0.1289063 -0.011719,0.140625 -0.011719,0.1757813 0,0.046875 0.023437,0.1171875 0.1171875,0.1171875 0.1054688,0 0.1171875,-0.058594 0.140625,-0.2460938 L 5.9838047,-3.9853203 C 6.0072422,-4.2548516 5.9603672,-4.2548516 5.7142734,-4.2548516 H 0.82755469 c -0.19921875,0 -0.29296875,0 -0.29296875,0.1992188 0,0.1054687 0.09375,0.1054687 0.28125,0.1054687 0.36328126,0 0.64453126,0 0.64453126,0.1875 0,0.035156 0,0.058594 -0.046875,0.234375 L 0.08927344,1.7451484 c -0.09375,0.3867188 -0.1171875,0.46875 -0.90234375,0.46875 -0.1640625,0 -0.28124999,0 -0.28124999,0.1875 0,0.1171875 0.12890624,0.1171875 0.15234374,0.1171875 0.29296875,0 1.03125,-0.035156 1.3125,-0.035156 0.328125,0 1.16015626,0.035156 1.48828126,0.035156 0.09375,0 0.2109375,0 0.2109375,-0.1875 0,-0.082031 -0.058594,-0.1054687 -0.058594,-0.1171875 -0.035156,0 -0.058594,0 -0.28125,0 -0.2226562,0 -0.2695312,0 -0.515625,-0.023437 -0.29296871,-0.035156 -0.32812496,-0.070312 -0.32812496,-0.1992187 0,-0.023437 0,-0.082031 0.046875,-0.234375 z m 0,0"
         style="fill:#808080;fill-opacity:1;fill-rule:nonzero;stroke:none" />
      <path
         id="path28"
         d="m 7.3168125,1.8564766 h 1.265625 c 1.171875,0 2.1679685,-0.7617188 2.1679685,-1.52343754 0,-0.5859375 -0.574219,-1.078125 -1.5234373,-1.078125 h -2.4375 c -0.140625,0 -0.2226562,0 -0.2226562,0.15234375 0,0.09375 0.070312,0.09375 0.2226562,0.09375 0.1171875,0 0.140625,0 0.2695313,0.0117188 0.140625,0.0117188 0.1523437,0.0351563 0.1523437,0.10546875 0,0.0117188 0,0.046875 -0.023437,0.15234375 L 6.262125,3.4385078 c -0.070312,0.2695313 -0.070312,0.328125 -0.6210938,0.328125 -0.1289062,0 -0.2109375,0 -0.2109375,0.1523438 0,0 0,0.09375 0.1171875,0.09375 0.1992188,0 0.703125,-0.023437 0.9023438,-0.023437 0.1171875,0 0.3632812,0 0.4804687,0 0.140625,0.011719 0.3164063,0.023437 0.4453125,0.023437 0.046875,0 0.1523438,0 0.1523438,-0.1523438 0,-0.09375 -0.082031,-0.09375 -0.2226563,-0.09375 -0.011719,0 -0.140625,0 -0.2695312,-0.023437 C 6.8715,3.7314766 6.8715,3.7080391 6.8715,3.6377266 c 0,0 0,-0.046875 0.035156,-0.1523438 z m 0.5039062,-2.12109379 c 0.046875,-0.2109375 0.058594,-0.234375 0.3515625,-0.234375 h 0.8203125 c 0.6445313,0 1.0546873,0.19921875 1.0546873,0.69140625 0,0.2109375 -0.09375,0.76171875 -0.4335935,1.07812504 C 9.355875,1.4931953 8.9574375,1.6338203 8.4535312,1.6338203 H 7.34025 Z m 0,0"
         style="fill:#808080;fill-opacity:1;fill-rule:nonzero;stroke:none" />
    </g>
    <path
       id="path29"
       d="M -65.7435,133.65462 V 99.54202"
       style="fill:#808080;fill-opacity:1;fill-rule:nonzero;stroke:#808080;stroke-width:1.19553;stroke-linecap:butt;stroke-linejoin:miter;stroke-miterlimit:10;stroke-dasharray:none;stroke-opacity:1"
       transform="matrix(1.3333333,0,0,-1.3333333,137.26267,284.39067)" />
    <path
       id="path30"
       d="M 5.73854,0 C 4.0382,0.31879 1.27522,1.27522 -0.6376,2.39105 v -4.7821 C 1.27522,-1.27522 4.0382,-0.31879 5.73854,0"
       style="fill:#808080;fill-opacity:1;fill-rule:nonzero;stroke:none"
       transform="matrix(0,1.3333333,1.3333333,0,49.604667,151.66797)" />
    <path
       id="path31"
       d="m 5.1441484,-6.8082266 c 0,0 0,-0.1054687 -0.1289062,-0.1054687 -0.1523438,0 -1.1015625,0.09375 -1.265625,0.1054687 -0.082031,0.011719 -0.140625,0.070312 -0.140625,0.1992188 0,0.1171875 0.082031,0.1171875 0.234375,0.1171875 0.4804687,0 0.5039062,0.070312 0.5039062,0.1640625 l -0.035156,0.1992187 -0.5976563,2.3671875 c -0.1757812,-0.375 -0.46875,-0.6445312 -0.9140625,-0.6445312 -1.171875,0 -2.40234371,1.4648437 -2.40234371,2.9179687 0,0.93750004 0.55078125,1.59375004 1.32421871,1.59375004 0.1992188,0 0.703125,-0.03515625 1.3007813,-0.73828125 0.070312,0.41015625 0.421875,0.73828125 0.9023437,0.73828125 0.3515625,0 0.5742188,-0.22265625 0.7382813,-0.5390625 0.1640625,-0.36328125 0.2929687,-0.97265624 0.2929687,-0.99609374 0,-0.09375 -0.082031,-0.09375 -0.1171875,-0.09375 -0.09375,0 -0.1054687,0.035156 -0.140625,0.1757812 -0.1640625,0.64453129 -0.3515625,1.24218754 -0.75,1.24218754 -0.2695312,0 -0.3046875,-0.2578125 -0.3046875,-0.45703125 0,-0.24609375 0.023437,-0.31640625 0.058594,-0.48046879 z m -2.0742187,5.625 c -0.046875,0.1757813 -0.046875,0.19921879 -0.1992188,0.36328129 -0.4453125,0.55078125 -0.84375,0.71484375 -1.125,0.71484375 -0.5039062,0 -0.6445312,-0.55078125 -0.6445312,-0.93750004 0,-0.5039062 0.328125,-1.7226562 0.5507812,-2.1796875 0.3046875,-0.5976562 0.7617188,-0.9609375 1.1601563,-0.9609375 0.6445312,0 0.7851562,0.8203125 0.7851562,0.8789063 0,0.058594 -0.023437,0.1171875 -0.035156,0.1640625 z m 2.9941406,0.59765629 c -0.035156,0.15234375 -0.09375,0.375 -0.09375,0.421875 0,0.1875 0.140625,0.26953125 0.2929688,0.26953125 0.1171875,0 0.2929687,-0.0703125 0.3632812,-0.26953125 0.011719,-0.0234375 0.1289063,-0.4921875 0.1875,-0.73828125 L 7.0367266,-1.8043203 c 0.058594,-0.2226563 0.1171875,-0.4335938 0.1757812,-0.6679688 0.035156,-0.1640625 0.1171875,-0.4570312 0.1289063,-0.4921875 0.140625,-0.3164062 0.6679687,-1.21875 1.6171875,-1.21875 0.4453125,0 0.5390625,0.3632813 0.5390625,0.6914063 0,0.2578125 -0.070312,0.5390625 -0.1523438,0.8320312 l -0.2695312,1.1601563 -0.1992188,0.74999999 c -0.046875,0.19921875 -0.140625,0.5390625 -0.140625,0.5859375 0,0.1875 0.140625,0.26953125 0.2929688,0.26953125 0.3046875,0 0.375,-0.24609375 0.4453125,-0.5625 0.140625,-0.56250004 0.515625,-2.01562504 0.5976564,-2.40234374 0.03516,-0.1289063 0.5625,-1.3242188 1.652344,-1.3242188 0.421875,0 0.539062,0.3398438 0.539062,0.6914063 0,0.5742187 -0.421875,1.7109375 -0.621094,2.2382812 -0.09375,0.234375 -0.128906,0.35156254 -0.128906,0.55078129 0,0.46875 0.351563,0.80859375 0.808594,0.80859375 0.9375,0 1.3125,-1.45312504 1.3125,-1.53515624 0,-0.09375 -0.09375,-0.09375 -0.117188,-0.09375 -0.105468,0 -0.105468,0.023437 -0.152343,0.1757812 -0.152344,0.52734379 -0.46875,1.24218754 -1.019532,1.24218754 -0.164062,0 -0.234375,-0.10546875 -0.234375,-0.328125 0,-0.2578125 0.08203,-0.4921875 0.175782,-0.71484374 0.1875,-0.515625 0.609375,-1.6171875 0.609375,-2.1914063 0,-0.6445312 -0.398438,-1.0664062 -1.148438,-1.0664062 -0.75,0 -1.253906,0.4453125 -1.617187,0.9726562 -0.01172,-0.1289062 -0.04687,-0.46875 -0.3281254,-0.7148437 -0.2460938,-0.1992188 -0.5625,-0.2578125 -0.8085938,-0.2578125 -0.9023437,0 -1.3828125,0.6445312 -1.5585937,0.8671875 -0.046875,-0.5625 -0.46875,-0.8671875 -0.9140625,-0.8671875 -0.4570313,0 -0.6445313,0.3867187 -0.7382813,0.5742187 -0.1757812,0.3398438 -0.3046875,0.9375 -0.3046875,0.9609375 0,0.1054688 0.09375,0.1054688 0.1171875,0.1054688 0.09375,0 0.1054688,-0.011719 0.1640625,-0.234375 0.1757813,-0.703125 0.375,-1.1835938 0.7265625,-1.1835938 0.1640625,0 0.3164063,0.082031 0.3164063,0.4570313 0,0.2109375 -0.035156,0.3164062 -0.1640625,0.8320312 z M 18.849227,-5.9293203 c -0.128907,0.1289062 -0.457032,0.4101562 -0.457032,0.5859375 0,0.1054687 0.09375,0.1992187 0.199219,0.1992187 0.08203,0 0.128906,-0.070312 0.1875,-0.1289062 0.117188,-0.140625 0.339844,-0.421875 0.785156,-0.6445313 0.07031,-0.035156 0.164063,-0.09375 0.164063,-0.2109375 0,-0.09375 -0.07031,-0.1523437 -0.140625,-0.1992187 -0.210938,-0.1523438 -0.328125,-0.328125 -0.398438,-0.5625 -0.02344,-0.09375 -0.07031,-0.2226563 -0.199218,-0.2226563 -0.140625,0 -0.199219,0.1289063 -0.199219,0.2109375 0,0.046875 0.07031,0.3632813 0.234375,0.5742188 h -3.363281 c -0.164063,0 -0.339844,0 -0.339844,0.1992187 0,0.1992188 0.175781,0.1992188 0.339844,0.1992188 z m -0.228516,2.1796875 c 0.01172,-0.070312 0.03516,-0.1171875 0.03516,-0.1875 0,-0.1640625 -0.117187,-0.2695313 -0.292969,-0.2695313 -0.09375,0 -0.363281,0.070312 -0.410156,0.4335938 -0.175781,-0.375 -0.527344,-0.6328125 -0.925781,-0.6328125 -1.136719,0 -2.367188,1.3945312 -2.367188,2.8359375 0,0.98437499 0.609375,1.5703124875 1.324219,1.5703124875 0.585938,0 1.054688,-0.4687499975 1.160156,-0.5742187475 l 0.01172,0.0117188 c -0.210937,0.87890625 -0.328125,1.2890625 -0.328125,1.3125 -0.04687,0.0820313 -0.386719,1.07812506 -1.441406,1.07812506 -0.1875,0 -0.515625,-0.011719 -0.796875,-0.1054688 0.304687,-0.09375 0.410156,-0.3515625 0.410156,-0.515625 0,-0.1640625 -0.105469,-0.35156251 -0.375,-0.35156251 -0.222656,0 -0.539062,0.17578131 -0.539062,0.57421881 0,0.4101562 0.363281,0.609375 1.324218,0.609375 1.242188,0 1.957032,-0.7734375 2.109375,-1.37109381 z m -1.289063,2.4726562 c -0.05859,0.2578125 -0.292968,0.51562504 -0.503906,0.70312504 -0.210937,0.17578125 -0.527344,0.3515625 -0.808594,0.3515625 -0.503906,0 -0.65625,-0.515625 -0.65625,-0.91406254 0,-0.4804687 0.292969,-1.6523437 0.5625,-2.15625 0.269532,-0.4921875 0.703125,-0.890625 1.113282,-0.890625 0.65625,0 0.796875,0.8085938 0.796875,0.8554688 0,0.046875 -0.01172,0.1054687 -0.02344,0.1523437 z m 0,0"
       style="fill:#808080;fill-opacity:1;fill-rule:nonzero;stroke:none"
       aria-label="dm⃗g"
       transform="matrix(1.3333333,0,0,1.3333333,36.910667,174.03467)" />
    <path
       id="path32"
       d="m -65.7435,133.65462 h 24.1498"
       style="fill:#808080;fill-opacity:1;fill-rule:nonzero;stroke:#808080;stroke-width:1.19553;stroke-linecap:butt;stroke-linejoin:miter;stroke-miterlimit:10;stroke-dasharray:none;stroke-opacity:1"
       transform="matrix(1.3333333,0,0,-1.3333333,137.26267,284.39067)" />
    <path
       id="path33"
       d="M 5.73854,0 C 4.0382,0.31879 1.27522,1.27522 -0.6376,2.39105 v -4.7821 C 1.27522,-1.27522 4.0382,-0.31879 5.73854,0"
       style="fill:#808080;fill-opacity:1;fill-rule:nonzero;stroke:none"
       transform="matrix(1.3333333,0,0,-1.3333333,81.8044,106.18451)" />
    <g
       id="g33"
       aria-label="dmω&#10;2&#10;x"
       transform="matrix(1.3333333,0,0,1.3333333,94.681333,111.59333)">
      <path
         id="path34"
         d="m 5.1432969,-6.8082812 c 0,0 0,-0.1054688 -0.1289063,-0.1054688 -0.1523437,0 -1.1015625,0.09375 -1.265625,0.1054688 -0.082031,0.011719 -0.140625,0.070312 -0.140625,0.1992187 0,0.1171875 0.082031,0.1171875 0.234375,0.1171875 0.4804688,0 0.5039063,0.070312 0.5039063,0.1640625 l -0.035156,0.1992188 -0.5976562,2.3671875 c -0.1757813,-0.375 -0.46875,-0.6445313 -0.9140625,-0.6445313 -1.171875,0 -2.40234378,1.4648438 -2.40234378,2.9179688 0,0.93749995 0.55078125,1.59374995 1.32421878,1.59374995 0.1992187,0 0.703125,-0.03515625 1.3007812,-0.73828125 0.070312,0.41015625 0.421875,0.73828125 0.9023438,0.73828125 0.3515625,0 0.5742187,-0.22265625 0.7382812,-0.5390625 0.1640625,-0.36328125 0.2929688,-0.97265625 0.2929688,-0.99609375 0,-0.09375 -0.082031,-0.09375 -0.1171875,-0.09375 -0.09375,0 -0.1054688,0.035156 -0.140625,0.1757813 -0.1640625,0.6445312 -0.3515625,1.24218745 -0.75,1.24218745 -0.2695313,0 -0.3046875,-0.2578125 -0.3046875,-0.45703125 0,-0.24609375 0.023437,-0.31640625 0.058594,-0.4804687 z m -2.0742188,5.625 C 3.0222031,-1.0075 3.0222031,-0.9840625 2.8698594,-0.82 c -0.4453125,0.55078125 -0.84375,0.71484375 -1.125,0.71484375 -0.5039063,0 -0.6445313,-0.55078125 -0.6445313,-0.93749995 0,-0.5039063 0.328125,-1.7226563 0.5507813,-2.1796875 C 1.9557969,-3.82 2.4128281,-4.1832812 2.8112656,-4.1832812 c 0.6445313,0 0.7851563,0.8203125 0.7851563,0.8789062 0,0.058594 -0.023437,0.1171875 -0.035156,0.1640625 z m 2.9941406,0.5976562 c -0.035156,0.15234375 -0.09375,0.375 -0.09375,0.421875 0,0.1875 0.140625,0.26953125 0.2929688,0.26953125 0.1171875,0 0.2929687,-0.0703125 0.3632812,-0.26953125 0.011719,-0.0234375 0.1289063,-0.4921875 0.1875,-0.73828125 L 7.035875,-1.804375 c 0.058594,-0.2226562 0.1171875,-0.4335937 0.1757812,-0.6679687 0.035156,-0.1640625 0.1171875,-0.4570313 0.1289063,-0.4921875 0.140625,-0.3164063 0.6679687,-1.21875 1.6171875,-1.21875 0.4453125,0 0.5390625,0.3632812 0.5390625,0.6914062 0,0.2578125 -0.070312,0.5390625 -0.1523438,0.8320313 l -0.2695312,1.1601562 -0.1992188,0.75 c -0.046875,0.19921875 -0.140625,0.5390625 -0.140625,0.5859375 0,0.1875 0.140625,0.26953125 0.2929688,0.26953125 0.3046875,0 0.375,-0.24609375 0.4453125,-0.5625 C 9.614,-1.0192187 9.989,-2.4723437 10.071031,-2.8590625 c 0.03516,-0.1289062 0.5625,-1.3242187 1.652344,-1.3242187 0.421875,0 0.539062,0.3398437 0.539062,0.6914062 0,0.5742188 -0.421875,1.7109375 -0.621093,2.2382813 -0.09375,0.234375 -0.128907,0.35156245 -0.128907,0.5507812 0,0.46875 0.351563,0.80859375 0.808594,0.80859375 0.9375,0 1.3125,-1.45312495 1.3125,-1.53515625 0,-0.09375 -0.09375,-0.09375 -0.117187,-0.09375 -0.105469,0 -0.105469,0.023437 -0.152344,0.1757813 -0.152344,0.5273437 -0.46875,1.24218745 -1.019531,1.24218745 -0.164063,0 -0.234375,-0.10546875 -0.234375,-0.328125 0,-0.2578125 0.08203,-0.4921875 0.175781,-0.71484375 0.1875,-0.515625 0.609375,-1.6171875 0.609375,-2.1914062 0,-0.6445313 -0.398438,-1.0664063 -1.148438,-1.0664063 -0.75,0 -1.253906,0.4453125 -1.617187,0.9726563 C 10.117906,-3.5621875 10.08275,-3.9020312 9.8015,-4.148125 9.5554062,-4.3473437 9.239,-4.4059375 8.9929062,-4.4059375 c -0.9023437,0 -1.3828125,0.6445313 -1.5585937,0.8671875 -0.046875,-0.5625 -0.46875,-0.8671875 -0.9140625,-0.8671875 -0.4570313,0 -0.6445313,0.3867188 -0.7382813,0.5742188 -0.1757812,0.3398437 -0.3046875,0.9375 -0.3046875,0.9609375 0,0.1054687 0.09375,0.1054687 0.1171875,0.1054687 0.09375,0 0.1054688,-0.011719 0.1640625,-0.234375 0.1757813,-0.703125 0.375,-1.1835937 0.7265625,-1.1835937 0.1640625,0 0.3164063,0.082031 0.3164063,0.4570312 0,0.2109375 -0.035156,0.3164063 -0.1640625,0.8320313 z M 19.955797,-3.7028125 c 0,-0.4453125 -0.175781,-0.703125 -0.398438,-0.703125 -0.257812,0 -0.527343,0.2460938 -0.527343,0.46875 0,0.1054688 0.04687,0.2109375 0.152343,0.3046875 0.164063,0.140625 0.351563,0.4101563 0.351563,0.8320313 0,0.3984375 -0.1875,0.9726562 -0.503906,1.4296875 -0.292969,0.42187495 -0.667969,0.7617187 -1.136719,0.7617187 -0.5625,0 -0.867188,-0.3515625 -0.960938,-0.890625 0.105469,-0.2578125 0.339844,-0.9023437 0.339844,-1.1835937 0,-0.1171875 -0.04687,-0.2109375 -0.1875,-0.2109375 -0.07031,0 -0.1875,0.011719 -0.257812,0.1640625 -0.117188,0.1992187 -0.234375,0.84375 -0.234375,1.2070312 -0.328125,0.46875 -0.726563,0.9140625 -1.359375,0.9140625 -0.65625,0 -0.867188,-0.5859375 -0.867188,-1.1484375 0,-1.2421875 1.019531,-2.2851562 1.019531,-2.4140625 0,-0.1171875 -0.08203,-0.1875 -0.1875,-0.1875 -0.128906,0 -0.199218,0.1289063 -0.257812,0.2109375 -0.503906,0.7382813 -0.890625,1.921875 -0.890625,2.8359375 0,0.6796875 0.234375,1.41796875 1.042969,1.41796875 0.714843,0 1.183593,-0.4921875 1.535156,-1.04296875 0.09375,0.57421875 0.480469,1.04296875 1.101562,1.04296875 0.773438,0 1.253907,-0.609375 1.617188,-1.34765625 0.234375,-0.4921875 0.609375,-1.8515625 0.609375,-2.4609375 z m 0,0"
         style="fill:#808080;fill-opacity:1;fill-rule:nonzero;stroke:none" />
      <path
         id="path35"
         d="M 24.007555,-4.8805469 H 23.77318 c -0.02344,0.1523438 -0.08203,0.5625 -0.175782,0.6328125 -0.05859,0.035156 -0.597656,0.035156 -0.691406,0.035156 H 21.61693 c 0.738281,-0.6445313 0.984375,-0.84375 1.394531,-1.171875 0.515625,-0.4101563 0.996094,-0.84375 0.996094,-1.5 0,-0.84375 -0.738282,-1.359375 -1.628907,-1.359375 -0.867187,0 -1.453125,0.609375 -1.453125,1.2421875 0,0.3632812 0.304688,0.3984375 0.375,0.3984375 0.164063,0 0.375,-0.1171875 0.375,-0.375 0,-0.1289063 -0.05859,-0.3632813 -0.421875,-0.3632813 0.222657,-0.5039062 0.691407,-0.65625 1.019532,-0.65625 0.703125,0 1.066406,0.5507813 1.066406,1.1132813 0,0.609375 -0.433594,1.0898437 -0.65625,1.3359375 l -1.6875,1.6640625 c -0.07031,0.058594 -0.07031,0.070312 -0.07031,0.2695312 h 2.882813 z m 0,0"
         style="fill:#808080;fill-opacity:1;fill-rule:nonzero;stroke:none" />
      <path
         id="path36"
         d="m 28.287828,-3.0114062 c 0.05859,-0.2578125 0.292969,-1.171875 0.984375,-1.171875 0.04687,0 0.292969,0 0.503906,0.1289062 -0.28125,0.046875 -0.480468,0.3046875 -0.480468,0.5390625 0,0.1640625 0.105468,0.3515625 0.375,0.3515625 0.222656,0 0.539062,-0.1875 0.539062,-0.5859375 0,-0.515625 -0.585937,-0.65625 -0.925781,-0.65625 -0.574219,0 -0.925781,0.5273438 -1.042969,0.7617188 -0.257812,-0.65625 -0.785156,-0.7617188 -1.078125,-0.7617188 -1.042969,0 -1.605469,1.2890625 -1.605469,1.5351563 0,0.1054687 0.105469,0.1054687 0.117188,0.1054687 0.08203,0 0.117187,-0.023437 0.128906,-0.1171875 0.339844,-1.0546875 0.996094,-1.3007812 1.335938,-1.3007812 0.1875,0 0.539062,0.09375 0.539062,0.6679687 0,0.3046875 -0.164062,0.9726563 -0.539062,2.3671875 -0.152344,0.62109375 -0.503907,1.04296875 -0.949219,1.04296875 -0.05859,0 -0.28125,0 -0.492188,-0.12890625 0.246094,-0.0585938 0.46875,-0.26953125 0.46875,-0.5390625 0,-0.2695312 -0.222656,-0.3515625 -0.375,-0.3515625 -0.292968,0 -0.539062,0.2578125 -0.539062,0.57421875 0,0.45703125 0.492187,0.65625 0.9375,0.65625 0.65625,0 1.007812,-0.69140625 1.042969,-0.75 0.117187,0.36328125 0.480468,0.75 1.078125,0.75 1.019531,0 1.59375,-1.27734375 1.59375,-1.53515625 0,-0.09375 -0.09375,-0.09375 -0.128907,-0.09375 -0.08203,0 -0.105468,0.035156 -0.128906,0.1054688 -0.328125,1.0664062 -0.996094,1.31249995 -1.324219,1.31249995 -0.386718,0 -0.539062,-0.328125 -0.539062,-0.65625 0,-0.22265625 0.05859,-0.44531245 0.164062,-0.87890625 z m 0,0"
         style="fill:#808080;fill-opacity:1;fill-rule:nonzero;stroke:none" />
    </g>
    <path
       id="path37"
       d="m -65.7435,133.65462 26.44528,35.26045"
       style="fill:#808080;fill-opacity:1;fill-rule:nonzero;stroke:#808080;stroke-width:1.19553;stroke-linecap:butt;stroke-linejoin:miter;stroke-miterlimit:10;stroke-dasharray:none;stroke-opacity:1"
       transform="matrix(1.3333333,0,0,-1.3333333,137.26267,284.39067)" />
    <path
       id="path38"
       d="M 5.73854,0 C 4.0382,0.31879 1.27522,1.27522 -0.6376,2.39105 v -4.7821 C 1.27522,-1.27522 4.0382,-0.31879 5.73854,0"
       style="fill:#808080;fill-opacity:1;fill-rule:nonzero;stroke:none"
       transform="matrix(0.79998667,-1.0666267,-1.0666267,-0.79998667,84.865027,59.170573)" />
    <path
       id="path39"
       d="m 5.1436562,-6.8077813 c 0,0 0,-0.1054687 -0.1289062,-0.1054687 -0.1523438,0 -1.1015625,0.09375 -1.265625,0.1054687 -0.082031,0.011719 -0.140625,0.070312 -0.140625,0.1992188 0,0.1171875 0.082031,0.1171875 0.234375,0.1171875 0.4804687,0 0.5039062,0.070312 0.5039062,0.1640625 l -0.035156,0.1992187 -0.5976563,2.3671875 c -0.1757812,-0.375 -0.46875,-0.6445312 -0.9140625,-0.6445312 -1.171875,0 -2.4023437,1.4648437 -2.4023437,2.9179687 0,0.93750005 0.55078125,1.59375005 1.3242187,1.59375005 0.1992188,0 0.703125,-0.03515625 1.3007813,-0.73828125 0.070312,0.41015625 0.421875,0.73828125 0.9023437,0.73828125 0.3515625,0 0.5742188,-0.22265625 0.7382813,-0.5390625 C 4.82725,-0.7960625 4.9561562,-1.4054375 4.9561562,-1.428875 c 0,-0.09375 -0.082031,-0.09375 -0.1171875,-0.09375 -0.09375,0 -0.1054687,0.035156 -0.140625,0.1757812 -0.1640625,0.6445313 -0.3515625,1.24218755 -0.75,1.24218755 -0.2695312,0 -0.3046875,-0.2578125 -0.3046875,-0.45703125 0,-0.24609375 0.023437,-0.31640625 0.058594,-0.4804688 z m -2.0742187,5.625 C 3.0225625,-1.007 3.0225625,-0.9835625 2.8702187,-0.8195 c -0.4453125,0.55078125 -0.84375,0.71484375 -1.125,0.71484375 -0.5039062,0 -0.6445312,-0.55078125 -0.6445312,-0.93750005 0,-0.5039062 0.328125,-1.7226562 0.5507812,-2.1796875 0.3046875,-0.5976562 0.7617188,-0.9609375 1.1601563,-0.9609375 0.6445312,0 0.7851562,0.8203125 0.7851562,0.8789063 0,0.058594 -0.023437,0.1171875 -0.035156,0.1640625 z m 9.5771485,-7.265625 C 12.51768,-8.3195 12.189555,-8.03825 12.189555,-7.8624688 c 0,0.1054688 0.09375,0.1992188 0.199218,0.1992188 0.08203,0 0.128907,-0.070312 0.1875,-0.1289063 0.117188,-0.140625 0.339844,-0.421875 0.785157,-0.6445312 0.07031,-0.035156 0.164062,-0.09375 0.164062,-0.2109375 0,-0.09375 -0.07031,-0.1523438 -0.140625,-0.1992188 -0.210937,-0.1523437 -0.328125,-0.328125 -0.398437,-0.5625 C 12.96299,-9.5030938 12.91612,-9.632 12.787211,-9.632 c -0.140625,0 -0.199219,0.1289062 -0.199219,0.2109375 0,0.046875 0.07031,0.3632812 0.234375,0.5742187 H 9.4590859 c -0.1640625,0 -0.3398437,0 -0.3398437,0.1992188 0,0.1992187 0.1757812,0.1992187 0.3398437,0.1992187 z m 0.07324,2.6953125 c 0.09375,-0.3984375 0.269531,-0.7148437 1.066406,-0.7382812 0.05859,0 0.175782,-0.011719 0.175782,-0.1992188 0,-0.011719 0,-0.1171875 -0.128907,-0.1171875 -0.328125,0 -0.679687,0.035156 -1.007812,0.035156 -0.339844,0 -0.691406,-0.035156 -1.019531,-0.035156 -0.05859,0 -0.175782,0 -0.175782,0.1992188 0,0.1171875 0.09375,0.1171875 0.175782,0.1171875 0.574218,0.011719 0.679687,0.2109375 0.679687,0.4335937 0,0.035156 -0.02344,0.1757813 -0.02344,0.2109375 l -1.125,4.4296875 -2.2031254,-5.1914062 c -0.070312,-0.1875 -0.082031,-0.1992188 -0.3164062,-0.1992188 H 7.4815469 c -0.1992188,0 -0.28125,0 -0.28125,0.1992188 0,0.1171875 0.082031,0.1171875 0.28125,0.1171875 0.046875,0 0.6679687,0 0.6679687,0.082031 l -1.3359375,5.355469 c -0.09375,0.3984375 -0.2695312,0.71484375 -1.0664062,0.75 -0.058594,0 -0.1757813,0 -0.1757813,0.19921875 0,0.0703125 0.046875,0.10546875 0.1289063,0.10546875 0.3164062,0 0.6679687,-0.03515625 0.9960937,-0.03515625 0.3398438,0 0.703125,0.03515625 1.03125,0.03515625 0.046875,0 0.1757813,0 0.1757813,-0.19921875 0,-0.10546875 -0.09375,-0.10546875 -0.1992188,-0.10546875 -0.5742187,-0.0234375 -0.65625,-0.24609375 -0.65625,-0.4453125 0,-0.0703125 0.011719,-0.1171875 0.035156,-0.22265625 l 1.324219,-5.26171875 c 0.035156,0.058594 0.035156,0.082031 0.082031,0.1757812 l 2.4843749,5.8710938 c 0.07031,0.1640625 0.09375,0.1875 0.1875,0.1875 0.105469,0 0.105469,-0.03515625 0.164063,-0.2109375 z m 0,0"
       style="fill:#808080;fill-opacity:1;fill-rule:nonzero;stroke:none"
       aria-label="d&#10;⃗&#10;N"
       transform="matrix(1.3333333,0,0,1.3333333,79.938667,43.842667)" />
    <path
       id="path40"
       d="M -35.85515,169.58743 V 133.65462"
       style="fill:none;stroke:#808080;stroke-width:0.3985;stroke-linecap:butt;stroke-linejoin:miter;stroke-miterlimit:10;stroke-dasharray:2.98883, 1.99255;stroke-dashoffset:0;stroke-opacity:1"
       transform="matrix(1.3333333,0,0,-1.3333333,137.26267,284.39067)" />
    <path
       id="path41"
       d="m -62.80548,97.7218 26.95033,35.93282"
       style="fill:none;stroke:#808080;stroke-width:0.3985;stroke-linecap:butt;stroke-linejoin:miter;stroke-miterlimit:10;stroke-dasharray:2.98883, 1.99255;stroke-dashoffset:0;stroke-opacity:1"
       transform="matrix(1.3333333,0,0,-1.3333333,137.26267,284.39067)" />
    <path
       id="path42"
       d="M -62.15697,76.9118 H -3.58653"
       style="fill:none;stroke:#808080;stroke-width:0.3985;stroke-linecap:butt;stroke-linejoin:miter;stroke-miterlimit:10;stroke-dasharray:2.98883, 1.99255;stroke-dashoffset:0;stroke-opacity:1"
       transform="matrix(1.3333333,0,0,-1.3333333,137.26267,284.39067)" />
    <path
       id="path43"
       d="M 3.58653,0 C 2.52383,0.19925 0.797,0.797 -0.3985,1.49438 V -1.49438 C 0.797,-0.797 2.52383,-0.19925 3.58653,0"
       style="fill:#808080;fill-opacity:1;fill-rule:nonzero;stroke:none"
       transform="matrix(-1.3333333,0,0,1.3333333,54.386707,181.8416)" />
    <path
       id="path44"
       d="M 3.58653,0 C 2.52383,0.19925 0.797,0.797 -0.3985,1.49438 V -1.49438 C 0.797,-0.797 2.52383,-0.19925 3.58653,0"
       style="fill:#808080;fill-opacity:1;fill-rule:nonzero;stroke:none"
       transform="matrix(1.3333333,0,0,-1.3333333,132.48063,181.8416)" />
    <path
       id="path45"
       d="m 3.3266641,-3.0122891 c 0.058594,-0.2578125 0.2929687,-1.171875 0.984375,-1.171875 0.046875,0 0.2929687,0 0.5039062,0.1289063 -0.28125,0.046875 -0.4804687,0.3046875 -0.4804687,0.5390625 0,0.1640625 0.1054687,0.3515625 0.375,0.3515625 0.2226562,0 0.5390625,-0.1875 0.5390625,-0.5859375 0,-0.515625 -0.5859375,-0.65625 -0.9257813,-0.65625 -0.5742187,0 -0.9257812,0.5273437 -1.0429687,0.7617187 -0.2578125,-0.65625 -0.7851563,-0.7617187 -1.078125,-0.7617187 -1.0429688,0 -1.60546879,1.2890625 -1.60546879,1.5351562 0,0.1054688 0.10546875,0.1054688 0.1171875,0.1054688 0.0820313,0 0.1171875,-0.023437 0.12890625,-0.1171875 0.33984374,-1.0546875 0.99609374,-1.3007813 1.33593754,-1.3007813 0.1875,0 0.5390625,0.09375 0.5390625,0.6679688 0,0.3046875 -0.1640625,0.9726562 -0.5390625,2.3671875 -0.1523438,0.62109374 -0.5039063,1.04296874 -0.9492188,1.04296874 -0.058594,0 -0.28124999,0 -0.49218749,-0.12890625 0.24609375,-0.0585938 0.46874999,-0.26953125 0.46874999,-0.5390625 0,-0.26953129 -0.22265624,-0.35156249 -0.37499999,-0.35156249 -0.29296875,0 -0.5390625,0.25781249 -0.5390625,0.57421874 0,0.45703125 0.4921875,0.65625 0.93749999,0.65625 0.65625,0 1.0078125,-0.69140625 1.0429688,-0.75 0.1171875,0.36328125 0.4804687,0.75 1.078125,0.75 1.0195312,0 1.59375,-1.27734374 1.59375,-1.53515624 0,-0.09375 -0.09375,-0.09375 -0.1289063,-0.09375 -0.082031,0 -0.1054687,0.035156 -0.1289062,0.1054687 -0.328125,1.06640629 -0.9960938,1.31250004 -1.3242188,1.31250004 -0.3867187,0 -0.5390625,-0.328125 -0.5390625,-0.65625 0,-0.22265625 0.058594,-0.44531254 0.1640625,-0.87890624 z m 0,0"
       style="fill:#808080;fill-opacity:1;fill-rule:nonzero;stroke:none"
       aria-label="x"
       transform="matrix(1.3333333,0,0,1.3333333,89.638667,192.25467)" />
    <path
       id="path46"
       d="M 46.22739,41.85004 H 3.58653"
       style="fill:none;stroke:#808080;stroke-width:0.3985;stroke-linecap:butt;stroke-linejoin:miter;stroke-miterlimit:10;stroke-dasharray:2.98883, 1.99255;stroke-dashoffset:0;stroke-opacity:1"
       transform="matrix(1.3333333,0,0,-1.3333333,137.26267,284.39067)" />
    <path
       id="path47"
       d="M 3.58653,0 C 2.52383,0.19925 0.797,0.797 -0.3985,1.49438 V -1.49438 C 0.797,-0.797 2.52383,-0.19925 3.58653,0"
       style="fill:#808080;fill-opacity:1;fill-rule:nonzero;stroke:none"
       transform="matrix(1.3333333,0,0,-1.3333333,198.89919,228.59061)" />
    <path
       id="path48"
       d="M 3.58653,0 C 2.52383,0.19925 0.797,0.797 -0.3985,1.49438 V -1.49438 C 0.797,-0.797 2.52383,-0.19925 3.58653,0"
       style="fill:#808080;fill-opacity:1;fill-rule:nonzero;stroke:none"
       transform="matrix(-1.3333333,0,0,1.3333333,142.04471,228.59061)" />
    <g
       id="g48"
       aria-label="x&#10;0"
       transform="matrix(1.3333333,0,0,1.3333333,163.696,239.00267)">
      <path
         id="path49"
         d="m 3.3276094,-3.0107891 c 0.058594,-0.2578125 0.2929687,-1.171875 0.984375,-1.171875 0.046875,0 0.2929687,0 0.5039062,0.1289063 -0.28125,0.046875 -0.4804687,0.3046875 -0.4804687,0.5390625 0,0.1640625 0.1054687,0.3515625 0.375,0.3515625 0.2226562,0 0.5390625,-0.1875 0.5390625,-0.5859375 0,-0.515625 -0.5859375,-0.65625 -0.9257813,-0.65625 -0.5742187,0 -0.9257812,0.5273437 -1.0429687,0.7617187 -0.2578125,-0.65625 -0.7851563,-0.7617187 -1.078125,-0.7617187 -1.0429688,0 -1.60546878,1.2890625 -1.60546878,1.5351562 0,0.1054688 0.10546875,0.1054688 0.1171875,0.1054688 0.0820313,0 0.1171875,-0.023437 0.12890625,-0.1171875 0.33984373,-1.0546875 0.99609373,-1.3007813 1.33593753,-1.3007813 0.1875,0 0.5390625,0.09375 0.5390625,0.6679688 0,0.3046875 -0.1640625,0.9726562 -0.5390625,2.3671875 -0.1523438,0.62109374 -0.5039063,1.04296874 -0.9492188,1.04296874 -0.058594,0 -0.28124998,0 -0.49218748,-0.12890625 0.24609375,-0.0585938 0.46874998,-0.26953125 0.46874998,-0.5390625 0,-0.26953129 -0.22265623,-0.35156249 -0.37499998,-0.35156249 -0.29296875,0 -0.5390625,0.25781249 -0.5390625,0.57421874 0,0.45703125 0.4921875,0.65625 0.93749998,0.65625 0.65625,0 1.0078125,-0.69140625 1.0429688,-0.75 0.1171875,0.36328125 0.4804687,0.75 1.078125,0.75 1.0195312,0 1.59375,-1.27734374 1.59375,-1.53515624 0,-0.09375 -0.09375,-0.09375 -0.1289063,-0.09375 -0.082031,0 -0.1054687,0.035156 -0.1289062,0.1054687 -0.328125,1.06640629 -0.9960938,1.31250004 -1.3242188,1.31250004 -0.3867187,0 -0.5390625,-0.328125 -0.5390625,-0.65625 0,-0.22265625 0.058594,-0.44531254 0.1640625,-0.87890624 z m 0,0"
         style="fill:#808080;fill-opacity:1;fill-rule:nonzero;stroke:none" />
      <path
         id="path50"
         d="m 9.2924531,-0.73149219 c 0,-0.76171871 -0.09375,-1.31250001 -0.4101562,-1.80468751 -0.2226563,-0.3164062 -0.6445313,-0.5976562 -1.2070313,-0.5976562 -1.6171875,0 -1.6171875,1.8984375 -1.6171875,2.40234371 0,0.50390625 0,2.36718749 1.6171875,2.36718749 1.6171875,0 1.6171875,-1.86328124 1.6171875,-2.36718749 z M 7.6752656,1.4364766 c -0.3164062,0 -0.75,-0.1875 -0.890625,-0.76171879 -0.09375,-0.41015625 -0.09375,-0.984375 -0.09375,-1.5 0,-0.50390621 0,-1.03125001 0.1054688,-1.41796871 0.1523437,-0.5507813 0.5976562,-0.6914063 0.8789062,-0.6914063 0.375,0 0.7382813,0.2226563 0.8671875,0.6328125 0.1054688,0.375 0.1171875,0.8789063 0.1171875,1.47656251 0,0.515625 0,1.04296875 -0.09375,1.4765625 C 8.4252656,1.2841328 7.9565156,1.4364766 7.6752656,1.4364766 Z m 0,0"
         style="fill:#808080;fill-opacity:1;fill-rule:nonzero;stroke:none" />
    </g>
    <path
       id="path51"
       d="m 50.81026,81.65614 c 0,0.55026 -0.44606,0.99634 -0.99634,0.99634 -0.55026,0 -0.99634,-0.44608 -0.99634,-0.99634 0,-0.55026 0.44608,-0.99634 0.99634,-0.99634 0.55028,0 0.99634,0.44608 0.99634,0.99634 z"
       style="fill:#000000;fill-opacity:1;fill-rule:nonzero;stroke:#000000;stroke-width:0.3985;stroke-linecap:butt;stroke-linejoin:miter;stroke-miterlimit:10;stroke-dasharray:none;stroke-opacity:1"
       transform="matrix(1.3333333,0,0,-1.3333333,137.26267,284.39067)" />
    <path
       id="path52"
       d="m -64.74716,133.65462 c 0,0.55026 -0.44608,0.99634 -0.99634,0.99634 -0.55026,0 -0.99634,-0.44608 -0.99634,-0.99634 0,-0.55027 0.44608,-0.99634 0.99634,-0.99634 0.55026,0 0.99634,0.44607 0.99634,0.99634 z"
       style="fill:#000000;fill-opacity:1;fill-rule:nonzero;stroke:#000000;stroke-width:0.3985;stroke-linecap:butt;stroke-linejoin:miter;stroke-miterlimit:10;stroke-dasharray:none;stroke-opacity:1"
       transform="matrix(1.3333333,0,0,-1.3333333,137.26267,284.39067)" />
    <path
       id="path53"
       d="m -44.8215,161.55084 c 2.58612,-1.93964 5.73358,-2.98926 8.96635,-2.98926"
       style="fill:none;stroke:#808080;stroke-width:0.3985;stroke-linecap:butt;stroke-linejoin:miter;stroke-miterlimit:10;stroke-dasharray:none;stroke-opacity:1"
       transform="matrix(1.3333333,0,0,-1.3333333,137.26267,284.39067)" />
    <path
       id="path54"
       d="m 5.1576172,-3.7153438 c 0.1289062,0 0.4921875,0 0.4921875,-0.3398437 0,-0.234375 -0.2109375,-0.234375 -0.3867188,-0.234375 H 2.9896484 c -1.5,0 -2.61328121,1.640625 -2.61328121,2.8242187 0,0.8789063 0.5859375,1.57031255 1.50000001,1.57031255 1.171875,0 2.4960937,-1.20703125 2.4960937,-2.73046875 0,-0.1757813 0,-0.65625 -0.3046875,-1.0898438 z m -3.2695313,3.60937505 c -0.4921875,0 -0.89062496,-0.36328125 -0.89062496,-1.07812505 0,-0.3046875 0.11718746,-1.1132812 0.46874996,-1.7109375 0.421875,-0.6796875 1.0195313,-0.8203125 1.359375,-0.8203125 0.8320313,0 0.9140625,0.65625 0.9140625,0.9609375 0,0.46875 -0.1992187,1.2890625 -0.5390625,1.7929688 -0.3867187,0.59765625 -0.9257812,0.85546875 -1.3125,0.85546875 z m 0,0"
       style="fill:#808080;fill-opacity:1;fill-rule:nonzero;stroke:none"
       aria-label="σ"
       transform="matrix(1.3333333,0,0,1.3333333,76.533333,81.250667)" />
    <path
       id="path55"
       d="m 79.70226,47.8209 c -3.14708,0 -6.24109,-0.82926 -8.96651,-2.40281"
       style="fill:none;stroke:#808080;stroke-width:0.3985;stroke-linecap:butt;stroke-linejoin:miter;stroke-miterlimit:10;stroke-dasharray:none;stroke-opacity:1"
       transform="matrix(1.3333333,0,0,-1.3333333,137.26267,284.39067)" />
    <path
       id="path56"
       d="m 4.7461172,-2.3540312 c 0,-1.5585938 -0.9257813,-2.0507813 -1.6523438,-2.0507813 -1.3710937,0 -2.68359371,1.4296875 -2.68359371,2.8359375 0,0.92578125 0.59765621,1.67578125 1.61718751,1.67578125 0.6210937,0 1.3359375,-0.22265625 2.0976562,-0.83203125 0.1289063,0.52734375 0.4570313,0.83203125 0.9023438,0.83203125 0.5273437,0 0.84375,-0.5390625 0.84375,-0.703125 0,-0.0703125 -0.058594,-0.10546875 -0.1289063,-0.10546875 -0.058594,0 -0.09375,0.0351563 -0.1289062,0.10546875 -0.1757813,0.4921875 -0.5273438,0.4921875 -0.5507813,0.4921875 -0.3164062,0 -0.3164062,-0.78515625 -0.3164062,-1.01953125 0,-0.2109375 0,-0.234375 0.1054687,-0.3515625 0.9375,-1.171875 1.1484375,-2.3320312 1.1484375,-2.34375 0,-0.011719 -0.011719,-0.09375 -0.1171875,-0.09375 -0.1054687,0 -0.1054687,0.023437 -0.1523437,0.2109375 -0.1875,0.6210938 -0.515625,1.3828125 -0.984375,1.96875 z m -0.65625,1.3710937 c -0.8789063,0.76171875 -1.6523438,0.87890625 -2.0507813,0.87890625 -0.5976562,0 -0.890625,-0.45703125 -0.890625,-1.08984375 0,-0.4921875 0.2578125,-1.5585937 0.5742188,-2.0742187 0.46875,-0.7265625 1.0078125,-0.9140625 1.359375,-0.9140625 0.984375,0 0.984375,1.3007812 0.984375,2.0859375 0,0.3632812 0,0.9375 0.023437,1.1132812 z m 0,0"
       style="fill:#808080;fill-opacity:1;fill-rule:nonzero;stroke:none"
       aria-label="α"
       transform="matrix(1.3333333,0,0,1.3333333,231.832,217.02933)" />
  </g>
</svg>
