<?xml version="1.0" encoding="UTF-8" standalone="no"?>
<!-- Created with Inkscape (http://www.inkscape.org/) -->

<svg
   version="1.1"
   id="svg1"
   width="906.28931"
   height="488.30533"
   viewBox="0 0 906.28931 488.30533"
   xmlns="http://www.w3.org/2000/svg"
   xmlns:svg="http://www.w3.org/2000/svg">
  <defs
     id="defs1">
    <pattern
       patternUnits="userSpaceOnUse"
       x="0"
       y="0"
       width="4.98138"
       height="4.98138"
       id="pattern2">
      <path
         d="M 0,2.98883 3.08846,-0.09962"
         style="fill:none;stroke:#dfbf9f;stroke-opacity:1;stroke-width:0.3985;stroke-linecap:butt;stroke-linejoin:miter;stroke-miterlimit:10;stroke-dasharray:none"
         transform="translate(0.99628,0.99628)"
         id="path2" />
    </pattern>
    <pattern
       patternUnits="userSpaceOnUse"
       x="0"
       y="0"
       width="4.98138"
       height="4.98138"
       id="pattern4">
      <path
         d="M 0,2.98883 3.08846,-0.09962"
         style="fill:none;stroke:#dfbf9f;stroke-opacity:1;stroke-width:0.3985;stroke-linecap:butt;stroke-linejoin:miter;stroke-miterlimit:10;stroke-dasharray:none"
         transform="translate(0.99628,0.99628)"
         id="path4" />
    </pattern>
  </defs>
  <g
     id="g1">
    <path
       id="path1"
       d="M 49.8139,0 C 49.8139,27.51181 27.51181,49.8139 0,49.8139 -27.51181,49.8139 -49.8139,27.51181 -49.8139,0 c 0,-27.51181 22.30209,-49.8139 49.8139,-49.8139 27.51181,0 49.8139,22.30209 49.8139,49.8139 z m 99.62784,0 c 0,27.51181 -22.30211,49.8139 -49.81392,49.8139 C 72.11601,49.8139 49.8139,27.51181 49.8139,0 c 0,-27.51181 22.30211,-49.8139 49.81392,-49.8139 27.51181,0 49.81392,22.30209 49.81392,49.8139 z m 99.62784,0 c 0,27.51181 -22.30211,49.8139 -49.81392,49.8139 -27.51181,0 -49.81392,-22.30209 -49.81392,-49.8139 0,-27.51181 22.30211,-49.8139 49.81392,-49.8139 27.51181,0 49.81392,22.30209 49.81392,49.8139 z m 99.62784,0 c 0,27.51181 -22.30211,49.8139 -49.81392,49.8139 -27.51181,0 -49.81392,-22.30209 -49.81392,-49.8139 0,-27.51181 22.30211,-49.8139 49.81392,-49.8139 27.51181,0 49.81392,22.30209 49.81392,49.8139 z"
       style="fill:url(#pattern2);fill-opacity:1;fill-rule:nonzero;stroke:#000000;stroke-width:0.3985;stroke-linecap:butt;stroke-linejoin:miter;stroke-miterlimit:10;stroke-dasharray:none;stroke-opacity:1"
       transform="matrix(1.3333333,0,0,-1.3333333,254.024,310.22533)" />
    <path
       id="path3"
       d="m 99.62782,86.28046 c 0,27.51181 -22.30209,49.81392 -49.81392,49.81392 C 22.3021,136.09438 0,113.79227 0,86.28046 0,58.76865 22.3021,36.46654 49.8139,36.46654 c 27.51183,0 49.81392,22.30211 49.81392,49.81392 z m 99.62784,0 c 0,27.51181 -22.30211,49.81392 -49.81392,49.81392 -27.51181,0 -49.81392,-22.30211 -49.81392,-49.81392 0,-27.51181 22.30211,-49.81392 49.81392,-49.81392 27.51181,0 49.81392,22.30211 49.81392,49.81392 z m 99.62784,0 c 0,27.51181 -22.30211,49.81392 -49.81392,49.81392 -27.51181,0 -49.81392,-22.30211 -49.81392,-49.81392 0,-27.51181 22.30211,-49.81392 49.81392,-49.81392 27.51181,0 49.81392,22.30211 49.81392,49.81392 z"
       style="fill:url(#pattern4);fill-opacity:1;fill-rule:nonzero;stroke:#000000;stroke-width:0.3985;stroke-linecap:butt;stroke-linejoin:miter;stroke-miterlimit:10;stroke-dasharray:none;stroke-opacity:1"
       transform="matrix(1.3333333,0,0,-1.3333333,254.024,310.22533)" />
    <path
       id="path5"
       d="m 1.9098594,-0.52753125 c 0,-0.29296875 -0.234375,-0.52734375 -0.5273438,-0.52734375 -0.28125,0 -0.52734373,0.234375 -0.52734373,0.52734375 0,0.29296875 0.24609373,0.52734375 0.52734373,0.52734375 0.2929688,0 0.5273438,-0.234375 0.5273438,-0.52734375 z m 2.7685547,0 c 0,-0.29296875 -0.234375,-0.52734375 -0.5273438,-0.52734375 -0.28125,0 -0.5273437,0.234375 -0.5273437,0.52734375 0,0.29296875 0.2460937,0.52734375 0.5273437,0.52734375 0.2929688,0 0.5273438,-0.234375 0.5273438,-0.52734375 z m 2.765625,0 c 0,-0.29296875 -0.234375,-0.52734375 -0.5273438,-0.52734375 -0.28125,0 -0.5273437,0.234375 -0.5273437,0.52734375 0,0.29296875 0.2460937,0.52734375 0.5273437,0.52734375 0.2929688,0 0.5273438,-0.234375 0.5273438,-0.52734375 z m 0,0"
       style="fill:#000000;fill-opacity:1;fill-rule:nonzero;stroke:none"
       aria-label="..."
       transform="matrix(1.3333333,0,0,1.3333333,110.96133,377.344)" />
    <path
       id="path6"
       d="m 1.9097344,-0.52753125 c 0,-0.29296875 -0.234375,-0.52734375 -0.5273438,-0.52734375 -0.28125,0 -0.52734373,0.234375 -0.52734373,0.52734375 0,0.29296875 0.24609373,0.52734375 0.52734373,0.52734375 0.2929688,0 0.5273438,-0.234375 0.5273438,-0.52734375 z m 2.7685547,0 c 0,-0.29296875 -0.234375,-0.52734375 -0.5273438,-0.52734375 -0.28125,0 -0.5273437,0.234375 -0.5273437,0.52734375 0,0.29296875 0.2460937,0.52734375 0.5273437,0.52734375 0.2929688,0 0.5273438,-0.234375 0.5273438,-0.52734375 z m 2.765625,0 c 0,-0.29296875 -0.234375,-0.52734375 -0.5273438,-0.52734375 -0.28125,0 -0.5273437,0.234375 -0.5273437,0.52734375 0,0.29296875 0.2460937,0.52734375 0.5273437,0.52734375 0.2929688,0 0.5273438,-0.234375 0.5273438,-0.52734375 z m 0,0"
       style="fill:#000000;fill-opacity:1;fill-rule:nonzero;stroke:none"
       aria-label="..."
       transform="matrix(1.3333333,0,0,1.3333333,784.524,377.344)" />
    <path
       id="path7"
       d="M -95.47667,-49.8139 H 394.36018"
       style="fill:none;stroke:#000000;stroke-width:1.19553;stroke-linecap:butt;stroke-linejoin:miter;stroke-miterlimit:10;stroke-dasharray:none;stroke-opacity:1"
       transform="matrix(1.3333333,0,0,-1.3333333,254.024,310.22533)" />
    <path
       id="path8"
       d="m 199.25566,86.28046 c 0,27.51181 -22.30211,49.81392 -49.81392,49.81392 -27.51181,0 -49.81392,-22.30211 -49.81392,-49.81392 0,-27.51181 22.30211,-49.81392 49.81392,-49.81392 27.51181,0 49.81392,22.30211 49.81392,49.81392 z m 99.62784,0 c 0,27.51181 -22.30211,49.81392 -49.81392,49.81392 -27.51181,0 -49.81392,-22.30211 -49.81392,-49.81392 0,-27.51181 22.30211,-49.81392 49.81392,-49.81392 27.51181,0 49.81392,22.30211 49.81392,49.81392 z M 249.06958,0 c 0,27.51181 -22.30211,49.8139 -49.81392,49.8139 -27.51181,0 -49.81392,-22.30209 -49.81392,-49.8139 0,-27.51181 22.30211,-49.8139 49.81392,-49.8139 27.51181,0 49.81392,22.30209 49.81392,49.8139 z m 99.62784,0 c 0,27.51181 -22.30211,49.8139 -49.81392,49.8139 -27.51181,0 -49.81392,-22.30209 -49.81392,-49.8139 0,-27.51181 22.30211,-49.8139 49.81392,-49.8139 27.51181,0 49.81392,22.30209 49.81392,49.8139 z"
       style="fill:none;stroke:#ff0000;stroke-width:0.3985;stroke-linecap:butt;stroke-linejoin:miter;stroke-miterlimit:10;stroke-dasharray:none;stroke-opacity:1"
       transform="matrix(1.3333333,0,0,-1.3333333,254.024,310.22533)" />
    <path
       id="path9"
       d="m 99.62782,86.28046 h 9.20578"
       style="fill:#ff0000;fill-opacity:1;fill-rule:nonzero;stroke:#ff0000;stroke-width:1.19553;stroke-linecap:butt;stroke-linejoin:miter;stroke-miterlimit:10;stroke-dasharray:none;stroke-opacity:1"
       transform="matrix(1.3333333,0,0,-1.3333333,254.024,310.22533)" />
    <path
       id="path10"
       d="M 5.73854,0 C 4.0382,0.31879 1.27522,1.27522 -0.6376,2.39105 v -4.7821 C 1.27522,-1.27522 4.0382,-0.31879 5.73854,0"
       style="fill:#ff0000;fill-opacity:1;fill-rule:nonzero;stroke:none"
       transform="matrix(1.3333333,0,0,-1.3333333,399.13547,195.18472)" />
    <g
       id="g10"
       aria-label="⃗&#10;P&#10;1"
       transform="matrix(1.3333333,0,0,1.3333333,402.44267,184.612)">
      <path
         id="path11"
         d="m 5.3428047,-5.9287266 c -0.1289063,0.1289063 -0.4570313,0.4101563 -0.4570313,0.5859375 0,0.1054688 0.09375,0.1992188 0.1992188,0.1992188 0.082031,0 0.1289062,-0.070312 0.1875,-0.1289063 0.1171875,-0.140625 0.3398437,-0.421875 0.7851562,-0.6445312 0.070312,-0.035156 0.1640625,-0.09375 0.1640625,-0.2109375 0,-0.09375 -0.070312,-0.1523438 -0.140625,-0.1992188 -0.2109375,-0.1523437 -0.328125,-0.328125 -0.3984375,-0.5625 -0.023437,-0.09375 -0.070312,-0.2226562 -0.1992187,-0.2226562 -0.140625,0 -0.1992188,0.1289062 -0.1992188,0.2109375 0,0.046875 0.070312,0.3632812 0.234375,0.5742187 H 2.1553047 c -0.1640625,0 -0.3398438,0 -0.3398438,0.1992188 0,0.1992187 0.1757813,0.1992187 0.3398438,0.1992187 z M 0.84866406,-0.63478125 H 2.5361641 c 1.4179687,0 2.8007812,-1.03125005 2.8007812,-2.14453125 0,-0.7734375 -0.65625,-1.5117188 -1.96875,-1.5117188 H 0.14553906 c -0.1875,0 -0.29296875,0 -0.29296875,0.1992188 0,0.1171875 0.08203125,0.1171875 0.28125,0.1171875 0.12890625,0 0.31640625,0.011719 0.43359375,0.011719 0.15234375,0.023437 0.2109375,0.058594 0.2109375,0.1640625 0,0.035156 0,0.070312 -0.0351563,0.1875 l -1.3359375,5.3554688 c -0.09375,0.3867187 -0.1171875,0.46875 -0.90234366,0.46875 -0.1757813,0 -0.28125,0 -0.28125,0.1875 0,0.1171875 0.1171875,0.1171875 0.1523437,0.1171875 0.28125,0 0.98437496,-0.035156 1.26562496,-0.035156 0.2109375,0 0.421875,0.011719 0.6328125,0.011719 0.22265625,0 0.4453125,0.023437 0.64453125,0.023437 0.0703125,0 0.19921879,0 0.19921879,-0.1992188 0,-0.1054687 -0.082031,-0.1054687 -0.26953129,-0.1054687 -0.375,0 -0.65625,0 -0.65625,-0.1875 0,-0.058594 0.0234375,-0.1054688 0.0351563,-0.1640625 z M 1.5635078,-3.599625 c 0.082031,-0.3515625 0.1054688,-0.375 0.5390625,-0.375 h 0.9492188 c 0.8320312,0 1.359375,0.2695312 1.359375,0.9492187 0,0.3984375 -0.1992188,1.2539063 -0.5859375,1.6054688 -0.5039063,0.4453125 -1.1015625,0.52734375 -1.5351563,0.52734375 H 0.88382031 Z m 0,0"
         style="fill:#ff0000;fill-opacity:1;fill-rule:nonzero;stroke:none" />
      <path
         id="path12"
         d="m 6.5527656,-0.41798438 c 0,-0.1875 -0.011719,-0.19921875 -0.2109375,-0.19921875 -0.4453125,0.43359375 -1.078125,0.4453125 -1.359375,0.4453125 v 0.24609375 c 0.1640625,0 0.6210938,0 1.0078125,-0.1875 V 3.4374844 c 0,0.234375 0,0.328125 -0.6914062,0.328125 H 5.0293281 v 0.2460937 c 0.1289063,-0.011719 0.984375,-0.023437 1.2421875,-0.023437 0.2109375,0 1.0898438,0.011719 1.2421875,0.023437 V 3.7656094 H 7.2558906 c -0.703125,0 -0.703125,-0.09375 -0.703125,-0.328125 z m 0,0"
         style="fill:#ff0000;fill-opacity:1;fill-rule:nonzero;stroke:none" />
    </g>
    <path
       id="path13"
       d="m 100.62416,86.28046 c 0,0.55027 -0.44606,0.99634 -0.99634,0.99634 -0.55026,0 -0.99634,-0.44607 -0.99634,-0.99634 0,-0.55026 0.44608,-0.99634 0.99634,-0.99634 0.55028,0 0.99634,0.44608 0.99634,0.99634 z"
       style="fill:#ff0000;fill-opacity:1;fill-rule:nonzero;stroke:#ff0000;stroke-width:1.19553;stroke-linecap:butt;stroke-linejoin:miter;stroke-miterlimit:10;stroke-dasharray:none;stroke-opacity:1"
       transform="matrix(1.3333333,0,0,-1.3333333,254.024,310.22533)" />
    <path
       id="path14"
       d="m 149.44174,0 h 9.20578"
       style="fill:#ff0000;fill-opacity:1;fill-rule:nonzero;stroke:#ff0000;stroke-width:1.19553;stroke-linecap:butt;stroke-linejoin:miter;stroke-miterlimit:10;stroke-dasharray:none;stroke-opacity:1"
       transform="matrix(1.3333333,0,0,-1.3333333,254.024,310.22533)" />
    <path
       id="path15"
       d="M 5.73854,0 C 4.0382,0.31879 1.27522,1.27522 -0.6376,2.39105 v -4.7821 C 1.27522,-1.27522 4.0382,-0.31879 5.73854,0"
       style="fill:#ff0000;fill-opacity:1;fill-rule:nonzero;stroke:none"
       transform="matrix(1.3333333,0,0,-1.3333333,465.55403,310.22533)" />
    <g
       id="g15"
       aria-label="⃗&#10;P&#10;2"
       transform="matrix(1.3333333,0,0,1.3333333,468.86,299.65067)">
      <path
         id="path16"
         d="M 5.3432813,-5.9284297 C 5.214375,-5.7995234 4.88625,-5.5182734 4.88625,-5.3424922 c 0,0.1054688 0.09375,0.1992188 0.1992188,0.1992188 0.082031,0 0.1289062,-0.070312 0.1875,-0.1289063 0.1171875,-0.140625 0.3398437,-0.421875 0.7851562,-0.6445312 0.070312,-0.035156 0.1640625,-0.09375 0.1640625,-0.2109375 0,-0.09375 -0.070312,-0.1523438 -0.140625,-0.1992188 -0.2109375,-0.1523437 -0.328125,-0.328125 -0.3984375,-0.5625 -0.023437,-0.09375 -0.070312,-0.2226562 -0.1992187,-0.2226562 -0.140625,0 -0.1992188,0.1289062 -0.1992188,0.2109375 0,0.046875 0.070312,0.3632812 0.234375,0.5742187 H 2.1557813 c -0.1640625,0 -0.3398438,0 -0.3398438,0.1992188 0,0.1992187 0.1757813,0.1992187 0.3398438,0.1992187 z M 0.84621094,-0.63448437 H 2.5337109 c 1.4179688,0 2.8007813,-1.03125003 2.8007813,-2.14453123 0,-0.7734375 -0.65625,-1.5117188 -1.96875,-1.5117188 H 0.14308594 c -0.1875,0 -0.29296875,0 -0.29296875,0.1992188 0,0.1171875 0.08203125,0.1171875 0.28125,0.1171875 0.12890625,0 0.31640625,0.011719 0.43359375,0.011719 0.15234375,0.023437 0.2109375,0.058594 0.2109375,0.1640625 0,0.035156 0,0.070312 -0.0351563,0.1875 l -1.3359375,5.3554688 c -0.09375,0.3867187 -0.1171875,0.46875 -0.90234384,0.46875 -0.1757812,0 -0.28125,0 -0.28125,0.1875 0,0.1171875 0.1171875,0.1171875 0.1523438,0.1171875 0.28125,0 0.98437504,-0.035156 1.26562504,-0.035156 0.2109375,0 0.421875,0.011719 0.6328125,0.011719 0.22265625,0 0.4453125,0.023437 0.64453125,0.023437 0.0703125,0 0.19921871,0 0.19921871,-0.1992188 0,-0.1054687 -0.082031,-0.1054687 -0.26953121,-0.1054687 -0.375,0 -0.65625,0 -0.65625,-0.1875 0,-0.058594 0.0234375,-0.1054688 0.0351563,-0.1640625 z M 1.5610547,-3.5993281 c 0.082031,-0.3515625 0.1054687,-0.375 0.5390625,-0.375 h 0.9492187 c 0.8320313,0 1.359375,0.2695312 1.359375,0.9492187 0,0.3984375 -0.1992187,1.2539063 -0.5859375,1.6054688 -0.5039062,0.44531248 -1.1015625,0.52734373 -1.5351562,0.52734373 H 0.88136719 Z m 0,0"
         style="fill:#ff0000;fill-opacity:1;fill-rule:nonzero;stroke:none" />
      <path
         id="path17"
         d="m 7.7368359,2.746375 h -0.234375 c -0.023437,0.1523438 -0.082031,0.5625 -0.1757812,0.6328125 -0.058594,0.035156 -0.5976563,0.035156 -0.6914063,0.035156 H 5.3462109 c 0.7382813,-0.6445313 0.984375,-0.84375 1.3945313,-1.171875 0.515625,-0.4101563 0.9960937,-0.84375 0.9960937,-1.50000005 0,-0.84375 -0.7382812,-1.359375 -1.6289062,-1.359375 -0.8671875,0 -1.453125,0.609375 -1.453125,1.2421875 0,0.36328125 0.3046875,0.39843755 0.375,0.39843755 0.1640625,0 0.375,-0.11718755 0.375,-0.37500005 0,-0.12890625 -0.058594,-0.36328125 -0.421875,-0.36328125 0.2226562,-0.50390625 0.6914062,-0.65625 1.0195312,-0.65625 0.703125,0 1.0664063,0.55078125 1.0664063,1.11328125 0,0.60937505 -0.4335938,1.08984375 -0.65625,1.33593755 l -1.6875,1.6640625 C 4.6548047,3.8010625 4.6548047,3.8127813 4.6548047,4.012 h 2.8828125 z m 0,0"
         style="fill:#ff0000;fill-opacity:1;fill-rule:nonzero;stroke:none" />
    </g>
    <path
       id="path18"
       d="m 150.43808,0 c 0,0.55026 -0.44606,0.99632 -0.99634,0.99632 -0.55026,0 -0.99634,-0.44606 -0.99634,-0.99632 0,-0.55026 0.44608,-0.99632 0.99634,-0.99632 0.55028,0 0.99634,0.44606 0.99634,0.99632 z"
       style="fill:#ff0000;fill-opacity:1;fill-rule:nonzero;stroke:#ff0000;stroke-width:1.19553;stroke-linecap:butt;stroke-linejoin:miter;stroke-miterlimit:10;stroke-dasharray:none;stroke-opacity:1"
       transform="matrix(1.3333333,0,0,-1.3333333,254.024,310.22533)" />
    <path
       id="path19"
       d="m 1.9098594,-0.52778125 c 0,-0.29296875 -0.234375,-0.52734375 -0.5273438,-0.52734375 -0.28125,0 -0.52734373,0.234375 -0.52734373,0.52734375 0,0.29296875 0.24609373,0.52734375 0.52734373,0.52734375 0.2929688,0 0.5273438,-0.234375 0.5273438,-0.52734375 z m 2.7685547,0 c 0,-0.29296875 -0.234375,-0.52734375 -0.5273438,-0.52734375 -0.28125,0 -0.5273437,0.234375 -0.5273437,0.52734375 0,0.29296875 0.2460937,0.52734375 0.5273437,0.52734375 0.2929688,0 0.5273438,-0.234375 0.5273438,-0.52734375 z m 2.765625,0 c 0,-0.29296875 -0.234375,-0.52734375 -0.5273438,-0.52734375 -0.28125,0 -0.5273437,0.234375 -0.5273437,0.52734375 0,0.29296875 0.2460937,0.52734375 0.5273437,0.52734375 0.2929688,0 0.5273438,-0.234375 0.5273438,-0.52734375 z m 0,0"
       style="fill:#000000;fill-opacity:1;fill-rule:nonzero;stroke:none"
       aria-label="..."
       transform="matrix(1.3333333,0,0,1.3333333,110.96133,129.46933)" />
    <path
       id="path20"
       d="m 1.9097344,-0.52778125 c 0,-0.29296875 -0.234375,-0.52734375 -0.5273438,-0.52734375 -0.28125,0 -0.52734373,0.234375 -0.52734373,0.52734375 0,0.29296875 0.24609373,0.52734375 0.52734373,0.52734375 0.2929688,0 0.5273438,-0.234375 0.5273438,-0.52734375 z m 2.7685547,0 c 0,-0.29296875 -0.234375,-0.52734375 -0.5273438,-0.52734375 -0.28125,0 -0.5273437,0.234375 -0.5273437,0.52734375 0,0.29296875 0.2460937,0.52734375 0.5273437,0.52734375 0.2929688,0 0.5273438,-0.234375 0.5273438,-0.52734375 z m 2.765625,0 c 0,-0.29296875 -0.234375,-0.52734375 -0.5273438,-0.52734375 -0.28125,0 -0.5273437,0.234375 -0.5273437,0.52734375 0,0.29296875 0.2460937,0.52734375 0.5273437,0.52734375 0.2929688,0 0.5273438,-0.234375 0.5273438,-0.52734375 z m 0,0"
       style="fill:#000000;fill-opacity:1;fill-rule:nonzero;stroke:none"
       aria-label="..."
       transform="matrix(1.3333333,0,0,1.3333333,784.524,129.46933)" />
    <path
       id="path21"
       d="M -95.47667,136.09438 H 394.36018"
       style="fill:none;stroke:#000000;stroke-width:1.19553;stroke-linecap:butt;stroke-linejoin:miter;stroke-miterlimit:10;stroke-dasharray:none;stroke-opacity:1"
       transform="matrix(1.3333333,0,0,-1.3333333,254.024,310.22533)" />
    <path
       id="path22"
       d="m -110.81863,-53.85954 v 140.14 h 516.36961 v -140.14 z"
       style="fill:#b3b3ff;fill-opacity:0.3;fill-rule:nonzero;stroke:none"
       transform="matrix(1.3333333,0,0,-1.3333333,254.024,310.22533)" />
    <path
       id="path23"
       d="m 99.62782,0 49.81392,86.28046"
       style="fill:none;stroke:#808080;stroke-width:0.3985;stroke-linecap:butt;stroke-linejoin:miter;stroke-miterlimit:10;stroke-dasharray:2.98883, 2.98883;stroke-dashoffset:0;stroke-opacity:1"
       transform="matrix(1.3333333,0,0,-1.3333333,254.024,310.22533)" />
    <path
       id="path24"
       d="M 99.62782,0 49.8139,86.28046"
       style="fill:none;stroke:#808080;stroke-width:0.3985;stroke-linecap:butt;stroke-linejoin:miter;stroke-miterlimit:10;stroke-dasharray:2.98883, 2.98883;stroke-dashoffset:0;stroke-opacity:1"
       transform="matrix(1.3333333,0,0,-1.3333333,254.024,310.22533)" />
    <path
       id="path25"
       d="M 199.25566,0 149.44174,86.28046"
       style="fill:none;stroke:#808080;stroke-width:0.3985;stroke-linecap:butt;stroke-linejoin:miter;stroke-miterlimit:10;stroke-dasharray:2.98883, 2.98883;stroke-dashoffset:0;stroke-opacity:1"
       transform="matrix(1.3333333,0,0,-1.3333333,254.024,310.22533)" />
    <path
       id="path26"
       d="M 99.62782,0 V -24.1501"
       style="fill:#808080;fill-opacity:1;fill-rule:nonzero;stroke:#808080;stroke-width:1.19553;stroke-linecap:butt;stroke-linejoin:miter;stroke-miterlimit:10;stroke-dasharray:none;stroke-opacity:1"
       transform="matrix(1.3333333,0,0,-1.3333333,254.024,310.22533)" />
    <path
       id="path27"
       d="M 5.73854,0 C 4.0382,0.31879 1.27522,1.27522 -0.6376,2.39105 v -4.7821 C 1.27522,-1.27522 4.0382,-0.31879 5.73854,0"
       style="fill:#808080;fill-opacity:1;fill-rule:nonzero;stroke:none"
       transform="matrix(0,1.3333333,1.3333333,0,386.86109,342.42547)" />
    <path
       id="path28"
       d="m 0.88035938,-0.5855 c -0.0351563,0.15234375 -0.09375,0.375 -0.09375,0.421875 0,0.1875 0.140625,0.26953125 0.29296872,0.26953125 0.1171875,0 0.2929688,-0.0703125 0.3632813,-0.26953125 0.011719,-0.0234375 0.1289062,-0.4921875 0.1875,-0.73828125 L 1.8530156,-1.80425 c 0.058594,-0.2226563 0.1171875,-0.4335938 0.1757813,-0.6679688 0.035156,-0.1640625 0.1171875,-0.4570312 0.1289062,-0.4921875 0.140625,-0.3164062 0.6679688,-1.21875 1.6171875,-1.21875 0.4453125,0 0.5390625,0.3632813 0.5390625,0.6914063 0,0.2578125 -0.070312,0.5390625 -0.1523437,0.8320312 l -0.2695313,1.1601563 -0.1992187,0.75 c -0.046875,0.19921875 -0.140625,0.5390625 -0.140625,0.5859375 0,0.1875 0.140625,0.26953125 0.2929687,0.26953125 0.3046875,0 0.375,-0.24609375 0.4453125,-0.5625 0.140625,-0.56250005 0.515625,-2.01562505 0.5976563,-2.40234375 0.035156,-0.1289063 0.5625,-1.3242188 1.6523437,-1.3242188 0.421875,0 0.5390625,0.3398438 0.5390625,0.6914063 0,0.5742187 -0.421875,1.7109375 -0.6210937,2.2382812 -0.09375,0.234375 -0.1289063,0.35156255 -0.1289063,0.5507813 0,0.46875 0.3515625,0.80859375 0.8085938,0.80859375 0.9375,0 1.3125,-1.45312505 1.3125,-1.53515625 0,-0.09375 -0.09375,-0.09375 -0.1171875,-0.09375 -0.1054688,0 -0.1054688,0.023437 -0.1523438,0.1757812 -0.1523437,0.5273438 -0.46875,1.24218755 -1.0195312,1.24218755 -0.1640625,0 -0.234375,-0.10546875 -0.234375,-0.328125 0,-0.2578125 0.082031,-0.4921875 0.1757812,-0.71484375 0.1875,-0.515625 0.609375,-1.6171875 0.609375,-2.1914063 0,-0.6445312 -0.3984375,-1.0664062 -1.1484375,-1.0664062 -0.75,0 -1.2539062,0.4453125 -1.6171875,0.9726562 -0.011719,-0.1289062 -0.046875,-0.46875 -0.328125,-0.7148437 -0.2460937,-0.1992188 -0.5625,-0.2578125 -0.8085937,-0.2578125 -0.9023438,0 -1.3828125,0.6445312 -1.5585938,0.8671875 -0.046875,-0.5625 -0.46875,-0.8671875 -0.9140625,-0.8671875 -0.45703122,0 -0.64453122,0.3867187 -0.73828122,0.5742187 -0.17578125,0.3398438 -0.3046875,0.9375 -0.3046875,0.9609375 0,0.1054688 0.09375,0.1054688 0.1171875,0.1054688 0.09375,0 0.10546875,-0.011719 0.1640625,-0.234375 0.17578125,-0.703125 0.375,-1.1835938 0.72656252,-1.1835938 0.1640625,0 0.3164062,0.082031 0.3164062,0.4570313 0,0.2109375 -0.035156,0.3164062 -0.1640625,0.8320312 z M 13.662586,-5.92925 c -0.128906,0.1289062 -0.457031,0.4101562 -0.457031,0.5859375 0,0.1054687 0.09375,0.1992187 0.199218,0.1992187 0.08203,0 0.128907,-0.070312 0.1875,-0.1289062 0.117188,-0.140625 0.339844,-0.421875 0.785157,-0.6445313 0.07031,-0.035156 0.164062,-0.09375 0.164062,-0.2109375 0,-0.09375 -0.07031,-0.1523437 -0.140625,-0.1992187 -0.210937,-0.1523438 -0.328125,-0.328125 -0.398437,-0.5625 -0.02344,-0.09375 -0.07031,-0.2226563 -0.199219,-0.2226563 -0.140625,0 -0.199219,0.1289063 -0.199219,0.2109375 0,0.046875 0.07031,0.3632813 0.234375,0.5742188 h -3.363281 c -0.164063,0 -0.339844,0 -0.339844,0.1992187 0,0.1992188 0.175781,0.1992188 0.339844,0.1992188 z m -0.228516,2.1796875 c 0.01172,-0.070312 0.03516,-0.1171875 0.03516,-0.1875 0,-0.1640625 -0.117188,-0.2695313 -0.292969,-0.2695313 -0.09375,0 -0.363281,0.070312 -0.410156,0.4335938 -0.175782,-0.375 -0.527344,-0.6328125 -0.925782,-0.6328125 -1.136718,0 -2.3671872,1.3945312 -2.3671872,2.8359375 0,0.984375 0.6093752,1.5703125 1.3242192,1.5703125 0.585937,0 1.054687,-0.46875 1.160156,-0.57421875 l 0.01172,0.0117188 c -0.210938,0.87890625 -0.328125,1.2890625 -0.328125,1.3125 -0.04687,0.0820313 -0.386719,1.07812505 -1.441407,1.07812505 -0.1875,0 -0.5156247,-0.011719 -0.7968747,-0.1054688 0.3046875,-0.09375 0.4101563,-0.3515625 0.4101563,-0.515625 0,-0.1640625 -0.1054688,-0.3515625 -0.375,-0.3515625 -0.2226563,0 -0.5390625,0.1757813 -0.5390625,0.5742188 0,0.4101562 0.3632812,0.609375 1.3242189,0.609375 1.242187,0 1.957031,-0.7734375 2.109375,-1.3710938 z m -1.289062,2.4726562 c -0.05859,0.2578125 -0.292969,0.51562505 -0.503906,0.70312505 -0.210938,0.17578125 -0.527344,0.3515625 -0.808594,0.3515625 -0.503906,0 -0.65625,-0.515625 -0.65625,-0.91406255 0,-0.4804687 0.292969,-1.6523437 0.5625,-2.15625 0.269531,-0.4921875 0.703125,-0.890625 1.113281,-0.890625 0.65625,0 0.796875,0.8085938 0.796875,0.8554688 0,0.046875 -0.01172,0.1054687 -0.02344,0.1523437 z m 0,0"
       style="fill:#000000;fill-opacity:1;fill-rule:nonzero;stroke:none"
       aria-label="m⃗g"
       transform="matrix(1.3333333,0,0,1.3333333,392.084,353.53067)" />
    <path
       id="path29"
       d="M 99.62782,0 V 34.11273"
       style="fill:#808080;fill-opacity:1;fill-rule:nonzero;stroke:#808080;stroke-width:1.19553;stroke-linecap:butt;stroke-linejoin:miter;stroke-miterlimit:10;stroke-dasharray:none;stroke-opacity:1"
       transform="matrix(1.3333333,0,0,-1.3333333,254.024,310.22533)" />
    <path
       id="path30"
       d="M 5.73854,0 C 4.0382,0.31879 1.27522,1.27522 -0.6376,2.39105 v -4.7821 C 1.27522,-1.27522 4.0382,-0.31879 5.73854,0"
       style="fill:#808080;fill-opacity:1;fill-rule:nonzero;stroke:none"
       transform="matrix(0,-1.3333333,-1.3333333,0,386.86109,264.74169)" />
    <path
       id="path31"
       d="m 0.32710156,1.7229922 c -0.0234375,0.1171875 -0.0234375,0.140625 -0.0234375,0.1640625 0,0.140625 0.10546875,0.2695312 0.26953125,0.2695312 0.2109375,0 0.328125,-0.1875 0.3515625,-0.2109375 0.046875,-0.09375 0.37499999,-1.42968746 0.63281249,-2.50781246 0.1992188,0.3984375 0.5273438,0.66796875 0.9960938,0.66796875 1.1601562,0 2.4492187,-1.40624999 2.4492187,-2.88281249 0,-1.0546875 -0.65625,-1.6289063 -1.3828125,-1.6289063 -0.9726562,0 -2.015625,0.9960938 -2.3203125,2.2148438 z M 2.5419453,-0.10513281 c -0.703125,0 -0.8554687,-0.796875 -0.8554687,-0.890625 0,-0.0351563 0.046875,-0.23437499 0.070312,-0.36328129 0.28125,-1.125 0.3867187,-1.4765625 0.5976562,-1.875 0.4335938,-0.7265625 0.9375,-0.9492187 1.2421875,-0.9492187 0.3632813,0 0.6914063,0.2929687 0.6914063,0.9726562 0,0.5507813 -0.2929688,1.6640625 -0.5625,2.15625 -0.328125,0.62109379 -0.8085938,0.94921879 -1.1835933,0.94921879 z M 11.40718,-5.6715391 c 0.480468,-0.7734375 0.902343,-0.8085937 1.277343,-0.8203125 0.117188,-0.011719 0.128907,-0.1875 0.128907,-0.1875 0,-0.082031 -0.05859,-0.1289062 -0.128907,-0.1289062 -0.257812,0 -0.550781,0.035156 -0.820312,0.035156 -0.328125,0 -0.667969,-0.035156 -0.984375,-0.035156 -0.05859,0 -0.1875,0 -0.1875,0.1992187 0,0.1054688 0.08203,0.1171875 0.152344,0.1171875 0.269531,0.011719 0.457031,0.1171875 0.457031,0.328125 0,0.1523438 -0.140625,0.3632813 -0.140625,0.375 L 8.1024922,-0.92544531 7.4228047,-6.1988828 c 0,-0.1640625 0.2226562,-0.2929688 0.6796875,-0.2929688 0.140625,0 0.2578125,0 0.2578125,-0.1992187 0,-0.09375 -0.082031,-0.1171875 -0.140625,-0.1171875 -0.3984375,0 -0.8320313,0.035156 -1.2421875,0.035156 -0.1757813,0 -0.3632813,-0.011719 -0.5390625,-0.011719 -0.1875,0 -0.375,-0.023437 -0.5390625,-0.023437 -0.070312,0 -0.1875,0 -0.1875,0.1992187 0,0.1171875 0.082031,0.1171875 0.2460937,0.1171875 0.5507813,0 0.5625,0.082031 0.5976563,0.3398438 l 0.7851562,6.14062499 c 0.035156,0.19921875 0.070312,0.234375 0.1992188,0.234375 0.1640625,0 0.1992187,-0.0585938 0.28125,-0.1875 z m 6.691406,-0.2578125 c -0.128906,0.1289063 -0.457031,0.4101563 -0.457031,0.5859375 0,0.1054688 0.09375,0.1992188 0.199218,0.1992188 0.08203,0 0.128907,-0.070312 0.1875,-0.1289063 0.117188,-0.140625 0.339844,-0.421875 0.785157,-0.6445312 0.07031,-0.035156 0.164062,-0.09375 0.164062,-0.2109375 0,-0.09375 -0.07031,-0.1523438 -0.140625,-0.1992188 -0.210937,-0.1523437 -0.328125,-0.328125 -0.398437,-0.5625 -0.02344,-0.09375 -0.07031,-0.2226562 -0.199219,-0.2226562 -0.140625,0 -0.199219,0.1289062 -0.199219,0.2109375 0,0.046875 0.07031,0.3632812 0.234375,0.5742187 h -3.363281 c -0.164063,0 -0.339844,0 -0.339844,0.1992188 0,0.1992187 0.175781,0.1992187 0.339844,0.1992187 z m -0.237305,2.1796875 c 0.01172,-0.070312 0.03516,-0.1171875 0.03516,-0.1875 0,-0.1640625 -0.117187,-0.2695312 -0.292968,-0.2695312 -0.09375,0 -0.363282,0.070312 -0.410157,0.4335937 -0.175781,-0.375 -0.527343,-0.6328125 -0.925781,-0.6328125 -1.136719,0 -2.367187,1.3945313 -2.367187,2.8359375 0,0.98437504 0.609375,1.5703125375 1.324218,1.5703125375 0.585938,0 1.054688,-0.4687499975 1.160157,-0.5742187475 l 0.01172,0.0117188 c -0.210937,0.87890625 -0.328125,1.2890625 -0.328125,1.3125 -0.04687,0.0820313 -0.386718,1.07812491 -1.441406,1.07812491 -0.1875,0 -0.515625,-0.011719 -0.796875,-0.1054687 0.304688,-0.09375 0.410156,-0.3515625 0.410156,-0.515625 0,-0.1640625 -0.105468,-0.35156246 -0.375,-0.35156246 -0.222656,0 -0.539062,0.17578116 -0.539062,0.57421866 0,0.4101563 0.363281,0.609375 1.324219,0.609375 1.242187,0 1.957031,-0.7734375 2.109375,-1.37109366 z m -1.289062,2.4726563 c -0.05859,0.2578125 -0.292969,0.51562499 -0.503907,0.70312499 -0.210937,0.17578125 -0.527343,0.3515625 -0.808593,0.3515625 -0.503907,0 -0.65625,-0.515625 -0.65625,-0.91406249 0,-0.4804688 0.292968,-1.6523438 0.5625,-2.15625 0.269531,-0.4921875 0.703125,-0.890625 1.113281,-0.890625 0.65625,0 0.796875,0.8085937 0.796875,0.8554687 0,0.046875 -0.01172,0.1054688 -0.02344,0.1523438 z m 0,0"
       style="fill:#000000;fill-opacity:1;fill-rule:nonzero;stroke:none"
       aria-label="ρV⃗g"
       transform="matrix(1.3333333,0,0,1.3333333,374.66933,255.92533)" />
    <path
       id="path32"
       d="M 74.72087,43.14023 84.30518,26.53978"
       style="fill:#808080;fill-opacity:1;fill-rule:nonzero;stroke:#808080;stroke-width:1.19553;stroke-linecap:butt;stroke-linejoin:miter;stroke-miterlimit:10;stroke-dasharray:none;stroke-opacity:1"
       transform="matrix(1.3333333,0,0,-1.3333333,254.024,310.22533)" />
    <path
       id="path33"
       d="M 5.73854,0 C 4.0382,0.31879 1.27522,1.27522 -0.6376,2.39105 v -4.7821 C 1.27522,-1.27522 4.0382,-0.31879 5.73854,0"
       style="fill:#808080;fill-opacity:1;fill-rule:nonzero;stroke:none"
       transform="matrix(0.66664,1.15468,1.15468,-0.66664,366.43088,274.83896)" />
    <path
       id="path34"
       d="M 5.3435313,-5.93025 C 5.214625,-5.8013437 4.8865,-5.5200937 4.8865,-5.3443125 c 0,0.1054688 0.09375,0.1992188 0.1992188,0.1992188 0.082031,0 0.1289062,-0.070312 0.1875,-0.1289063 0.1171875,-0.140625 0.3398437,-0.421875 0.7851562,-0.6445312 0.070312,-0.035156 0.1640625,-0.09375 0.1640625,-0.2109375 0,-0.09375 -0.070312,-0.1523438 -0.140625,-0.1992188 -0.2109375,-0.1523437 -0.328125,-0.328125 -0.3984375,-0.5625 -0.023437,-0.09375 -0.070312,-0.2226562 -0.1992187,-0.2226562 -0.140625,0 -0.1992188,0.1289062 -0.1992188,0.2109375 0,0.046875 0.070312,0.3632812 0.234375,0.5742187 H 2.1560313 c -0.1640625,0 -0.3398438,0 -0.3398438,0.1992188 0,0.1992187 0.1757813,0.1992187 0.3398438,0.1992187 z m 0.073242,2.6953125 c 0.09375,-0.3984375 0.2695313,-0.7148437 1.0664063,-0.7382812 0.058594,0 0.1757812,-0.011719 0.1757812,-0.1992188 0,-0.011719 0,-0.1171875 -0.1289062,-0.1171875 -0.328125,0 -0.6796875,0.035156 -1.0078125,0.035156 -0.3398438,0 -0.6914063,-0.035156 -1.0195313,-0.035156 -0.058594,0 -0.1757812,0 -0.1757812,0.1992188 0,0.1171875 0.09375,0.1171875 0.1757812,0.1171875 0.5742188,0.011719 0.6796875,0.2109375 0.6796875,0.4335937 0,0.035156 -0.023437,0.1757813 -0.023437,0.2109375 L 4.0339609,1.101 1.8308359,-4.0904062 C 1.7605234,-4.2779062 1.7488047,-4.289625 1.5144297,-4.289625 H 0.17849219 c -0.19921875,0 -0.28125,0 -0.28125,0.1992188 0,0.1171875 0.08203125,0.1171875 0.28125,0.1171875 0.046875,0 0.66796875,0 0.66796875,0.082031 l -1.3359375,5.3554688 c -0.09375,0.3984375 -0.26953125,0.7148437 -1.06640624,0.75 -0.058594,0 -0.1757813,0 -0.1757813,0.1992187 0,0.070312 0.046875,0.1054688 0.1289063,0.1054688 0.3164062,0 0.66796874,-0.035156 0.99609374,-0.035156 0.33984375,0 0.703125,0.035156 1.03125,0.035156 0.046875,0 0.17578125,0 0.17578125,-0.1992188 0,-0.1054687 -0.09375,-0.1054687 -0.19921875,-0.1054687 -0.57421875,-0.023437 -0.65625,-0.2460938 -0.65625,-0.4453125 0,-0.070312 0.0117188,-0.1171875 0.0351563,-0.2226563 L 1.1042734,-3.7154062 c 0.035156,0.058594 0.035156,0.082031 0.082031,0.1757812 l 2.484375,5.8710938 c 0.070312,0.1640625 0.09375,0.1875 0.1875,0.1875 0.1054687,0 0.1054687,-0.035156 0.1640625,-0.2109375 z m 0,0"
       style="fill:#000000;fill-opacity:1;fill-rule:nonzero;stroke:none"
       aria-label="⃗&#10;N"
       transform="matrix(1.3333333,0,0,1.3333333,355.73467,284.532)" />
    <path
       id="path35"
       d="M 124.53477,43.14023 114.95049,26.53978"
       style="fill:#808080;fill-opacity:1;fill-rule:nonzero;stroke:#808080;stroke-width:1.19553;stroke-linecap:butt;stroke-linejoin:miter;stroke-miterlimit:10;stroke-dasharray:none;stroke-opacity:1"
       transform="matrix(1.3333333,0,0,-1.3333333,254.024,310.22533)" />
    <path
       id="path36"
       d="M 5.73854,0 C 4.0382,0.31879 1.27522,1.27522 -0.6376,2.39105 v -4.7821 C 1.27522,-1.27522 4.0382,-0.31879 5.73854,0"
       style="fill:#808080;fill-opacity:1;fill-rule:nonzero;stroke:none"
       transform="matrix(-0.66664,1.15468,1.15468,0.66664,407.29133,274.83896)" />
    <path
       id="path37"
       d="m 5.3425391,-5.93025 c -0.1289063,0.1289063 -0.4570313,0.4101563 -0.4570313,0.5859375 0,0.1054688 0.09375,0.1992188 0.1992188,0.1992188 0.082031,0 0.1289062,-0.070312 0.1875,-0.1289063 0.1171875,-0.140625 0.3398437,-0.421875 0.7851562,-0.6445312 0.070312,-0.035156 0.1640625,-0.09375 0.1640625,-0.2109375 0,-0.09375 -0.070312,-0.1523438 -0.140625,-0.1992188 -0.2109375,-0.1523437 -0.328125,-0.328125 -0.3984375,-0.5625 -0.023437,-0.09375 -0.070312,-0.2226562 -0.1992187,-0.2226562 -0.140625,0 -0.1992188,0.1289062 -0.1992188,0.2109375 0,0.046875 0.070312,0.3632812 0.234375,0.5742187 H 2.1550391 c -0.1640625,0 -0.3398438,0 -0.3398438,0.1992188 0,0.1992187 0.1757813,0.1992187 0.3398438,0.1992187 z m 0.073242,2.6953125 c 0.09375,-0.3984375 0.2695313,-0.7148437 1.0664063,-0.7382812 0.058594,0 0.1757812,-0.011719 0.1757812,-0.1992188 0,-0.011719 0,-0.1171875 -0.1289062,-0.1171875 -0.328125,0 -0.6796875,0.035156 -1.0078125,0.035156 -0.3398438,0 -0.6914063,-0.035156 -1.0195313,-0.035156 -0.058594,0 -0.1757812,0 -0.1757812,0.1992188 0,0.1171875 0.09375,0.1171875 0.1757812,0.1171875 0.5742188,0.011719 0.6796875,0.2109375 0.6796875,0.4335937 0,0.035156 -0.023437,0.1757813 -0.023437,0.2109375 L 4.0329687,1.101 1.8298437,-4.0904062 C 1.7595312,-4.2779062 1.7478125,-4.289625 1.5134375,-4.289625 H 0.1775 c -0.19921875,0 -0.28125,0 -0.28125,0.1992188 0,0.1171875 0.08203125,0.1171875 0.28125,0.1171875 0.046875,0 0.66796875,0 0.66796875,0.082031 l -1.3359375,5.3554688 c -0.09375,0.3984375 -0.26953125,0.7148437 -1.06640625,0.75 -0.058594,0 -0.1757813,0 -0.1757813,0.1992187 0,0.070312 0.046875,0.1054688 0.1289063,0.1054688 0.3164062,0 0.66796875,-0.035156 0.99609375,-0.035156 0.33984375,0 0.703125,0.035156 1.03125,0.035156 0.046875,0 0.17578125,0 0.17578125,-0.1992188 0,-0.1054687 -0.09375,-0.1054687 -0.19921875,-0.1054687 -0.57421875,-0.023437 -0.65625,-0.2460938 -0.65625,-0.4453125 0,-0.070312 0.0117188,-0.1171875 0.0351563,-0.2226563 L 1.1032812,-3.7154064 c 0.035156,0.058594 0.035156,0.082031 0.082031,0.1757812 l 2.4843751,5.8710938 c 0.070312,0.1640625 0.09375,0.1875 0.1875,0.1875 0.1054686,0 0.1054686,-0.035156 0.1640624,-0.2109375 z m 0,0"
       style="fill:#000000;fill-opacity:1;fill-rule:nonzero;stroke:none"
       aria-label="⃗&#10;N"
       transform="matrix(1.3333333,0,0,1.3333333,411.51333,284.532)" />
    <path
       id="path38"
       d="M 149.44174,86.28046 V 67.11206"
       style="fill:#808080;fill-opacity:1;fill-rule:nonzero;stroke:#808080;stroke-width:1.19553;stroke-linecap:butt;stroke-linejoin:miter;stroke-miterlimit:10;stroke-dasharray:none;stroke-opacity:1"
       transform="matrix(1.3333333,0,0,-1.3333333,254.024,310.22533)" />
    <path
       id="path39"
       d="M 5.73854,0 C 4.0382,0.31879 1.27522,1.27522 -0.6376,2.39105 v -4.7821 C 1.27522,-1.27522 4.0382,-0.31879 5.73854,0"
       style="fill:#808080;fill-opacity:1;fill-rule:nonzero;stroke:none"
       transform="matrix(0,1.3333333,1.3333333,0,453.27965,220.74259)" />
    <path
       id="path40"
       d="m 0.87820313,-0.585375 c -0.0351563,0.15234375 -0.09375,0.375 -0.09375,0.421875 0,0.1875 0.140625,0.26953125 0.29296877,0.26953125 0.1171875,0 0.2929687,-0.0703125 0.3632812,-0.26953125 0.011719,-0.0234375 0.1289063,-0.4921875 0.1875,-0.73828125 L 1.8508594,-1.804125 c 0.058594,-0.2226562 0.1171875,-0.4335937 0.1757812,-0.6679687 0.035156,-0.1640625 0.1171875,-0.4570313 0.1289063,-0.4921875 0.140625,-0.3164063 0.6679687,-1.21875 1.6171875,-1.21875 0.4453125,0 0.5390625,0.3632812 0.5390625,0.6914062 0,0.2578125 -0.070312,0.5390625 -0.1523438,0.8320313 l -0.2695312,1.1601562 -0.1992188,0.75 c -0.046875,0.19921875 -0.140625,0.5390625 -0.140625,0.5859375 0,0.1875 0.140625,0.26953125 0.2929688,0.26953125 0.3046875,0 0.375,-0.24609375 0.4453125,-0.5625 0.140625,-0.56249995 0.515625,-2.01562495 0.5976562,-2.40234375 0.035156,-0.1289062 0.5625,-1.3242187 1.6523438,-1.3242187 0.421875,0 0.5390625,0.3398437 0.5390625,0.6914062 0,0.5742188 -0.421875,1.7109375 -0.6210938,2.2382813 -0.09375,0.234375 -0.1289062,0.35156245 -0.1289062,0.5507812 0,0.46875 0.3515625,0.80859375 0.8085937,0.80859375 0.9375,0 1.3125,-1.45312495 1.3125,-1.53515625 0,-0.09375 -0.09375,-0.09375 -0.1171875,-0.09375 -0.1054687,0 -0.1054687,0.023437 -0.1523437,0.1757813 -0.1523438,0.5273437 -0.46875,1.24218745 -1.0195313,1.24218745 -0.1640625,0 -0.234375,-0.10546875 -0.234375,-0.328125 0,-0.2578125 0.082031,-0.4921875 0.1757813,-0.71484375 0.1875,-0.515625 0.609375,-1.6171875 0.609375,-2.1914062 0,-0.6445313 -0.3984375,-1.0664063 -1.1484375,-1.0664063 -0.75,0 -1.2539063,0.4453125 -1.6171875,0.9726563 -0.011719,-0.1289063 -0.046875,-0.46875 -0.328125,-0.7148438 -0.2460938,-0.1992187 -0.5625,-0.2578125 -0.8085938,-0.2578125 -0.9023437,0 -1.3828125,0.6445313 -1.5585937,0.8671875 -0.046875,-0.5625 -0.46875,-0.8671875 -0.9140625,-0.8671875 -0.45703127,0 -0.64453127,0.3867188 -0.73828127,0.5742188 -0.17578125,0.3398437 -0.3046875,0.9375 -0.3046875,0.9609375 0,0.1054687 0.09375,0.1054687 0.1171875,0.1054687 0.09375,0 0.10546875,-0.011719 0.1640625,-0.234375 0.17578125,-0.703125 0.375,-1.1835937 0.72656247,-1.1835937 0.1640625,0 0.3164063,0.082031 0.3164063,0.4570312 0,0.2109375 -0.035156,0.3164063 -0.1640625,0.8320313 z M 13.663359,-5.929125 c -0.128906,0.1289063 -0.457031,0.4101563 -0.457031,0.5859375 0,0.1054688 0.09375,0.1992188 0.199219,0.1992188 0.08203,0 0.128906,-0.070312 0.1875,-0.1289063 0.117187,-0.140625 0.339844,-0.421875 0.785156,-0.6445312 0.07031,-0.035156 0.164063,-0.09375 0.164063,-0.2109375 0,-0.09375 -0.07031,-0.1523438 -0.140625,-0.1992188 -0.210938,-0.1523437 -0.328125,-0.328125 -0.398438,-0.5625 -0.02344,-0.09375 -0.07031,-0.2226562 -0.199219,-0.2226562 -0.140625,0 -0.199218,0.1289062 -0.199218,0.2109375 0,0.046875 0.07031,0.3632812 0.234375,0.5742187 h -3.363282 c -0.164062,0 -0.339843,0 -0.339843,0.1992188 0,0.1992187 0.175781,0.1992187 0.339843,0.1992187 z m -0.228515,2.1796875 c 0.01172,-0.070312 0.03516,-0.1171875 0.03516,-0.1875 0,-0.1640625 -0.117187,-0.2695312 -0.292969,-0.2695312 -0.09375,0 -0.363281,0.070312 -0.410156,0.4335937 -0.175781,-0.375 -0.527344,-0.6328125 -0.925781,-0.6328125 -1.136719,0 -2.3671877,1.3945313 -2.3671877,2.8359375 0,0.984375 0.6093747,1.5703125 1.3242187,1.5703125 0.585938,0 1.054688,-0.46875 1.160156,-0.57421875 L 11.97,-0.5619375 c -0.210937,0.87890625 -0.328125,1.2890625 -0.328125,1.3125 -0.04687,0.0820313 -0.386719,1.078125 -1.441406,1.078125 -0.1875,0 -0.5156252,-0.011719 -0.7968752,-0.1054687 0.3046875,-0.09375 0.4101562,-0.3515625 0.4101562,-0.515625 0,-0.1640625 -0.1054687,-0.35156255 -0.375,-0.35156255 -0.2226562,0 -0.5390625,0.17578125 -0.5390625,0.57421875 0,0.4101563 0.3632813,0.609375 1.3242185,0.609375 1.242188,0 1.957032,-0.7734375 2.109375,-1.37109375 z m -1.289063,2.4726563 c -0.05859,0.2578125 -0.292968,0.51562495 -0.503906,0.70312495 -0.210937,0.17578125 -0.527344,0.3515625 -0.808594,0.3515625 -0.503906,0 -0.65625,-0.515625 -0.65625,-0.91406245 0,-0.4804688 0.292969,-1.6523438 0.5625,-2.15625 0.269532,-0.4921875 0.703125,-0.890625 1.113282,-0.890625 0.65625,0 0.796875,0.8085937 0.796875,0.8554687 0,0.046875 -0.01172,0.1054688 -0.02344,0.1523438 z m 0,0"
       style="fill:#000000;fill-opacity:1;fill-rule:nonzero;stroke:none"
       aria-label="m⃗g"
       transform="matrix(1.3333333,0,0,1.3333333,444.04,236.468)" />
    <path
       id="path41"
       d="m 124.53479,43.14023 9.58431,16.60045"
       style="fill:#ff0000;fill-opacity:1;fill-rule:nonzero;stroke:#ff0000;stroke-width:1.19553;stroke-linecap:butt;stroke-linejoin:miter;stroke-miterlimit:10;stroke-dasharray:none;stroke-opacity:1"
       transform="matrix(1.3333333,0,0,-1.3333333,254.024,310.22533)" />
    <path
       id="path42"
       d="M 5.73854,0 C 4.0382,0.31879 1.27522,1.27522 -0.6376,2.39105 v -4.7821 C 1.27522,-1.27522 4.0382,-0.31879 5.73854,0"
       style="fill:#ff0000;fill-opacity:1;fill-rule:nonzero;stroke:none"
       transform="matrix(0.66664,-1.15468,-1.15468,-0.66664,432.84944,230.57109)" />
    <path
       id="path43"
       d="m 5.3440078,-5.9298984 c -0.1289062,0.1289062 -0.4570312,0.4101562 -0.4570312,0.5859375 0,0.1054687 0.09375,0.1992187 0.1992187,0.1992187 0.082031,0 0.1289063,-0.070312 0.1875,-0.1289062 0.1171875,-0.140625 0.3398438,-0.421875 0.7851563,-0.6445313 0.070312,-0.035156 0.1640625,-0.09375 0.1640625,-0.2109375 0,-0.09375 -0.070312,-0.1523437 -0.140625,-0.1992187 -0.2109375,-0.1523438 -0.328125,-0.328125 -0.3984375,-0.5625 -0.023437,-0.09375 -0.070312,-0.2226563 -0.1992188,-0.2226563 -0.140625,0 -0.1992187,0.1289063 -0.1992187,0.2109375 0,0.046875 0.070312,0.3632813 0.234375,0.5742188 H 2.1565078 c -0.1640625,0 -0.3398437,0 -0.3398437,0.1992187 0,0.1992188 0.1757812,0.1992188 0.3398437,0.1992188 z m 0.073242,2.6953125 c 0.09375,-0.3984375 0.2695312,-0.7148438 1.0664062,-0.7382813 0.058594,0 0.1757813,-0.011719 0.1757813,-0.1992187 0,-0.011719 0,-0.1171875 -0.1289063,-0.1171875 -0.328125,0 -0.6796875,0.035156 -1.0078125,0.035156 -0.3398437,0 -0.6914062,-0.035156 -1.0195312,-0.035156 -0.058594,0 -0.1757813,0 -0.1757813,0.1992187 0,0.1171875 0.09375,0.1171875 0.1757813,0.1171875 0.5742187,0.011719 0.6796875,0.2109375 0.6796875,0.4335938 0,0.035156 -0.023437,0.1757812 -0.023437,0.2109375 l -1.125,4.4296875 -2.203125,-5.1914063 C 1.761,-4.2775547 1.7492812,-4.2892734 1.5149062,-4.2892734 H 0.17896875 c -0.19921875,0 -0.28125,0 -0.28125,0.1992187 0,0.1171875 0.08203125,0.1171875 0.28125,0.1171875 0.046875,0 0.66796875,0 0.66796875,0.082031 L -0.489,1.4646328 c -0.09375,0.3984375 -0.26953125,0.7148438 -1.0664063,0.75 -0.058594,0 -0.1757812,0 -0.1757812,0.1992188 0,0.070312 0.046875,0.1054687 0.1289062,0.1054687 0.3164063,0 0.6679688,-0.035156 0.9960938,-0.035156 0.33984375,0 0.703125,0.035156 1.03125,0.035156 0.046875,0 0.17578125,0 0.17578125,-0.1992187 0,-0.1054688 -0.09375,-0.1054688 -0.19921875,-0.1054688 -0.57421875,-0.023437 -0.65625,-0.2460937 -0.65625,-0.4453125 0,-0.070312 0.0117188,-0.1171875 0.0351563,-0.2226562 L 1.10475,-3.7150547 c 0.035156,0.058594 0.035156,0.082031 0.082031,0.1757813 l 2.484375,5.8710937 c 0.070312,0.1640625 0.09375,0.1875 0.1875,0.1875 0.1054688,0 0.1054688,-0.035156 0.1640625,-0.2109375 z m 0,0"
       style="fill:#ff0000;fill-opacity:1;fill-rule:nonzero;stroke:none"
       aria-label="⃗&#10;N"
       transform="matrix(1.3333333,0,0,1.3333333,422.152,227.012)" />
    <path
       id="path44"
       d="m 174.3487,43.14023 -9.5843,16.60045"
       style="fill:#808080;fill-opacity:1;fill-rule:nonzero;stroke:#808080;stroke-width:1.19553;stroke-linecap:butt;stroke-linejoin:miter;stroke-miterlimit:10;stroke-dasharray:none;stroke-opacity:1"
       transform="matrix(1.3333333,0,0,-1.3333333,254.024,310.22533)" />
    <path
       id="path45"
       d="M 5.73854,0 C 4.0382,0.31879 1.27522,1.27522 -0.6376,2.39105 v -4.7821 C 1.27522,-1.27522 4.0382,-0.31879 5.73854,0"
       style="fill:#808080;fill-opacity:1;fill-rule:nonzero;stroke:none"
       transform="matrix(-0.66664,-1.15468,-1.15468,0.66664,473.70989,230.57109)" />
    <path
       id="path46"
       d="m 5.3450391,-5.9298984 c -0.1289063,0.1289062 -0.4570313,0.4101562 -0.4570313,0.5859375 0,0.1054687 0.09375,0.1992187 0.1992188,0.1992187 0.082031,0 0.1289062,-0.070312 0.1875,-0.1289062 0.1171875,-0.140625 0.3398437,-0.421875 0.7851562,-0.6445313 0.070312,-0.035156 0.1640625,-0.09375 0.1640625,-0.2109375 0,-0.09375 -0.070312,-0.1523437 -0.140625,-0.1992187 -0.2109375,-0.1523438 -0.328125,-0.328125 -0.3984375,-0.5625 -0.023437,-0.09375 -0.070312,-0.2226563 -0.1992187,-0.2226563 -0.140625,0 -0.1992188,0.1289063 -0.1992188,0.2109375 0,0.046875 0.070312,0.3632813 0.234375,0.5742188 H 2.1575391 c -0.1640625,0 -0.3398438,0 -0.3398438,0.1992187 0,0.1992188 0.1757813,0.1992188 0.3398438,0.1992188 z m 0.070312,2.6953125 c 0.09375,-0.3984375 0.2695312,-0.7148438 1.0664062,-0.7382813 0.058594,0 0.1757813,-0.011719 0.1757813,-0.1992187 0,-0.011719 0,-0.1171875 -0.1289063,-0.1171875 -0.328125,0 -0.6796875,0.035156 -1.0078125,0.035156 -0.3398437,0 -0.6914062,-0.035156 -1.0195312,-0.035156 -0.058594,0 -0.1757813,0 -0.1757813,0.1992187 0,0.1171875 0.09375,0.1171875 0.1757813,0.1171875 0.5742187,0.011719 0.6796875,0.2109375 0.6796875,0.4335938 0,0.035156 -0.023437,0.1757812 -0.023437,0.2109375 l -1.125,4.4296875 -2.203125,-5.1914063 c -0.070312,-0.1875 -0.082031,-0.1992187 -0.3164063,-0.1992187 H 0.17707031 c -0.19921875,0 -0.28125,0 -0.28125,0.1992187 0,0.1171875 0.08203125,0.1171875 0.28125,0.1171875 0.046875,0 0.66796875,0 0.66796875,0.082031 l -1.3359375,5.3554687 c -0.09375,0.3984375 -0.26953125,0.7148438 -1.06640626,0.75 -0.058594,0 -0.1757812,0 -0.1757812,0.1992188 0,0.070312 0.046875,0.1054687 0.1289062,0.1054687 0.3164063,0 0.66796876,-0.035156 0.99609376,-0.035156 0.33984375,0 0.703125,0.035156 1.03125,0.035156 0.046875,0 0.17578125,0 0.17578125,-0.1992187 0,-0.1054688 -0.09375,-0.1054688 -0.19921875,-0.1054688 -0.57421875,-0.023437 -0.65625,-0.2460937 -0.65625,-0.4453125 0,-0.070312 0.0117188,-0.1171875 0.0351563,-0.2226562 L 1.1028516,-3.7150547 c 0.035156,0.058594 0.035156,0.082031 0.082031,0.1757813 l 2.484375,5.8710937 c 0.070312,0.1640625 0.09375,0.1875 0.1875,0.1875 0.1054688,0 0.1054688,-0.035156 0.1640625,-0.2109375 z m 0,0"
       style="fill:#000000;fill-opacity:1;fill-rule:nonzero;stroke:none"
       aria-label="⃗&#10;N"
       transform="matrix(1.3333333,0,0,1.3333333,479.26,227.012)" />
    <path
       id="path47"
       d="m 149.44174,86.28046 v 14.1867"
       style="fill:#808080;fill-opacity:1;fill-rule:nonzero;stroke:#808080;stroke-width:1.19553;stroke-linecap:butt;stroke-linejoin:miter;stroke-miterlimit:10;stroke-dasharray:none;stroke-opacity:1"
       transform="matrix(1.3333333,0,0,-1.3333333,254.024,310.22533)" />
    <path
       id="path48"
       d="M 5.73854,0 C 4.0382,0.31879 1.27522,1.27522 -0.6376,2.39105 v -4.7821 C 1.27522,-1.27522 4.0382,-0.31879 5.73854,0"
       style="fill:#808080;fill-opacity:1;fill-rule:nonzero;stroke:none"
       transform="matrix(0,-1.3333333,-1.3333333,0,453.27965,176.26912)" />
    <g
       id="g48"
       aria-label="ρV⃗g/2"
       transform="matrix(1.3333333,0,0,1.3333333,458.50133,171.94)">
      <path
         id="path49"
         d="m 0.327125,1.7237109 c -0.0234375,0.1171875 -0.0234375,0.140625 -0.0234375,0.1640625 0,0.140625 0.10546875,0.2695313 0.26953125,0.2695313 0.2109375,0 0.328125,-0.1875 0.3515625,-0.2109375 0.046875,-0.09375 0.37499995,-1.42968751 0.63281245,-2.50781251 0.1992188,0.3984375 0.5273438,0.66796875 0.9960938,0.66796875 1.1601562,0 2.4492187,-1.40625004 2.4492187,-2.88281254 0,-1.0546875 -0.65625,-1.6289062 -1.3828125,-1.6289062 -0.9726562,0 -2.015625,0.9960937 -2.3203125,2.2148437 z m 2.2148437,-1.82812496 c -0.703125,0 -0.8554687,-0.796875 -0.8554687,-0.890625 0,-0.0351562 0.046875,-0.23437504 0.070312,-0.36328124 0.28125,-1.125 0.3867187,-1.4765625 0.5976562,-1.875 0.4335938,-0.7265625 0.9375,-0.9492188 1.2421875,-0.9492188 0.3632813,0 0.6914063,0.2929688 0.6914063,0.9726563 0,0.5507812 -0.2929688,1.6640625 -0.5625,2.15625 -0.328125,0.62109374 -0.8085938,0.94921874 -1.1835933,0.94921874 z M 11.407203,-5.6708203 c 0.480469,-0.7734375 0.902344,-0.8085938 1.277344,-0.8203125 0.117187,-0.011719 0.128906,-0.1875 0.128906,-0.1875 0,-0.082031 -0.05859,-0.1289063 -0.128906,-0.1289063 -0.257813,0 -0.550781,0.035156 -0.820313,0.035156 -0.328125,0 -0.667968,-0.035156 -0.984375,-0.035156 -0.05859,0 -0.1875,0 -0.1875,0.1992188 0,0.1054687 0.08203,0.1171875 0.152344,0.1171875 0.269531,0.011719 0.457031,0.1171875 0.457031,0.328125 0,0.1523437 -0.140625,0.3632812 -0.140625,0.375 L 8.1025156,-0.92472656 7.4228281,-6.1981641 c 0,-0.1640625 0.2226563,-0.2929687 0.6796875,-0.2929687 0.140625,0 0.2578125,0 0.2578125,-0.1992188 0,-0.09375 -0.082031,-0.1171875 -0.140625,-0.1171875 -0.3984375,0 -0.8320312,0.035156 -1.2421875,0.035156 -0.1757812,0 -0.3632812,-0.011719 -0.5390625,-0.011719 -0.1875,0 -0.375,-0.023437 -0.5390625,-0.023437 -0.070312,0 -0.1875,0 -0.1875,0.1992188 0,0.1171875 0.082031,0.1171875 0.2460938,0.1171875 0.5507812,0 0.5625,0.082031 0.5976562,0.3398437 l 0.7851563,6.14062504 c 0.035156,0.19921875 0.070312,0.234375 0.1992187,0.234375 0.1640625,0 0.1992188,-0.0585938 0.28125,-0.1875 z m 6.691406,-0.2578125 c -0.128906,0.1289062 -0.457031,0.4101562 -0.457031,0.5859375 0,0.1054687 0.09375,0.1992187 0.199219,0.1992187 0.08203,0 0.128906,-0.070312 0.1875,-0.1289062 0.117187,-0.140625 0.339844,-0.421875 0.785156,-0.6445313 0.07031,-0.035156 0.164063,-0.09375 0.164063,-0.2109375 0,-0.09375 -0.07031,-0.1523437 -0.140625,-0.1992187 -0.210938,-0.1523438 -0.328125,-0.328125 -0.398438,-0.5625 -0.02344,-0.09375 -0.07031,-0.2226563 -0.199219,-0.2226563 -0.140625,0 -0.199218,0.1289063 -0.199218,0.2109375 0,0.046875 0.07031,0.3632813 0.234375,0.5742188 h -3.363282 c -0.164062,0 -0.339843,0 -0.339843,0.1992187 0,0.1992188 0.175781,0.1992188 0.339843,0.1992188 z m -0.237304,2.1796875 c 0.01172,-0.070312 0.03516,-0.1171875 0.03516,-0.1875 0,-0.1640625 -0.117188,-0.2695313 -0.292969,-0.2695313 -0.09375,0 -0.363281,0.070312 -0.410156,0.4335938 -0.175781,-0.375 -0.527344,-0.6328125 -0.925781,-0.6328125 -1.136719,0 -2.367188,1.3945312 -2.367188,2.8359375 0,0.98437499 0.609375,1.57031249 1.324219,1.57031249 0.585937,0 1.054687,-0.46875 1.160156,-0.57421875 l 0.01172,0.0117188 c -0.210938,0.87890625 -0.328125,1.2890625 -0.328125,1.3125 -0.04687,0.0820313 -0.386719,1.07812506 -1.441406,1.07812506 -0.1875,0 -0.515625,-0.011719 -0.796875,-0.1054688 0.304687,-0.09375 0.410156,-0.3515625 0.410156,-0.515625 0,-0.1640625 -0.105469,-0.35156251 -0.375,-0.35156251 -0.222656,0 -0.539063,0.17578131 -0.539063,0.57421881 0,0.4101562 0.363282,0.609375 1.324219,0.609375 1.242188,0 1.957031,-0.7734375 2.109375,-1.37109381 z m -1.289063,2.4726562 c -0.05859,0.2578125 -0.292969,0.51562504 -0.503906,0.70312504 -0.210938,0.17578125 -0.527344,0.3515625 -0.808594,0.3515625 -0.503906,0 -0.65625,-0.515625 -0.65625,-0.91406254 0,-0.4804687 0.292969,-1.6523437 0.5625,-2.15625 0.269531,-0.4921875 0.703125,-0.890625 1.113281,-0.890625 0.65625,0 0.796875,0.8085938 0.796875,0.8554688 0,0.046875 -0.01172,0.1054687 -0.02344,0.1523437 z m 6.082031,-5.8125 c 0.04687,-0.1289062 0.04687,-0.1757812 0.04687,-0.1875 0,-0.1054687 -0.08203,-0.1992187 -0.199218,-0.1992187 -0.07031,0 -0.128907,0.035156 -0.164063,0.09375 l -3.457031,9.4921875 c -0.04687,0.1289062 -0.04687,0.1757812 -0.04687,0.1875 0,0.1054687 0.08203,0.1992187 0.199219,0.1992187 0.128906,0 0.152343,-0.070312 0.210937,-0.2460937 z m 0,0"
         style="fill:#000000;fill-opacity:1;fill-rule:nonzero;stroke:none" />
      <path
         id="path50"
         d="m 24.532203,-0.76066406 1.054688,-1.03125004 c 1.558593,-1.3710937 2.15625,-1.9101562 2.15625,-2.90625 0,-1.1367187 -0.902344,-1.9335937 -2.121094,-1.9335937 -1.125,0 -1.851563,0.9140625 -1.851563,1.8046875 0,0.5507812 0.492188,0.5507812 0.527344,0.5507812 0.164063,0 0.515625,-0.1171875 0.515625,-0.5273437 0,-0.2578125 -0.1875,-0.515625 -0.527344,-0.515625 -0.08203,0 -0.105468,0 -0.128906,0.011719 0.222656,-0.6445312 0.761719,-1.0195312 1.335938,-1.0195312 0.914062,0 1.335937,0.8085937 1.335937,1.6289062 0,0.796875 -0.492187,1.5820313 -1.042969,2.203125 l -1.910156,2.13281254 c -0.105469,0.10546875 -0.105469,0.12890625 -0.105469,0.36328125 h 3.691407 L 27.743141,-1.73332 h -0.257813 c -0.04687,0.3046875 -0.117187,0.73828124 -0.210937,0.89062499 -0.07031,0.0820313 -0.726563,0.0820313 -0.949219,0.0820313 z m 0,0"
         style="fill:#000000;fill-opacity:1;fill-rule:nonzero;stroke:none" />
    </g>
    <path
       id="path51"
       d="m 100.62416,0 c 0,0.55026 -0.44606,0.99632 -0.99634,0.99632 -0.55026,0 -0.99634,-0.44606 -0.99634,-0.99632 0,-0.55026 0.44608,-0.99632 0.99634,-0.99632 0.55028,0 0.99634,0.44606 0.99634,0.99632 z"
       style="fill:#000000;fill-opacity:1;fill-rule:nonzero;stroke:#000000;stroke-width:0.3985;stroke-linecap:butt;stroke-linejoin:miter;stroke-miterlimit:10;stroke-dasharray:none;stroke-opacity:1"
       transform="matrix(1.3333333,0,0,-1.3333333,254.024,310.22533)" />
    <path
       id="path52"
       d="m 200.252,0 c 0,0.55026 -0.44606,0.99632 -0.99634,0.99632 -0.55026,0 -0.99634,-0.44606 -0.99634,-0.99632 0,-0.55026 0.44608,-0.99632 0.99634,-0.99632 0.55028,0 0.99634,0.44606 0.99634,0.99632 z"
       style="fill:#000000;fill-opacity:1;fill-rule:nonzero;stroke:#000000;stroke-width:0.3985;stroke-linecap:butt;stroke-linejoin:miter;stroke-miterlimit:10;stroke-dasharray:none;stroke-opacity:1"
       transform="matrix(1.3333333,0,0,-1.3333333,254.024,310.22533)" />
    <path
       id="path53"
       d="m 150.43808,86.28046 c 0,0.55027 -0.44606,0.99634 -0.99634,0.99634 -0.55026,0 -0.99634,-0.44607 -0.99634,-0.99634 0,-0.55026 0.44608,-0.99634 0.99634,-0.99634 0.55028,0 0.99634,0.44608 0.99634,0.99634 z"
       style="fill:#000000;fill-opacity:1;fill-rule:nonzero;stroke:#000000;stroke-width:0.3985;stroke-linecap:butt;stroke-linejoin:miter;stroke-miterlimit:10;stroke-dasharray:none;stroke-opacity:1"
       transform="matrix(1.3333333,0,0,-1.3333333,254.024,310.22533)" />
    <path
       id="path54"
       d="m 50.81024,86.28046 c 0,0.55027 -0.44606,0.99634 -0.99634,0.99634 -0.55026,0 -0.99633,-0.44607 -0.99633,-0.99634 0,-0.55026 0.44607,-0.99634 0.99633,-0.99634 0.55028,0 0.99634,0.44608 0.99634,0.99634 z"
       style="fill:#000000;fill-opacity:1;fill-rule:nonzero;stroke:#000000;stroke-width:0.3985;stroke-linecap:butt;stroke-linejoin:miter;stroke-miterlimit:10;stroke-dasharray:none;stroke-opacity:1"
       transform="matrix(1.3333333,0,0,-1.3333333,254.024,310.22533)" />
    <path
       id="path55"
       d="m 0,-49.8139 v 9.20576"
       style="fill:#808080;fill-opacity:1;fill-rule:nonzero;stroke:#808080;stroke-width:1.19553;stroke-linecap:butt;stroke-linejoin:miter;stroke-miterlimit:10;stroke-dasharray:none;stroke-opacity:1"
       transform="matrix(1.3333333,0,0,-1.3333333,254.024,310.22533)" />
    <path
       id="path56"
       d="M 5.73854,0 C 4.0382,0.31879 1.27522,1.27522 -0.6376,2.39105 v -4.7821 C 1.27522,-1.27522 4.0382,-0.31879 5.73854,0"
       style="fill:#808080;fill-opacity:1;fill-rule:nonzero;stroke:none"
       transform="matrix(0,-1.3333333,-1.3333333,0,254.024,364.36952)" />
    <g
       id="g56"
       aria-label="2&#10;⃗&#10;F"
       transform="matrix(1.3333333,0,0,1.3333333,231.77067,363.14133)">
      <path
         id="path57"
         d="M 1.2647734,-0.76225 2.3194609,-1.7935 c 1.5585938,-1.3710937 2.15625,-1.9101562 2.15625,-2.90625 0,-1.1367187 -0.9023437,-1.9335937 -2.1210937,-1.9335937 -1.125,0 -1.85156251,0.9140625 -1.85156251,1.8046875 0,0.5507812 0.4921875,0.5507812 0.52734371,0.5507812 0.1640625,0 0.515625,-0.1171875 0.515625,-0.5273437 0,-0.2578125 -0.1875,-0.515625 -0.5273437,-0.515625 -0.0820313,0 -0.10546876,0 -0.12890626,0.011719 0.22265626,-0.6445312 0.76171876,-1.0195312 1.33593746,-1.0195312 0.9140625,0 1.3359375,0.8085937 1.3359375,1.6289062 0,0.796875 -0.4921875,1.5820313 -1.0429687,2.203125 L 0.60852344,-0.3638125 C 0.50305469,-0.25834375 0.50305469,-0.23490625 0.50305469,-5.3125e-4 H 4.1944609 l 0.28125,-1.73437495 H 4.2178984 C 4.1710234,-1.4302187 4.1007109,-0.996625 4.0069609,-0.84428125 3.9366484,-0.76225 3.2803984,-0.76225 3.0577422,-0.76225 Z m 0,0"
         style="fill:#000000;fill-opacity:1;fill-rule:nonzero;stroke:none" />
      <path
         id="path58"
         d="m 11.79407,-8.4468203 c -0.128906,0.1289062 -0.457031,0.4101562 -0.457031,0.5859375 0,0.1054687 0.09375,0.1992187 0.199219,0.1992187 0.08203,0 0.128906,-0.070312 0.1875,-0.1289062 0.117187,-0.140625 0.339844,-0.421875 0.785156,-0.6445313 0.07031,-0.035156 0.164063,-0.09375 0.164063,-0.2109375 0,-0.09375 -0.07031,-0.1523437 -0.140625,-0.1992187 -0.210938,-0.1523438 -0.328125,-0.328125 -0.398438,-0.5625 -0.02344,-0.09375 -0.07031,-0.2226563 -0.199219,-0.2226563 -0.140625,0 -0.199218,0.1289063 -0.199218,0.2109375 0,0.046875 0.07031,0.3632813 0.234375,0.5742188 H 8.6065703 c -0.1640625,0 -0.3398437,0 -0.3398437,0.1992187 0,0.1992188 0.1757812,0.1992188 0.3398437,0.1992188 z m -3.7880856,5.2119141 h 0.9609375 c 0.75,0 0.8320312,0.1523437 0.8320312,0.4453125 0,0.070312 0,0.1875 -0.070312,0.4921875 -0.023437,0.046875 -0.035156,0.082031 -0.035156,0.1054687 0,0.082031 0.058594,0.1171875 0.1171875,0.1171875 0.1054687,0 0.1054687,-0.023437 0.1523437,-0.2109375 l 0.5507817,-2.15625 c 0.02344,-0.1054687 0.02344,-0.1289062 0.02344,-0.1640625 0,-0.011719 -0.01172,-0.1054687 -0.117187,-0.1054687 -0.09375,0 -0.105469,0.046875 -0.152344,0.2109375 -0.199219,0.7734375 -0.4335939,0.9492187 -1.2773439,0.9492187 H 8.0762969 l 0.6445312,-2.53125 c 0.082031,-0.3398437 0.09375,-0.3867187 0.5390625,-0.3867187 h 1.3125004 c 1.21875,0 1.453125,0.328125 1.453125,1.1015625 0,0.2226562 0,0.2695312 -0.03516,0.5390625 -0.01172,0.1289062 -0.01172,0.140625 -0.01172,0.1757812 0,0.046875 0.02344,0.1171875 0.117187,0.1171875 0.105469,0 0.117188,-0.058594 0.140625,-0.2460937 l 0.199219,-1.7226563 c 0.02344,-0.2695312 -0.02344,-0.2695312 -0.269531,-0.2695312 H 7.2794219 c -0.1992188,0 -0.2929688,0 -0.2929688,0.1992187 0,0.1054688 0.09375,0.1054688 0.28125,0.1054688 0.3632813,0 0.6445313,0 0.6445313,0.1875 0,0.035156 0,0.058594 -0.046875,0.234375 l -1.3242188,5.27343745 c -0.09375,0.38671875 -0.1171875,0.46875 -0.9023437,0.46875 -0.1640625,0 -0.28125,0 -0.28125,0.1875 0,0.1171875 0.1289062,0.1171875 0.1523437,0.1171875 0.2929688,0 1.03125,-0.03515625 1.3125,-0.03515625 0.328125,0 1.1601563,0.03515625 1.4882813,0.03515625 0.09375,0 0.2109375,0 0.2109375,-0.1875 0,-0.0820312 -0.058594,-0.10546875 -0.058594,-0.1171875 -0.035156,0 -0.058594,0 -0.28125,0 -0.2226562,0 -0.2695312,0 -0.515625,-0.0234375 -0.2929687,-0.0351563 -0.328125,-0.0703125 -0.328125,-0.19921875 0,-0.0234375 0,-0.0820313 0.046875,-0.234375 z m 0,0"
         style="fill:#000000;fill-opacity:1;fill-rule:nonzero;stroke:none" />
    </g>
    <path
       id="path59"
       d="m 99.62782,-49.8139 v 9.20576"
       style="fill:#808080;fill-opacity:1;fill-rule:nonzero;stroke:#808080;stroke-width:1.19553;stroke-linecap:butt;stroke-linejoin:miter;stroke-miterlimit:10;stroke-dasharray:none;stroke-opacity:1"
       transform="matrix(1.3333333,0,0,-1.3333333,254.024,310.22533)" />
    <path
       id="path60"
       d="M 5.73854,0 C 4.0382,0.31879 1.27522,1.27522 -0.6376,2.39105 v -4.7821 C 1.27522,-1.27522 4.0382,-0.31879 5.73854,0"
       style="fill:#808080;fill-opacity:1;fill-rule:nonzero;stroke:none"
       transform="matrix(0,-1.3333333,-1.3333333,0,386.86109,364.36952)" />
    <g
       id="g60"
       aria-label="2&#10;⃗&#10;F"
       transform="matrix(1.3333333,0,0,1.3333333,364.60667,363.14133)">
      <path
         id="path61"
         d="M 1.2647266,-0.76225 2.3194141,-1.7935 c 1.5585937,-1.3710937 2.15625,-1.9101562 2.15625,-2.90625 0,-1.1367187 -0.9023438,-1.9335937 -2.1210938,-1.9335937 -1.125,0 -1.85156249,0.9140625 -1.85156249,1.8046875 0,0.5507812 0.4921875,0.5507812 0.52734379,0.5507812 0.1640625,0 0.515625,-0.1171875 0.515625,-0.5273437 0,-0.2578125 -0.1875,-0.515625 -0.5273438,-0.515625 -0.0820312,0 -0.10546874,0 -0.12890624,0.011719 0.22265624,-0.6445312 0.76171874,-1.0195312 1.33593754,-1.0195312 0.9140625,0 1.3359375,0.8085937 1.3359375,1.6289062 0,0.796875 -0.4921875,1.5820313 -1.0429688,2.203125 L 0.60847656,-0.3638125 C 0.50300781,-0.25834375 0.50300781,-0.23490625 0.50300781,-5.3125e-4 H 4.1944141 l 0.28125,-1.73437495 H 4.2178516 C 4.1709766,-1.4302187 4.1006641,-0.996625 4.0069141,-0.84428125 3.9366016,-0.76225 3.2803516,-0.76225 3.0576953,-0.76225 Z m 0,0"
         style="fill:#000000;fill-opacity:1;fill-rule:nonzero;stroke:none" />
      <path
         id="path62"
         d="m 11.794023,-8.4468203 c -0.128906,0.1289062 -0.457031,0.4101562 -0.457031,0.5859375 0,0.1054687 0.09375,0.1992187 0.199219,0.1992187 0.08203,0 0.128906,-0.070312 0.1875,-0.1289062 0.117187,-0.140625 0.339844,-0.421875 0.785156,-0.6445313 0.07031,-0.035156 0.164063,-0.09375 0.164063,-0.2109375 0,-0.09375 -0.07031,-0.1523437 -0.140625,-0.1992187 -0.210938,-0.1523438 -0.328125,-0.328125 -0.398438,-0.5625 -0.02344,-0.09375 -0.07031,-0.2226563 -0.199219,-0.2226563 -0.140625,0 -0.199218,0.1289063 -0.199218,0.2109375 0,0.046875 0.07031,0.3632813 0.234375,0.5742188 H 8.6065234 c -0.1640625,0 -0.3398437,0 -0.3398437,0.1992187 0,0.1992188 0.1757812,0.1992188 0.3398437,0.1992188 z m -3.7910152,5.2119141 h 0.9609375 c 0.75,0 0.8320313,0.1523437 0.8320313,0.4453125 0,0.070312 0,0.1875 -0.070312,0.4921875 -0.023437,0.046875 -0.035156,0.082031 -0.035156,0.1054687 0,0.082031 0.058594,0.1171875 0.1171875,0.1171875 0.1054688,0 0.1054688,-0.023437 0.1523438,-0.2109375 l 0.5507811,-2.15625 c 0.02344,-0.1054687 0.02344,-0.1289062 0.02344,-0.1640625 0,-0.011719 -0.01172,-0.1054687 -0.117188,-0.1054687 -0.09375,0 -0.105468,0.046875 -0.152343,0.2109375 -0.199219,0.7734375 -0.4335944,0.9492187 -1.2773444,0.9492187 H 8.0733203 l 0.6445313,-2.53125 c 0.082031,-0.3398437 0.09375,-0.3867187 0.5390625,-0.3867187 h 1.3124999 c 1.21875,0 1.453125,0.328125 1.453125,1.1015625 0,0.2226562 0,0.2695312 -0.03516,0.5390625 -0.01172,0.1289062 -0.01172,0.140625 -0.01172,0.1757812 0,0.046875 0.02344,0.1171875 0.117188,0.1171875 0.105468,0 0.117187,-0.058594 0.140625,-0.2460937 l 0.199218,-1.7226563 c 0.02344,-0.2695312 -0.02344,-0.2695312 -0.269531,-0.2695312 H 7.2764453 c -0.1992187,0 -0.2929687,0 -0.2929687,0.1992187 0,0.1054688 0.09375,0.1054688 0.28125,0.1054688 0.3632812,0 0.6445312,0 0.6445312,0.1875 0,0.035156 0,0.058594 -0.046875,0.234375 l -1.3242187,5.27343745 c -0.09375,0.38671875 -0.1171875,0.46875 -0.9023438,0.46875 -0.1640625,0 -0.28125,0 -0.28125,0.1875 0,0.1171875 0.1289063,0.1171875 0.1523438,0.1171875 0.2929687,0 1.03125,-0.03515625 1.3125,-0.03515625 0.328125,0 1.1601562,0.03515625 1.4882812,0.03515625 0.09375,0 0.2109375,0 0.2109375,-0.1875 0,-0.0820312 -0.058594,-0.10546875 -0.058594,-0.1171875 -0.035156,0 -0.058594,0 -0.28125,0 -0.2226563,0 -0.2695313,0 -0.515625,-0.0234375 -0.2929688,-0.0351563 -0.328125,-0.0703125 -0.328125,-0.19921875 0,-0.0234375 0,-0.0820313 0.046875,-0.234375 z m 0,0"
         style="fill:#000000;fill-opacity:1;fill-rule:nonzero;stroke:none" />
    </g>
    <path
       id="path63"
       d="m 199.25566,-49.8139 v 9.20576"
       style="fill:#808080;fill-opacity:1;fill-rule:nonzero;stroke:#808080;stroke-width:1.19553;stroke-linecap:butt;stroke-linejoin:miter;stroke-miterlimit:10;stroke-dasharray:none;stroke-opacity:1"
       transform="matrix(1.3333333,0,0,-1.3333333,254.024,310.22533)" />
    <path
       id="path64"
       d="M 5.73854,0 C 4.0382,0.31879 1.27522,1.27522 -0.6376,2.39105 v -4.7821 C 1.27522,-1.27522 4.0382,-0.31879 5.73854,0"
       style="fill:#808080;fill-opacity:1;fill-rule:nonzero;stroke:none"
       transform="matrix(0,-1.3333333,-1.3333333,0,519.69821,364.36952)" />
    <g
       id="g64"
       aria-label="2&#10;⃗&#10;F"
       transform="matrix(1.3333333,0,0,1.3333333,497.44133,363.14133)">
      <path
         id="path65"
         d="M 1.2656797,-0.76225 2.3203672,-1.7935 c 1.5585937,-1.3710937 2.15625,-1.9101562 2.15625,-2.90625 0,-1.1367187 -0.9023438,-1.9335937 -2.1210938,-1.9335937 -1.125,0 -1.85156246,0.9140625 -1.85156246,1.8046875 0,0.5507812 0.4921875,0.5507812 0.52734376,0.5507812 0.1640625,0 0.515625,-0.1171875 0.515625,-0.5273437 0,-0.2578125 -0.1875,-0.515625 -0.5273438,-0.515625 -0.0820312,0 -0.10546871,0 -0.12890621,0.011719 0.22265621,-0.6445312 0.76171871,-1.0195312 1.33593751,-1.0195312 0.9140625,0 1.3359375,0.8085937 1.3359375,1.6289062 0,0.796875 -0.4921875,1.5820313 -1.0429688,2.203125 L 0.60942969,-0.3638125 C 0.50396094,-0.25834375 0.50396094,-0.23490625 0.50396094,-5.3125e-4 H 4.1953672 l 0.28125,-1.73437495 H 4.2188047 C 4.1719297,-1.4302187 4.1016172,-0.996625 4.0078672,-0.84428125 3.9375547,-0.76225 3.2813047,-0.76225 3.0586484,-0.76225 Z m 0,0"
         style="fill:#000000;fill-opacity:1;fill-rule:nonzero;stroke:none" />
      <path
         id="path66"
         d="m 11.794977,-8.4468203 c -0.128907,0.1289062 -0.457032,0.4101562 -0.457032,0.5859375 0,0.1054687 0.09375,0.1992187 0.199219,0.1992187 0.08203,0 0.128906,-0.070312 0.1875,-0.1289062 0.117188,-0.140625 0.339844,-0.421875 0.785156,-0.6445313 0.07031,-0.035156 0.164063,-0.09375 0.164063,-0.2109375 0,-0.09375 -0.07031,-0.1523437 -0.140625,-0.1992187 -0.210938,-0.1523438 -0.328125,-0.328125 -0.398438,-0.5625 -0.02344,-0.09375 -0.07031,-0.2226563 -0.199218,-0.2226563 -0.140625,0 -0.199219,0.1289063 -0.199219,0.2109375 0,0.046875 0.07031,0.3632813 0.234375,0.5742188 H 8.6074766 c -0.1640625,0 -0.3398438,0 -0.3398438,0.1992187 0,0.1992188 0.1757813,0.1992188 0.3398438,0.1992188 z m -3.7880864,5.2119141 h 0.9609375 c 0.75,0 0.8320313,0.1523437 0.8320313,0.4453125 0,0.070312 0,0.1875 -0.070312,0.4921875 -0.023437,0.046875 -0.035156,0.082031 -0.035156,0.1054687 0,0.082031 0.058594,0.1171875 0.1171875,0.1171875 0.1054688,0 0.1054688,-0.023437 0.1523438,-0.2109375 l 0.5507813,-2.15625 c 0.02344,-0.1054687 0.02344,-0.1289062 0.02344,-0.1640625 0,-0.011719 -0.01172,-0.1054687 -0.117188,-0.1054687 -0.09375,0 -0.105469,0.046875 -0.152344,0.2109375 -0.199218,0.7734375 -0.4335936,0.9492187 -1.2773436,0.9492187 H 8.0772031 l 0.6445313,-2.53125 c 0.082031,-0.3398437 0.09375,-0.3867187 0.5390625,-0.3867187 h 1.3125001 c 1.21875,0 1.453125,0.328125 1.453125,1.1015625 0,0.2226562 0,0.2695312 -0.03516,0.5390625 -0.01172,0.1289062 -0.01172,0.140625 -0.01172,0.1757812 0,0.046875 0.02344,0.1171875 0.117187,0.1171875 0.105469,0 0.117188,-0.058594 0.140625,-0.2460937 l 0.199219,-1.7226563 c 0.02344,-0.2695312 -0.02344,-0.2695312 -0.269531,-0.2695312 H 7.2803281 c -0.1992187,0 -0.2929687,0 -0.2929687,0.1992187 0,0.1054688 0.09375,0.1054688 0.28125,0.1054688 0.3632812,0 0.6445312,0 0.6445312,0.1875 0,0.035156 0,0.058594 -0.046875,0.234375 l -1.3242187,5.27343745 c -0.09375,0.38671875 -0.1171875,0.46875 -0.9023438,0.46875 -0.1640625,0 -0.28125,0 -0.28125,0.1875 0,0.1171875 0.1289063,0.1171875 0.1523438,0.1171875 0.2929687,0 1.03125,-0.03515625 1.3125,-0.03515625 0.328125,0 1.1601562,0.03515625 1.4882812,0.03515625 0.09375,0 0.2109375,0 0.2109375,-0.1875 0,-0.0820312 -0.058594,-0.10546875 -0.058594,-0.1171875 -0.035156,0 -0.058594,0 -0.28125,0 -0.2226563,0 -0.2695313,0 -0.515625,-0.0234375 -0.2929688,-0.0351563 -0.328125,-0.0703125 -0.328125,-0.19921875 0,-0.0234375 0,-0.0820313 0.046875,-0.234375 z m 0,0"
         style="fill:#000000;fill-opacity:1;fill-rule:nonzero;stroke:none" />
    </g>
    <path
       id="path67"
       d="m 298.8835,-49.8139 v 9.20576"
       style="fill:#808080;fill-opacity:1;fill-rule:nonzero;stroke:#808080;stroke-width:1.19553;stroke-linecap:butt;stroke-linejoin:miter;stroke-miterlimit:10;stroke-dasharray:none;stroke-opacity:1"
       transform="matrix(1.3333333,0,0,-1.3333333,254.024,310.22533)" />
    <path
       id="path68"
       d="M 5.73854,0 C 4.0382,0.31879 1.27522,1.27522 -0.6376,2.39105 v -4.7821 C 1.27522,-1.27522 4.0382,-0.31879 5.73854,0"
       style="fill:#808080;fill-opacity:1;fill-rule:nonzero;stroke:none"
       transform="matrix(0,-1.3333333,-1.3333333,0,652.53533,364.36952)" />
    <g
       id="g68"
       aria-label="2&#10;⃗&#10;F"
       transform="matrix(1.3333333,0,0,1.3333333,630.27733,363.14133)">
      <path
         id="path69"
         d="M 1.2656328,-0.76225 2.3203203,-1.7935 c 1.5585938,-1.3710937 2.15625,-1.9101562 2.15625,-2.90625 0,-1.1367187 -0.9023437,-1.9335937 -2.1210937,-1.9335937 -1.125,0 -1.85156254,0.9140625 -1.85156254,1.8046875 0,0.5507812 0.4921875,0.5507812 0.52734374,0.5507812 0.1640625,0 0.515625,-0.1171875 0.515625,-0.5273437 0,-0.2578125 -0.1875,-0.515625 -0.5273437,-0.515625 -0.0820313,0 -0.10546879,0 -0.12890629,0.011719 0.22265629,-0.6445312 0.76171879,-1.0195312 1.33593749,-1.0195312 0.9140625,0 1.3359375,0.8085937 1.3359375,1.6289062 0,0.796875 -0.4921875,1.5820313 -1.0429687,2.203125 L 0.60938281,-0.3638125 C 0.50391406,-0.25834375 0.50391406,-0.23490625 0.50391406,-5.3125e-4 H 4.1953203 l 0.28125,-1.73437495 H 4.2187578 C 4.1718828,-1.4302187 4.1015703,-0.996625 4.0078203,-0.84428125 3.9375078,-0.76225 3.2812578,-0.76225 3.0586016,-0.76225 Z m 0,0"
         style="fill:#000000;fill-opacity:1;fill-rule:nonzero;stroke:none" />
      <path
         id="path70"
         d="m 11.79493,-8.4468203 c -0.128907,0.1289062 -0.457032,0.4101562 -0.457032,0.5859375 0,0.1054687 0.09375,0.1992187 0.199219,0.1992187 0.08203,0 0.128906,-0.070312 0.1875,-0.1289062 0.117188,-0.140625 0.339844,-0.421875 0.785156,-0.6445313 0.07031,-0.035156 0.164063,-0.09375 0.164063,-0.2109375 0,-0.09375 -0.07031,-0.1523437 -0.140625,-0.1992187 -0.210938,-0.1523438 -0.328125,-0.328125 -0.398438,-0.5625 -0.02344,-0.09375 -0.07031,-0.2226563 -0.199218,-0.2226563 -0.140625,0 -0.199219,0.1289063 -0.199219,0.2109375 0,0.046875 0.07031,0.3632813 0.234375,0.5742188 H 8.6074297 c -0.1640625,0 -0.3398438,0 -0.3398438,0.1992187 0,0.1992188 0.1757813,0.1992188 0.3398438,0.1992188 z m -3.7910159,5.2119141 h 0.9609375 c 0.75,0 0.8320312,0.1523437 0.8320312,0.4453125 0,0.070312 0,0.1875 -0.070312,0.4921875 -0.023437,0.046875 -0.035156,0.082031 -0.035156,0.1054687 0,0.082031 0.058594,0.1171875 0.1171875,0.1171875 0.1054687,0 0.1054687,-0.023437 0.1523437,-0.2109375 l 0.550782,-2.15625 c 0.02344,-0.1054687 0.02344,-0.1289062 0.02344,-0.1640625 0,-0.011719 -0.01172,-0.1054687 -0.117187,-0.1054687 -0.09375,0 -0.105469,0.046875 -0.152344,0.2109375 -0.199219,0.7734375 -0.4335942,0.9492187 -1.2773442,0.9492187 H 8.0742266 l 0.6445312,-2.53125 c 0.082031,-0.3398437 0.09375,-0.3867187 0.5390625,-0.3867187 H 10.57032 c 1.21875,0 1.453125,0.328125 1.453125,1.1015625 0,0.2226562 0,0.2695312 -0.03516,0.5390625 -0.01172,0.1289062 -0.01172,0.140625 -0.01172,0.1757812 0,0.046875 0.02344,0.1171875 0.117188,0.1171875 0.105469,0 0.117187,-0.058594 0.140625,-0.2460937 l 0.199219,-1.7226563 c 0.02344,-0.2695312 -0.02344,-0.2695312 -0.269532,-0.2695312 H 7.2773516 c -0.1992188,0 -0.2929688,0 -0.2929688,0.1992187 0,0.1054688 0.09375,0.1054688 0.28125,0.1054688 0.3632813,0 0.6445313,0 0.6445313,0.1875 0,0.035156 0,0.058594 -0.046875,0.234375 l -1.3242188,5.27343745 c -0.09375,0.38671875 -0.1171875,0.46875 -0.9023437,0.46875 -0.1640625,0 -0.28125,0 -0.28125,0.1875 0,0.1171875 0.1289062,0.1171875 0.1523437,0.1171875 0.2929688,0 1.03125,-0.03515625 1.3125,-0.03515625 0.328125,0 1.1601563,0.03515625 1.4882813,0.03515625 0.09375,0 0.2109375,0 0.2109375,-0.1875 0,-0.0820312 -0.058594,-0.10546875 -0.058594,-0.1171875 -0.035156,0 -0.058594,0 -0.28125,0 -0.2226562,0 -0.2695312,0 -0.515625,-0.0234375 -0.2929687,-0.0351563 -0.328125,-0.0703125 -0.328125,-0.19921875 0,-0.0234375 0,-0.0820313 0.046875,-0.234375 z m 0,0"
         style="fill:#000000;fill-opacity:1;fill-rule:nonzero;stroke:none" />
    </g>
    <path
       id="path71"
       d="m 49.8139,136.09438 v -9.20577"
       style="fill:#808080;fill-opacity:1;fill-rule:nonzero;stroke:#808080;stroke-width:1.19553;stroke-linecap:butt;stroke-linejoin:miter;stroke-miterlimit:10;stroke-dasharray:none;stroke-opacity:1"
       transform="matrix(1.3333333,0,0,-1.3333333,254.024,310.22533)" />
    <path
       id="path72"
       d="M 5.73854,0 C 4.0382,0.31879 1.27522,1.27522 -0.6376,2.39105 v -4.7821 C 1.27522,-1.27522 4.0382,-0.31879 5.73854,0"
       style="fill:#808080;fill-opacity:1;fill-rule:nonzero;stroke:none"
       transform="matrix(0,1.3333333,1.3333333,0,320.44253,141.04052)" />
    <g
       id="g72"
       aria-label="2&#10;⃗&#10;F"
       transform="matrix(1.3333333,0,0,1.3333333,298.18933,155.11867)">
      <path
         id="path73"
         d="M 1.26425,-0.76282813 2.3189375,-1.7940781 c 1.5585937,-1.3710938 2.15625,-1.9101563 2.15625,-2.90625 0,-1.1367188 -0.9023438,-1.9335938 -2.1210938,-1.9335938 -1.125,0 -1.85156245,0.9140625 -1.85156245,1.8046875 0,0.5507813 0.4921875,0.5507813 0.52734375,0.5507813 0.1640625,0 0.515625,-0.1171875 0.515625,-0.5273438 0,-0.2578125 -0.1875,-0.515625 -0.5273438,-0.515625 -0.0820312,0 -0.1054687,0 -0.1289062,0.011719 0.2226562,-0.6445313 0.7617187,-1.0195313 1.3359375,-1.0195313 0.9140625,0 1.3359375,0.8085938 1.3359375,1.6289063 0,0.796875 -0.4921875,1.5820312 -1.0429688,2.203125 L 0.608,-0.36439063 C 0.50253125,-0.25892188 0.50253125,-0.23548438 0.50253125,-0.00110938 H 4.1939375 l 0.28125,-1.73437502 H 4.217375 c -0.046875,0.3046875 -0.1171875,0.73828127 -0.2109375,0.89062502 -0.070312,0.0820313 -0.7265625,0.0820313 -0.9492188,0.0820313 z m 0,0"
         style="fill:#000000;fill-opacity:1;fill-rule:nonzero;stroke:none" />
      <path
         id="path74"
         d="m 11.793547,-8.4473984 c -0.128906,0.1289062 -0.457031,0.4101562 -0.457031,0.5859375 0,0.1054687 0.09375,0.1992187 0.199218,0.1992187 0.08203,0 0.128907,-0.070312 0.1875,-0.1289062 0.117188,-0.140625 0.339844,-0.421875 0.785157,-0.6445313 0.07031,-0.035156 0.164062,-0.09375 0.164062,-0.2109375 0,-0.09375 -0.07031,-0.1523437 -0.140625,-0.1992187 -0.210937,-0.1523438 -0.328125,-0.328125 -0.398437,-0.5625 -0.02344,-0.09375 -0.07031,-0.2226563 -0.199219,-0.2226563 -0.140625,0 -0.199219,0.1289063 -0.199219,0.2109375 0,0.046875 0.07031,0.3632813 0.234375,0.5742188 H 8.6060469 c -0.1640625,0 -0.3398438,0 -0.3398438,0.1992187 0,0.1992188 0.1757813,0.1992188 0.3398438,0.1992188 z m -3.7880861,5.211914 h 0.9609375 c 0.75,0 0.8320313,0.1523438 0.8320313,0.4453125 0,0.070312 0,0.1875 -0.070312,0.4921875 -0.023437,0.046875 -0.035156,0.082031 -0.035156,0.1054688 0,0.082031 0.058594,0.1171875 0.1171875,0.1171875 0.1054688,0 0.1054688,-0.023437 0.1523438,-0.2109375 l 0.550781,-2.15625 c 0.02344,-0.1054688 0.02344,-0.1289063 0.02344,-0.1640625 0,-0.011719 -0.01172,-0.1054688 -0.117188,-0.1054688 -0.09375,0 -0.105468,0.046875 -0.152343,0.2109375 -0.199219,0.7734375 -0.4335943,0.9492188 -1.2773443,0.9492188 H 8.0757734 l 0.6445313,-2.53125 c 0.082031,-0.3398438 0.09375,-0.3867188 0.5390625,-0.3867188 h 1.3124998 c 1.21875,0 1.453125,0.328125 1.453125,1.1015625 0,0.2226563 0,0.2695313 -0.03516,0.5390625 -0.01172,0.1289063 -0.01172,0.140625 -0.01172,0.1757813 0,0.046875 0.02344,0.1171875 0.117188,0.1171875 0.105468,0 0.117187,-0.058594 0.140625,-0.2460938 l 0.199218,-1.7226562 c 0.02344,-0.2695313 -0.02344,-0.2695313 -0.269531,-0.2695313 H 7.2788984 c -0.1992187,0 -0.2929687,0 -0.2929687,0.1992188 0,0.1054687 0.09375,0.1054687 0.28125,0.1054687 0.3632812,0 0.6445312,0 0.6445312,0.1875 0,0.035156 0,0.058594 -0.046875,0.234375 l -1.3242187,5.27343752 c -0.09375,0.38671875 -0.1171875,0.46875 -0.9023438,0.46875 -0.1640625,0 -0.28125,0 -0.28125,0.1875 0,0.1171875 0.1289063,0.1171875 0.1523438,0.1171875 0.2929687,0 1.03125,-0.03515625 1.3125,-0.03515625 0.328125,0 1.1601562,0.03515625 1.4882812,0.03515625 0.09375,0 0.2109375,0 0.2109375,-0.1875 0,-0.0820313 -0.058594,-0.10546875 -0.058594,-0.1171875 -0.035156,0 -0.058594,0 -0.28125,0 -0.2226563,0 -0.2695313,0 -0.515625,-0.0234375 -0.2929688,-0.0351563 -0.328125,-0.0703125 -0.328125,-0.19921875 0,-0.0234375 0,-0.0820313 0.046875,-0.234375 z m 0,0"
         style="fill:#000000;fill-opacity:1;fill-rule:nonzero;stroke:none" />
    </g>
    <path
       id="path75"
       d="m 149.44174,136.09438 v -9.20577"
       style="fill:#808080;fill-opacity:1;fill-rule:nonzero;stroke:#808080;stroke-width:1.19553;stroke-linecap:butt;stroke-linejoin:miter;stroke-miterlimit:10;stroke-dasharray:none;stroke-opacity:1"
       transform="matrix(1.3333333,0,0,-1.3333333,254.024,310.22533)" />
    <path
       id="path76"
       d="M 5.73854,0 C 4.0382,0.31879 1.27522,1.27522 -0.6376,2.39105 v -4.7821 C 1.27522,-1.27522 4.0382,-0.31879 5.73854,0"
       style="fill:#808080;fill-opacity:1;fill-rule:nonzero;stroke:none"
       transform="matrix(0,1.3333333,1.3333333,0,453.27965,141.04052)" />
    <g
       id="g76"
       aria-label="2&#10;⃗&#10;F"
       transform="matrix(1.3333333,0,0,1.3333333,431.024,155.11867)">
      <path
         id="path77"
         d="M 1.2652031,-0.76282813 2.3198906,-1.7940781 c 1.5585938,-1.3710938 2.15625,-1.9101563 2.15625,-2.90625 0,-1.1367188 -0.9023437,-1.9335938 -2.1210937,-1.9335938 -1.125,0 -1.85156253,0.9140625 -1.85156253,1.8046875 0,0.5507813 0.4921875,0.5507813 0.52734373,0.5507813 0.1640625,0 0.515625,-0.1171875 0.515625,-0.5273438 0,-0.2578125 -0.1875,-0.515625 -0.5273437,-0.515625 -0.0820313,0 -0.10546878,0 -0.12890628,0.011719 0.22265628,-0.6445313 0.76171878,-1.0195313 1.33593748,-1.0195313 0.9140625,0 1.3359375,0.8085938 1.3359375,1.6289063 0,0.796875 -0.4921875,1.5820312 -1.0429687,2.203125 L 0.60895312,-0.36439063 C 0.50348437,-0.25892188 0.50348437,-0.23548438 0.50348437,-0.00110938 H 4.1948906 l 0.28125,-1.73437502 H 4.2183281 c -0.046875,0.3046875 -0.1171875,0.73828127 -0.2109375,0.89062502 -0.070312,0.0820313 -0.7265625,0.0820313 -0.9492187,0.0820313 z m 0,0"
         style="fill:#000000;fill-opacity:1;fill-rule:nonzero;stroke:none" />
      <path
         id="path78"
         d="m 11.7945,-8.4473984 c -0.128906,0.1289062 -0.457031,0.4101562 -0.457031,0.5859375 0,0.1054687 0.09375,0.1992187 0.199218,0.1992187 0.08203,0 0.128907,-0.070312 0.1875,-0.1289062 0.117188,-0.140625 0.339844,-0.421875 0.785157,-0.6445313 0.07031,-0.035156 0.164062,-0.09375 0.164062,-0.2109375 0,-0.09375 -0.07031,-0.1523437 -0.140625,-0.1992187 -0.210937,-0.1523438 -0.328125,-0.328125 -0.398437,-0.5625 -0.02344,-0.09375 -0.07031,-0.2226563 -0.199219,-0.2226563 -0.140625,0 -0.199219,0.1289063 -0.199219,0.2109375 0,0.046875 0.07031,0.3632813 0.234375,0.5742188 H 8.607 c -0.1640625,0 -0.3398438,0 -0.3398438,0.1992187 0,0.1992188 0.1757813,0.1992188 0.3398438,0.1992188 z m -3.7880859,5.211914 h 0.9609375 c 0.75,0 0.8320312,0.1523438 0.8320312,0.4453125 0,0.070312 0,0.1875 -0.070312,0.4921875 -0.023437,0.046875 -0.035156,0.082031 -0.035156,0.1054688 0,0.082031 0.058594,0.1171875 0.1171875,0.1171875 0.1054687,0 0.1054687,-0.023437 0.1523437,-0.2109375 l 0.550782,-2.15625 c 0.02344,-0.1054688 0.02344,-0.1289063 0.02344,-0.1640625 0,-0.011719 -0.01172,-0.1054688 -0.117187,-0.1054688 -0.09375,0 -0.105469,0.046875 -0.152344,0.2109375 -0.199219,0.7734375 -0.4335942,0.9492188 -1.2773442,0.9492188 H 8.0767266 l 0.6445312,-2.53125 c 0.082031,-0.3398438 0.09375,-0.3867188 0.5390625,-0.3867188 H 10.57282 c 1.21875,0 1.453125,0.328125 1.453125,1.1015625 0,0.2226563 0,0.2695313 -0.03516,0.5390625 -0.01172,0.1289063 -0.01172,0.140625 -0.01172,0.1757813 0,0.046875 0.02344,0.1171875 0.117188,0.1171875 0.105469,0 0.117187,-0.058594 0.140625,-0.2460938 l 0.199219,-1.7226562 c 0.02344,-0.2695313 -0.02344,-0.2695313 -0.269532,-0.2695313 H 7.2798516 c -0.1992188,0 -0.2929688,0 -0.2929688,0.1992188 0,0.1054687 0.09375,0.1054687 0.28125,0.1054687 0.3632813,0 0.6445313,0 0.6445313,0.1875 0,0.035156 0,0.058594 -0.046875,0.234375 l -1.3242188,5.27343752 c -0.09375,0.38671875 -0.1171875,0.46875 -0.9023437,0.46875 -0.1640625,0 -0.28125,0 -0.28125,0.1875 0,0.1171875 0.1289062,0.1171875 0.1523437,0.1171875 0.2929688,0 1.03125,-0.03515625 1.3125,-0.03515625 0.328125,0 1.1601563,0.03515625 1.4882813,0.03515625 0.09375,0 0.2109375,0 0.2109375,-0.1875 0,-0.0820313 -0.058594,-0.10546875 -0.058594,-0.1171875 -0.035156,0 -0.058594,0 -0.28125,0 -0.2226562,0 -0.2695312,0 -0.515625,-0.0234375 -0.2929687,-0.0351563 -0.328125,-0.0703125 -0.328125,-0.19921875 0,-0.0234375 0,-0.0820313 0.046875,-0.234375 z m 0,0"
         style="fill:#000000;fill-opacity:1;fill-rule:nonzero;stroke:none" />
    </g>
    <path
       id="path79"
       d="m 249.06958,136.09438 v -9.20577"
       style="fill:#808080;fill-opacity:1;fill-rule:nonzero;stroke:#808080;stroke-width:1.19553;stroke-linecap:butt;stroke-linejoin:miter;stroke-miterlimit:10;stroke-dasharray:none;stroke-opacity:1"
       transform="matrix(1.3333333,0,0,-1.3333333,254.024,310.22533)" />
    <path
       id="path80"
       d="M 5.73854,0 C 4.0382,0.31879 1.27522,1.27522 -0.6376,2.39105 v -4.7821 C 1.27522,-1.27522 4.0382,-0.31879 5.73854,0"
       style="fill:#808080;fill-opacity:1;fill-rule:nonzero;stroke:none"
       transform="matrix(0,1.3333333,1.3333333,0,586.11677,141.04052)" />
    <g
       id="g80"
       aria-label="2&#10;⃗&#10;F"
       transform="matrix(1.3333333,0,0,1.3333333,563.86,155.11867)">
      <path
         id="path81"
         d="M 1.2651563,-0.76282813 2.3198438,-1.7940781 c 1.5585937,-1.3710938 2.15625,-1.9101563 2.15625,-2.90625 0,-1.1367188 -0.9023438,-1.9335938 -2.1210938,-1.9335938 -1.125,0 -1.8515625,0.9140625 -1.8515625,1.8046875 0,0.5507813 0.4921875,0.5507813 0.5273438,0.5507813 0.1640625,0 0.515625,-0.1171875 0.515625,-0.5273438 0,-0.2578125 -0.1875,-0.515625 -0.5273438,-0.515625 -0.0820313,0 -0.10546875,0 -0.12890625,0.011719 0.22265625,-0.6445313 0.76171875,-1.0195313 1.33593755,-1.0195313 0.9140625,0 1.3359375,0.8085938 1.3359375,1.6289063 0,0.796875 -0.4921875,1.5820312 -1.0429688,2.203125 L 0.60890625,-0.36439063 C 0.5034375,-0.25892188 0.5034375,-0.23548438 0.5034375,-0.00110938 h 3.6914063 l 0.28125,-1.73437502 H 4.2182813 c -0.046875,0.3046875 -0.1171875,0.73828127 -0.2109375,0.89062502 -0.070312,0.0820313 -0.7265625,0.0820313 -0.9492188,0.0820313 z m 0,0"
         style="fill:#000000;fill-opacity:1;fill-rule:nonzero;stroke:none" />
      <path
         id="path82"
         d="m 11.794453,-8.4473984 c -0.128906,0.1289062 -0.457031,0.4101562 -0.457031,0.5859375 0,0.1054687 0.09375,0.1992187 0.199219,0.1992187 0.08203,0 0.128906,-0.070312 0.1875,-0.1289062 0.117187,-0.140625 0.339843,-0.421875 0.785156,-0.6445313 0.07031,-0.035156 0.164062,-0.09375 0.164062,-0.2109375 0,-0.09375 -0.07031,-0.1523437 -0.140625,-0.1992187 -0.210937,-0.1523438 -0.328125,-0.328125 -0.398437,-0.5625 -0.02344,-0.09375 -0.07031,-0.2226563 -0.199219,-0.2226563 -0.140625,0 -0.199219,0.1289063 -0.199219,0.2109375 0,0.046875 0.07031,0.3632813 0.234375,0.5742188 H 8.6069531 c -0.1640625,0 -0.3398437,0 -0.3398437,0.1992187 0,0.1992188 0.1757812,0.1992188 0.3398437,0.1992188 z m -3.7910155,5.211914 H 8.964375 c 0.75,0 0.8320313,0.1523438 0.8320313,0.4453125 0,0.070312 0,0.1875 -0.070312,0.4921875 -0.023437,0.046875 -0.035156,0.082031 -0.035156,0.1054688 0,0.082031 0.058594,0.1171875 0.1171875,0.1171875 0.1054688,0 0.1054688,-0.023437 0.1523438,-0.2109375 l 0.5507814,-2.15625 c 0.02344,-0.1054688 0.02344,-0.1289063 0.02344,-0.1640625 0,-0.011719 -0.01172,-0.1054688 -0.117188,-0.1054688 -0.09375,0 -0.105469,0.046875 -0.152344,0.2109375 -0.199218,0.7734375 -0.4335937,0.9492188 -1.2773437,0.9492188 H 8.07375 l 0.6445313,-2.53125 c 0.082031,-0.3398438 0.09375,-0.3867188 0.5390625,-0.3867188 h 1.3125002 c 1.21875,0 1.453125,0.328125 1.453125,1.1015625 0,0.2226563 0,0.2695313 -0.03516,0.5390625 -0.01172,0.1289063 -0.01172,0.140625 -0.01172,0.1757813 0,0.046875 0.02344,0.1171875 0.117187,0.1171875 0.105469,0 0.117188,-0.058594 0.140625,-0.2460938 l 0.199219,-1.7226562 c 0.02344,-0.2695313 -0.02344,-0.2695313 -0.269531,-0.2695313 H 7.276875 c -0.1992187,0 -0.2929687,0 -0.2929687,0.1992188 0,0.1054687 0.09375,0.1054687 0.28125,0.1054687 0.3632812,0 0.6445312,0 0.6445312,0.1875 0,0.035156 0,0.058594 -0.046875,0.234375 l -1.3242187,5.27343752 c -0.09375,0.38671875 -0.1171875,0.46875 -0.9023438,0.46875 -0.1640625,0 -0.28125,0 -0.28125,0.1875 0,0.1171875 0.1289063,0.1171875 0.1523438,0.1171875 0.2929687,0 1.03125,-0.03515625 1.3125,-0.03515625 0.328125,0 1.1601562,0.03515625 1.4882812,0.03515625 0.09375,0 0.2109375,0 0.2109375,-0.1875 0,-0.0820313 -0.058594,-0.10546875 -0.058594,-0.1171875 -0.035156,0 -0.058594,0 -0.28125,0 -0.2226563,0 -0.2695313,0 -0.515625,-0.0234375 -0.2929688,-0.0351563 -0.328125,-0.0703125 -0.328125,-0.19921875 0,-0.0234375 0,-0.0820313 0.046875,-0.234375 z m 0,0"
         style="fill:#000000;fill-opacity:1;fill-rule:nonzero;stroke:none" />
    </g>
    <path
       id="path83"
       d="m 125.53113,43.14023 c 0,0.55026 -0.44606,0.99634 -0.99634,0.99634 -0.55026,0 -0.99634,-0.44608 -0.99634,-0.99634 0,-0.55026 0.44608,-0.99634 0.99634,-0.99634 0.55028,0 0.99634,0.44608 0.99634,0.99634 z"
       style="fill:#000000;fill-opacity:1;fill-rule:nonzero;stroke:#000000;stroke-width:0.3985;stroke-linecap:butt;stroke-linejoin:miter;stroke-miterlimit:10;stroke-dasharray:none;stroke-opacity:1"
       transform="matrix(1.3333333,0,0,-1.3333333,254.024,310.22533)" />
    <path
       id="path84"
       d="m 175.34503,43.14023 c 0,0.55026 -0.44606,0.99634 -0.99633,0.99634 -0.55027,0 -0.99634,-0.44608 -0.99634,-0.99634 0,-0.55026 0.44607,-0.99634 0.99634,-0.99634 0.55027,0 0.99633,0.44608 0.99633,0.99634 z"
       style="fill:#000000;fill-opacity:1;fill-rule:nonzero;stroke:#000000;stroke-width:0.3985;stroke-linecap:butt;stroke-linejoin:miter;stroke-miterlimit:10;stroke-dasharray:none;stroke-opacity:1"
       transform="matrix(1.3333333,0,0,-1.3333333,254.024,310.22533)" />
    <path
       id="path85"
       d="m 75.7172,43.14023 c 0,0.55026 -0.44607,0.99634 -0.99634,0.99634 -0.55026,0 -0.99634,-0.44608 -0.99634,-0.99634 0,-0.55026 0.44608,-0.99634 0.99634,-0.99634 0.55027,0 0.99634,0.44608 0.99634,0.99634 z"
       style="fill:#000000;fill-opacity:1;fill-rule:nonzero;stroke:#000000;stroke-width:0.3985;stroke-linecap:butt;stroke-linejoin:miter;stroke-miterlimit:10;stroke-dasharray:none;stroke-opacity:1"
       transform="matrix(1.3333333,0,0,-1.3333333,254.024,310.22533)" />
    <path
       id="path86"
       d="M 149.44174,136.09438 H 105.36638"
       style="fill:#ff0000;fill-opacity:1;fill-rule:nonzero;stroke:#ff0000;stroke-width:1.19553;stroke-linecap:butt;stroke-linejoin:miter;stroke-miterlimit:10;stroke-dasharray:none;stroke-opacity:1"
       transform="matrix(1.3333333,0,0,-1.3333333,254.024,310.22533)" />
    <path
       id="path87"
       d="M 5.73854,0 C 4.0382,0.31879 1.27522,1.27522 -0.6376,2.39105 v -4.7821 C 1.27522,-1.27522 4.0382,-0.31879 5.73854,0"
       style="fill:#ff0000;fill-opacity:1;fill-rule:nonzero;stroke:none"
       transform="matrix(-1.3333333,0,0,1.3333333,394.51251,128.76616)" />
    <g
       id="g87"
       aria-label="2&#10;⃗&#10;T"
       transform="matrix(1.3333333,0,0,1.3333333,378.73467,123.544)">
      <path
         id="path88"
         d="M 1.2654063,-0.76249219 2.3200938,-1.7937422 c 1.5585937,-1.3710937 2.15625,-1.9101562 2.15625,-2.90625 0,-1.1367187 -0.9023438,-1.9335937 -2.1210938,-1.9335937 -1.125,0 -1.8515625,0.9140625 -1.8515625,1.8046875 0,0.5507812 0.4921875,0.5507812 0.5273438,0.5507812 0.1640625,0 0.515625,-0.1171875 0.515625,-0.5273437 0,-0.2578125 -0.1875,-0.515625 -0.5273438,-0.515625 -0.0820313,0 -0.10546875,0 -0.12890625,0.011719 0.22265625,-0.6445312 0.76171875,-1.0195312 1.33593755,-1.0195312 0.9140625,0 1.3359375,0.8085937 1.3359375,1.6289062 0,0.796875 -0.4921875,1.5820313 -1.0429688,2.203125 L 0.60915625,-0.36405469 C 0.5036875,-0.25858594 0.5036875,-0.23514844 0.5036875,-7.734375e-4 H 4.1950938 L 4.4763438,-1.7351484 H 4.2185313 c -0.046875,0.3046875 -0.1171875,0.73828121 -0.2109375,0.89062496 -0.070313,0.0820313 -0.7265625,0.0820313 -0.9492188,0.0820313 z m 0,0"
         style="fill:#ff0000;fill-opacity:1;fill-rule:nonzero;stroke:none" />
      <path
         id="path89"
         d="m 11.501734,-8.4470625 c -0.128906,0.1289063 -0.457031,0.4101563 -0.457031,0.5859375 0,0.1054688 0.09375,0.1992188 0.199219,0.1992188 0.08203,0 0.128906,-0.070312 0.1875,-0.1289063 0.117187,-0.140625 0.339844,-0.421875 0.785156,-0.6445312 0.07031,-0.035156 0.164063,-0.09375 0.164063,-0.2109375 0,-0.09375 -0.07031,-0.1523438 -0.140625,-0.1992188 -0.210938,-0.1523437 -0.328125,-0.328125 -0.398438,-0.5625 -0.02344,-0.09375 -0.07031,-0.2226562 -0.199219,-0.2226562 -0.140625,0 -0.199218,0.1289062 -0.199218,0.2109375 0,0.046875 0.07031,0.3632812 0.234375,0.5742187 H 8.3142344 c -0.1640625,0 -0.3398438,0 -0.3398438,0.1992188 0,0.1992187 0.1757813,0.1992187 0.3398438,0.1992187 z m -2.2646481,2.3994141 c 0.070312,-0.28125 0.1054688,-0.3398438 0.234375,-0.3632813 0.082031,-0.023437 0.4101563,-0.023437 0.6210941,-0.023437 1.007812,0 1.453125,0.035156 1.453125,0.8203125 0,0.140625 -0.03516,0.5273438 -0.08203,0.796875 0,0.035156 -0.02344,0.1523438 -0.02344,0.1875 0,0.058594 0.02344,0.1289063 0.117187,0.1289063 0.105469,0 0.128907,-0.082031 0.152344,-0.234375 l 0.269531,-1.734375 c 0.01172,-0.035156 0.01172,-0.140625 0.01172,-0.1640625 0,-0.1054688 -0.09375,-0.1054688 -0.269531,-0.1054688 H 6.2019297 c -0.2460938,0 -0.2578125,0 -0.3164063,0.1992188 l -0.5976562,1.7460937 c -0.011719,0.023437 -0.070312,0.1640625 -0.070312,0.1757813 0,0.070312 0.058594,0.1171875 0.1289062,0.1171875 0.09375,0 0.1054688,-0.046875 0.1640625,-0.2109375 0.5390625,-1.546875 0.796875,-1.7226563 2.2734375,-1.7226563 h 0.3867188 c 0.28125,0 0.28125,0.035156 0.28125,0.1171875 0,0.058594 -0.035156,0.1757813 -0.046875,0.2109375 l -1.3242188,5.32031251 c -0.09375,0.36328125 -0.1289062,0.48046875 -1.1953125,0.48046875 -0.3515625,0 -0.4101562,0 -0.4101562,0.1875 0,0.1171875025 0.1054687,0.1171875025 0.1640625,0.1171875025 0.2695312,0 0.5507812,-0.0234375025 0.8203125,-0.0234375025 0.28125,0 0.5625,-0.01171875 0.84375,-0.01171875 0.28125,0 0.5625,0.01171875 0.8320312,0.01171875 0.28125,0 0.5859375,0.0234375025 0.8671875,0.0234375025 0.09375,0 0.2109375,0 0.2109375,-0.1992187525 0,-0.10546875 -0.082031,-0.10546875 -0.3398437,-0.10546875 -0.2460938,0 -0.375,0 -0.6328125,-0.0234375 -0.2929688,-0.0351563 -0.3632813,-0.0585938 -0.3632813,-0.22265625 0,-0.0117188 0,-0.0585938 0.035156,-0.2109375 z m 0,0"
         style="fill:#ff0000;fill-opacity:1;fill-rule:nonzero;stroke:none" />
    </g>
    <path
       id="path90"
       d="m 150.43808,136.09438 c 0,0.55027 -0.44606,0.99633 -0.99634,0.99633 -0.55026,0 -0.99634,-0.44606 -0.99634,-0.99633 0,-0.55027 0.44608,-0.99634 0.99634,-0.99634 0.55028,0 0.99634,0.44607 0.99634,0.99634 z"
       style="fill:#ff0000;fill-opacity:1;fill-rule:nonzero;stroke:#ff0000;stroke-width:1.19553;stroke-linecap:butt;stroke-linejoin:miter;stroke-miterlimit:10;stroke-dasharray:none;stroke-opacity:1"
       transform="matrix(1.3333333,0,0,-1.3333333,254.024,310.22533)" />
    <path
       id="path91"
       d="M 199.25566,-49.8139 H 155.1803"
       style="fill:#ff0000;fill-opacity:1;fill-rule:nonzero;stroke:#ff0000;stroke-width:1.19553;stroke-linecap:butt;stroke-linejoin:miter;stroke-miterlimit:10;stroke-dasharray:none;stroke-opacity:1"
       transform="matrix(1.3333333,0,0,-1.3333333,254.024,310.22533)" />
    <path
       id="path92"
       d="M 5.73854,0 C 4.0382,0.31879 1.27522,1.27522 -0.6376,2.39105 v -4.7821 C 1.27522,-1.27522 4.0382,-0.31879 5.73854,0"
       style="fill:#ff0000;fill-opacity:1;fill-rule:nonzero;stroke:none"
       transform="matrix(-1.3333333,0,0,1.3333333,460.93107,376.64387)" />
    <g
       id="g92"
       aria-label="2&#10;⃗&#10;T"
       transform="matrix(1.3333333,0,0,1.3333333,445.15333,371.41867)">
      <path
         id="path93"
         d="M 1.2648828,-0.76224219 2.3195703,-1.7934922 c 1.5585938,-1.3710937 2.15625,-1.9101562 2.15625,-2.90625 0,-1.1367187 -0.9023437,-1.9335937 -2.1210937,-1.9335937 -1.125,0 -1.85156254,0.9140625 -1.85156254,1.8046875 0,0.5507812 0.4921875,0.5507812 0.52734374,0.5507812 0.1640625,0 0.515625,-0.1171875 0.515625,-0.5273437 0,-0.2578125 -0.1875,-0.515625 -0.5273437,-0.515625 -0.0820313,0 -0.10546879,0 -0.12890629,0.011719 0.22265629,-0.6445312 0.76171879,-1.0195312 1.33593749,-1.0195312 0.9140625,0 1.3359375,0.8085937 1.3359375,1.6289062 0,0.796875 -0.4921875,1.5820313 -1.0429687,2.203125 L 0.60863281,-0.36380469 C 0.50316406,-0.25833594 0.50316406,-0.23489844 0.50316406,-5.234375e-4 H 4.1945703 L 4.4758203,-1.7348984 H 4.2180078 c -0.046875,0.3046875 -0.1171875,0.73828121 -0.2109375,0.89062496 -0.070312,0.0820313 -0.7265625,0.0820313 -0.9492187,0.0820313 z m 0,0"
         style="fill:#ff0000;fill-opacity:1;fill-rule:nonzero;stroke:none" />
      <path
         id="path94"
         d="m 11.501211,-8.4468125 c -0.128906,0.1289063 -0.457031,0.4101563 -0.457031,0.5859375 0,0.1054688 0.09375,0.1992188 0.199218,0.1992188 0.08203,0 0.128907,-0.070312 0.1875,-0.1289063 0.117188,-0.140625 0.339844,-0.421875 0.785157,-0.6445312 0.07031,-0.035156 0.164062,-0.09375 0.164062,-0.2109375 0,-0.09375 -0.07031,-0.1523438 -0.140625,-0.1992188 -0.210937,-0.1523437 -0.328125,-0.328125 -0.398437,-0.5625 -0.02344,-0.09375 -0.07031,-0.2226562 -0.199219,-0.2226562 -0.140625,0 -0.199219,0.1289062 -0.199219,0.2109375 0,0.046875 0.07031,0.3632812 0.234375,0.5742187 H 8.3137109 c -0.1640625,0 -0.3398437,0 -0.3398437,0.1992188 0,0.1992187 0.1757812,0.1992187 0.3398437,0.1992187 z m -2.2675782,2.3994141 c 0.070312,-0.28125 0.1054688,-0.3398438 0.234375,-0.3632813 0.082031,-0.023437 0.4101563,-0.023437 0.6210942,-0.023437 1.007812,0 1.453125,0.035156 1.453125,0.8203125 0,0.140625 -0.03516,0.5273438 -0.08203,0.796875 0,0.035156 -0.02344,0.1523438 -0.02344,0.1875 0,0.058594 0.02344,0.1289063 0.117187,0.1289063 0.105469,0 0.128907,-0.082031 0.152344,-0.234375 l 0.269531,-1.734375 c 0.01172,-0.035156 0.01172,-0.140625 0.01172,-0.1640625 0,-0.1054688 -0.09375,-0.1054688 -0.269531,-0.1054688 H 6.1984766 c -0.2460938,0 -0.2578125,0 -0.3164063,0.1992188 l -0.5976562,1.7460937 c -0.011719,0.023437 -0.070312,0.1640625 -0.070312,0.1757813 0,0.070312 0.058594,0.1171875 0.1289062,0.1171875 0.09375,0 0.1054688,-0.046875 0.1640625,-0.2109375 0.5390625,-1.546875 0.796875,-1.7226563 2.2734375,-1.7226563 h 0.3867188 c 0.28125,0 0.28125,0.035156 0.28125,0.1171875 0,0.058594 -0.035156,0.1757813 -0.046875,0.2109375 l -1.3242188,5.32031251 c -0.09375,0.36328125 -0.1289062,0.48046875 -1.1953125,0.48046875 -0.3515625,0 -0.4101562,0 -0.4101562,0.1875 0,0.1171875025 0.1054687,0.1171875025 0.1640625,0.1171875025 0.2695312,0 0.5507812,-0.0234375025 0.8203125,-0.0234375025 0.28125,0 0.5625,-0.01171875 0.84375,-0.01171875 0.28125,0 0.5625,0.01171875 0.8320312,0.01171875 0.28125,0 0.5859375,0.0234375025 0.8671875,0.0234375025 0.09375,0 0.2109375,0 0.2109375,-0.1992187525 0,-0.10546875 -0.082031,-0.10546875 -0.3398437,-0.10546875 -0.2460938,0 -0.375,0 -0.6328125,-0.0234375 -0.2929688,-0.0351563 -0.3632813,-0.0585938 -0.3632813,-0.22265625 0,-0.0117188 0,-0.0585938 0.035156,-0.2109375 z m 0,0"
         style="fill:#ff0000;fill-opacity:1;fill-rule:nonzero;stroke:none" />
    </g>
    <path
       id="path95"
       d="m 200.252,-49.8139 c 0,0.55026 -0.44606,0.99633 -0.99634,0.99633 -0.55026,0 -0.99634,-0.44607 -0.99634,-0.99633 0,-0.55028 0.44608,-0.99634 0.99634,-0.99634 0.55028,0 0.99634,0.44606 0.99634,0.99634 z"
       style="fill:#ff0000;fill-opacity:1;fill-rule:nonzero;stroke:#ff0000;stroke-width:1.19553;stroke-linecap:butt;stroke-linejoin:miter;stroke-miterlimit:10;stroke-dasharray:none;stroke-opacity:1"
       transform="matrix(1.3333333,0,0,-1.3333333,254.024,310.22533)" />
  </g>
</svg>
